<svg width="12" height="12" viewBox="0 0 12 12" fill="none" xmlns="http://www.w3.org/2000/svg">
<path d="M6.00292 7.47773C6.09878 7.47773 6.1907 7.43883 6.25848 7.36958C6.32626 7.30034 6.36434 7.20642 6.36434 7.1085V4.52387C6.36434 4.42594 6.32626 4.33203 6.25848 4.26278C6.1907 4.19354 6.09878 4.15464 6.00292 4.15464C5.90707 4.15464 5.81514 4.19354 5.74736 4.26278C5.67958 4.33203 5.6415 4.42594 5.6415 4.52387V7.1085C5.6415 7.20642 5.67958 7.30034 5.74736 7.36958C5.81514 7.43883 5.90707 7.47773 6.00292 7.47773Z" fill="white"/>
<path d="M6.00292 8.95658C6.20253 8.95658 6.36434 8.79127 6.36434 8.58735C6.36434 8.38343 6.20253 8.21812 6.00292 8.21812C5.80332 8.21812 5.6415 8.38343 5.6415 8.58735C5.6415 8.79127 5.80332 8.95658 6.00292 8.95658Z" fill="white"/>
<path fill-rule="evenodd" clip-rule="evenodd" d="M10.8583 10.6492C10.6917 10.7482 10.5024 10.8003 10.3096 10.8002H1.69055C1.4978 10.8003 1.30846 10.7482 1.14186 10.6492C0.975247 10.5502 0.837328 10.4078 0.742165 10.2366C0.647003 10.0653 0.598004 9.87137 0.600166 9.67447C0.602329 9.47757 0.655575 9.28478 0.754474 9.11576L5.06439 1.74293C5.16104 1.57747 5.29808 1.44048 5.46209 1.34534C5.62611 1.25021 5.81149 1.2002 6.0001 1.2002C6.1887 1.2002 6.37408 1.25021 6.5381 1.34534C6.70212 1.44048 6.83915 1.57747 6.93581 1.74293L11.2457 9.11576C11.3446 9.28478 11.3979 9.47757 11.4 9.67447C11.4022 9.87137 11.3532 10.0653 11.258 10.2366C11.1629 10.4078 11.0249 10.5502 10.8583 10.6492ZM5.68458 2.12324L1.37394 9.49422C1.34165 9.55143 1.32457 9.61629 1.3244 9.68233C1.32424 9.74838 1.341 9.81332 1.37301 9.8707C1.40502 9.92808 1.45117 9.9759 1.50688 10.0094C1.56258 10.0429 1.6259 10.061 1.69055 10.0617H10.3096C10.3743 10.061 10.4376 10.0429 10.4933 10.0094C10.549 9.9759 10.5952 9.92808 10.6272 9.8707C10.6592 9.81332 10.676 9.74838 10.6758 9.68233C10.6756 9.61629 10.6585 9.55143 10.6262 9.49422L6.31561 2.12324C6.28226 2.06845 6.23579 2.02324 6.18058 1.99189C6.12538 1.96055 6.06326 1.9441 6.0001 1.9441C5.93694 1.9441 5.87482 1.96055 5.81961 1.99189C5.7644 2.02324 5.71793 2.06845 5.68458 2.12324Z" fill="white"/>
</svg>
