<svg width="53" height="50" viewBox="0 0 53 50" fill="none" xmlns="http://www.w3.org/2000/svg">
<path d="M20.7417 35.5435H6.8238C3.60755 35.5435 1 38.1224 1 41.3034L1 6.75996C1 3.57896 3.60755 1 6.8238 1L38.8382 1V12.3897" stroke="#2E2D29" stroke-width="2" stroke-miterlimit="10" stroke-linecap="round" stroke-linejoin="round"/>
<path d="M38.8382 41.6765V46.9972H6.8238C3.60755 46.9972 1 44.4507 1 41.3023C1 38.1538 3.60755 35.6074 6.8238 35.6074H20.7417" stroke="#2E2D29" stroke-width="2" stroke-miterlimit="10" stroke-linecap="round" stroke-linejoin="round"/>
<path d="M6.7583 41.6777H28.9677" stroke="#2E2D29" stroke-width="2" stroke-miterlimit="10" stroke-linecap="round" stroke-linejoin="round"/>
<path d="M42.9512 40.0488L51.9994 48.9979" stroke="#2E2D29" stroke-width="2" stroke-miterlimit="10" stroke-linecap="round" stroke-linejoin="round"/>
<path d="M33.9037 42.4912C42.5353 42.4912 49.5326 35.5706 49.5326 27.0337C49.5326 18.4967 42.5353 11.5762 33.9037 11.5762C25.2722 11.5762 18.2749 18.4967 18.2749 27.0337C18.2749 35.5706 25.2722 42.4912 33.9037 42.4912Z" stroke="#2E2D29" stroke-width="2" stroke-miterlimit="10" stroke-linecap="round" stroke-linejoin="round"/>
</svg>
