<svg xmlns="http://www.w3.org/2000/svg" width="24" height="24" viewBox="0 0 24 24" fill="none">
  <path fill-rule="evenodd" clip-rule="evenodd" d="M11.7016 1.07733C11.9015 0.974051 12.1431 0.974236 12.3428 1.07782L23.6515 6.94216C23.8674 7.05412 24.0012 7.26942 24 7.50288C23.9987 7.73635 23.8627 7.95036 23.6456 8.06025L12.0595 13.9252C11.8585 14.0269 11.6169 14.0248 11.4181 13.9195L0.343251 8.05447C0.13023 7.94166 -0.00127198 7.72783 9.27817e-06 7.49634C0.0012906 7.26486 0.135152 7.05235 0.34941 6.94167L11.7016 1.07733ZM2.05647 7.50659L11.7516 12.6409L21.9213 7.49294L12.0211 2.35904L2.05647 7.50659Z" fill="#2E2D29"/>
  <path d="M12 6L3.38603 10.5666C2.96802 10.7609 2.61532 11.0689 2.36969 11.4544C2.12407 11.8398 1.99581 12.2864 2.0001 12.7414L2.06648 22" stroke="#2E2D29" stroke-width="1.3" stroke-linecap="round" stroke-linejoin="round"/>
  <path d="M5 13.2266V16.2526C5 16.2526 7.35847 18.8742 12.0003 18.9961C16.932 19.1205 19 16.2526 19 16.2526V10" stroke="#2E2D29" stroke-width="1.3" stroke-linecap="round" stroke-linejoin="round"/>
</svg>