<svg xmlns="http://www.w3.org/2000/svg" width="24" height="24" viewBox="0 0 24 24" fill="none">
<path d="M21.1344 4.09781C20.6066 3.55968 19.98 3.13279 19.2902 2.84155C18.6005 2.5503 17.8613 2.40039 17.1147 2.40039C16.3681 2.40039 15.6289 2.5503 14.9392 2.84155C14.2494 3.13279 13.6228 3.55968 13.095 4.09781L11.9997 5.2141L10.9043 4.09781C9.83825 3.01133 8.39232 2.40095 6.88465 2.40095C5.37697 2.40095 3.93105 3.01133 2.86496 4.09781C1.79887 5.18429 1.19995 6.65787 1.19995 8.19438C1.19995 9.7309 1.79887 11.2045 2.86496 12.291L3.9603 13.4072L11.9997 21.6004L20.039 13.4072L21.1344 12.291C21.6624 11.7531 22.0813 11.1144 22.3671 10.4115C22.6529 9.70864 22.7999 8.95524 22.7999 8.19438C22.7999 7.43353 22.6529 6.68013 22.3671 5.97723C22.0813 5.27432 21.6624 4.63569 21.1344 4.09781Z" fill="#2E2D29" stroke="#2E2D29" stroke-width="1.6" stroke-linecap="round" stroke-linejoin="round"/>
</svg> 