<svg xmlns="http://www.w3.org/2000/svg" width="12" height="12" viewBox="0 0 12 12" fill="none">
<path d="M10.5673 2.04866C10.3034 1.7796 9.9901 1.56615 9.64525 1.42053C9.30039 1.2749 8.93076 1.19995 8.55747 1.19995C8.18419 1.19995 7.81456 1.2749 7.4697 1.42053C7.12484 1.56615 6.81152 1.7796 6.54763 2.04866L5.99996 2.60681L5.45229 2.04866C4.91925 1.50542 4.19628 1.20023 3.44245 1.20023C2.68861 1.20023 1.96565 1.50542 1.4326 2.04866C0.899559 2.5919 0.600098 3.32869 0.600098 4.09695C0.600098 4.8652 0.899559 5.60199 1.4326 6.14523L1.98027 6.70338L5.99996 10.8L10.0196 6.70338L10.5673 6.14523C10.8313 5.87629 11.0408 5.55698 11.1837 5.20553C11.3266 4.85407 11.4001 4.47737 11.4001 4.09695C11.4001 3.71652 11.3266 3.33982 11.1837 2.98837C11.0408 2.63692 10.8313 2.3176 10.5673 2.04866Z" stroke="#2E2D29" stroke-linecap="round" stroke-linejoin="round"/>
</svg>