<svg xmlns="http://www.w3.org/2000/svg" width="16" height="16" viewBox="0 0 16 16" fill="none">
<path fill-rule="evenodd" clip-rule="evenodd" d="M1.31939 0C1.03243 0 0.799805 0.223857 0.799805 0.499999V9.7578C0.799805 9.76257 0.799875 9.76733 0.800016 9.77209C0.796008 9.90709 0.848974 10.0409 0.952004 10.14L2.3791 11.5133L6.79358 15.8499C6.89131 15.9459 7.02509 16 7.16475 16H7.22874C7.24796 16.001 7.26727 16.001 7.28657 16H14.6802C14.9672 16 15.1998 15.7761 15.1998 15.5V0.499999C15.1998 0.223857 14.9672 0 14.6802 0H1.31939Z" fill="#2E2D29"/>
<path fill-rule="evenodd" clip-rule="evenodd" d="M0.839371 9.59479C0.919793 9.40795 1.10925 9.28613 1.31941 9.28613H7.25755C7.54451 9.28613 7.77714 9.50999 7.77714 9.78613V15.5004C7.77714 15.7026 7.65055 15.885 7.45639 15.9624C7.26223 16.0397 7.03875 15.997 6.89015 15.854L0.952004 10.1397C0.803403 9.99669 0.758949 9.78163 0.839371 9.59479ZM2.5738 10.2861L6.73796 14.2933V10.2861H2.5738Z" fill="white"/>
<path d="M3.54595 3.57129C3.25899 3.57129 3.02637 3.79515 3.02637 4.07129C3.02637 4.34743 3.25899 4.57129 3.54595 4.57129H12.4532C12.7401 4.57129 12.9728 4.34743 12.9728 4.07129C12.9728 3.79515 12.7401 3.57129 12.4532 3.57129H3.54595Z" fill="white"/>
<path d="M3.02637 6.92805C3.02637 6.65191 3.25899 6.42805 3.54595 6.42805H9.4841C9.77106 6.42805 10.0037 6.65191 10.0037 6.92805C10.0037 7.20419 9.77106 7.42805 9.4841 7.42805H3.54595C3.25899 7.42805 3.02637 7.20419 3.02637 6.92805Z" fill="white"/>
</svg>