<svg xmlns="http://www.w3.org/2000/svg" width="16" height="16" viewBox="0 0 16 16" fill="none">
<path fill-rule="evenodd" clip-rule="evenodd" d="M1.31939 0C1.03243 0 0.799805 0.223857 0.799805 0.5V9.7578C0.799805 9.76222 0.799865 9.76663 0.799987 9.77104C0.796282 9.90569 0.84924 10.039 0.952004 10.1379L2.27475 11.4108L6.79358 15.8499C6.89131 15.9459 7.02509 16 7.16475 16H14.6802C14.9672 16 15.1998 15.7761 15.1998 15.5V0.5C15.1998 0.223857 14.9672 0 14.6802 0H1.31939ZM7.77714 15H14.1606V0.999999H1.83898V9.28438H7.25755C7.54451 9.28438 7.77714 9.50823 7.77714 9.78438V15ZM3.01333 10.7073L2.58277 10.2844H6.73796V14.2915L3.01333 10.7073ZM3.54595 3.57188C3.25899 3.57188 3.02637 3.79573 3.02637 4.07187C3.02637 4.34802 3.25899 4.57187 3.54595 4.57187H12.4532C12.7401 4.57187 12.9728 4.34802 12.9728 4.07187C12.9728 3.79573 12.7401 3.57188 12.4532 3.57188H3.54595ZM3.02637 6.92812C3.02637 6.65198 3.25899 6.42812 3.54595 6.42812H9.4841C9.77106 6.42812 10.0037 6.65198 10.0037 6.92812C10.0037 7.20427 9.77106 7.42812 9.4841 7.42812H3.54595C3.25899 7.42812 3.02637 7.20427 3.02637 6.92812Z" fill="#585754"/>
</svg>