<svg width="12" height="12" viewBox="0 0 12 12" fill="none" xmlns="http://www.w3.org/2000/svg">
<g clip-path="url(#clip0_14126_3404)">
<path fill-rule="evenodd" clip-rule="evenodd" d="M6 2.02831L4.85971 4.76685L4.45613 5.05975L1.49635 5.29677L3.75139 7.2263L3.90554 7.70021L3.21659 10.5852L5.75057 9.03922H6.24943L8.78341 10.5852L8.09446 7.70021L8.24861 7.2263L10.5036 5.29677L7.54387 5.05975L7.14029 4.76685L6 2.02831ZM4.08831 4.13017L5.55818 0.600098H6.44182L7.9117 4.13017L11.7269 4.43569L12 5.27516L9.09319 7.76239L9.98127 11.4813L9.26638 12.0001L6 10.0072L2.73362 12.0001L2.01873 11.4813L2.90681 7.76239L0 5.27516L0.273062 4.43569L4.08831 4.13017Z" fill="#585754"/>
</g>
<defs>
<clipPath id="clip0_14126_3404">
<rect width="12" height="12" fill="white"/>
</clipPath>
</defs>
</svg>
