<svg xmlns="http://www.w3.org/2000/svg" width="11" height="13" viewBox="0 0 11 13" fill="none">
<path d="M1.1 12.9821H1.65V4.0996H1.1C0.808262 4.0996 0.528472 4.24357 0.322182 4.49984C0.115892 4.75612 0 5.1037 0 5.46613V11.6155C0 11.978 0.115892 12.3255 0.322182 12.5818C0.528472 12.8381 0.808262 12.9821 1.1 12.9821ZM9.9 4.0996H6.05L6.6671 1.79836C6.72216 1.59298 6.73716 1.37428 6.71086 1.16029C6.68457 0.946299 6.61772 0.74313 6.51584 0.567517C6.41395 0.391905 6.27994 0.248874 6.12485 0.150206C5.96975 0.0515383 5.798 5.61049e-05 5.62375 0H5.5L2.75 3.7156V12.9821H8.8L10.9516 7.1087L11 6.83266V5.46613C11 5.1037 10.8841 4.75612 10.6778 4.49984C10.4715 4.24357 10.1917 4.0996 9.9 4.0996Z" fill="#8C1515"/>
</svg>