<svg width="44" height="50" viewBox="0 0 44 50" fill="none" xmlns="http://www.w3.org/2000/svg">
<path fill-rule="evenodd" clip-rule="evenodd" d="M0 6.41992C0 5.86764 0.447716 5.41992 1 5.41992H9.56002C10.1123 5.41992 10.56 5.86764 10.56 6.41992C10.56 6.97221 10.1123 7.41993 9.56002 7.41993H2L2 48H32.6701V42.81C32.6701 42.2577 33.1178 41.81 33.6701 41.81C34.2223 41.81 34.6701 42.2577 34.6701 42.81V49C34.6701 49.5523 34.2223 50 33.6701 50H1C0.447716 50 0 49.5523 0 49L0 6.41992Z" fill="#2E2D29"/>
<path fill-rule="evenodd" clip-rule="evenodd" d="M24.1104 6.41992C24.1104 5.86764 24.5581 5.41992 25.1104 5.41992H33.6704C34.2227 5.41992 34.6704 5.86764 34.6704 6.41992V21.1299C34.6704 21.6822 34.2227 22.1299 33.6704 22.1299C33.1181 22.1299 32.6704 21.6822 32.6704 21.1299V7.41992H25.1104C24.5581 7.41992 24.1104 6.97221 24.1104 6.41992Z" fill="#2E2D29"/>
<path fill-rule="evenodd" clip-rule="evenodd" d="M4.66992 18.0313C4.66992 17.479 5.11764 17.0312 5.66992 17.0312H28.13C28.6822 17.0312 29.13 17.479 29.13 18.0313C29.13 18.5835 28.6822 19.0313 28.13 19.0313H5.66992C5.11764 19.0313 4.66992 18.5835 4.66992 18.0313Z" fill="#2E2D29"/>
<path fill-rule="evenodd" clip-rule="evenodd" d="M4.66992 24.6875C4.66992 24.1352 5.11764 23.6875 5.66992 23.6875H24.11C24.6622 23.6875 25.11 24.1352 25.11 24.6875C25.11 25.2398 24.6622 25.6875 24.11 25.6875H5.66992C5.11764 25.6875 4.66992 25.2398 4.66992 24.6875Z" fill="#2E2D29"/>
<path fill-rule="evenodd" clip-rule="evenodd" d="M4.66992 31.3379C4.66992 30.7856 5.11764 30.3379 5.66992 30.3379H21.09C21.6422 30.3379 22.09 30.7856 22.09 31.3379C22.09 31.8902 21.6422 32.3379 21.09 32.3379H5.66992C5.11764 32.3379 4.66992 31.8902 4.66992 31.3379Z" fill="#2E2D29"/>
<path fill-rule="evenodd" clip-rule="evenodd" d="M4.66992 38C4.66992 37.4477 5.11764 37 5.66992 37H23.1C23.6522 37 24.1 37.4477 24.1 38C24.1 38.5523 23.6522 39 23.1 39H5.66992C5.11764 39 4.66992 38.5523 4.66992 38Z" fill="#2E2D29"/>
<path fill-rule="evenodd" clip-rule="evenodd" d="M17.3222 2.00001C17.7866 1.99892 18.2382 2.15257 18.6056 2.4367L17.3222 2.00001ZM17.3172 1.19724e-05C18.2262 -0.00218667 19.11 0.298494 19.8291 0.854587C20.3357 1.24638 20.7402 1.74921 21.0143 2.32002H25.1096C25.6619 2.32002 26.1096 2.76774 26.1096 3.32002V9.52003C26.1096 10.0723 25.6619 10.52 25.1096 10.52H9.55957C9.00729 10.52 8.55957 10.0723 8.55957 9.52003V3.32002C8.55957 2.76774 9.00729 2.32002 9.55957 2.32002H13.6278C13.9031 1.75103 14.3076 1.24982 14.8133 0.858768C15.5303 0.304248 16.4106 0.00234168 17.317 1.23301e-05L17.3172 1.19724e-05ZM17.322 2.00001C16.8567 2.00124 16.4048 2.15624 16.0368 2.44088C15.6687 2.72554 15.405 3.12393 15.2868 3.57404C15.1714 4.01359 14.774 4.32002 14.3196 4.32002H10.5596V8.52003H24.1096V4.32002H20.3196C19.8633 4.32002 19.4649 4.01113 19.3511 3.56921C19.2354 3.11935 18.9731 2.72086 18.6056 2.4367" fill="#2E2D29"/>
<path fill-rule="evenodd" clip-rule="evenodd" d="M32.1097 22.1309C26.6433 22.1309 22.2197 26.5407 22.2197 31.9709C22.2197 37.401 26.6433 41.8109 32.1097 41.8109C37.5762 41.8109 41.9998 37.401 41.9998 31.9709C41.9998 26.5407 37.5762 22.1309 32.1097 22.1309ZM20.2197 31.9709C20.2197 25.4275 25.5474 20.1309 32.1097 20.1309C38.6721 20.1309 43.9998 25.4275 43.9998 31.9709C43.9998 38.5143 38.6721 43.8109 32.1097 43.8109C25.5474 43.8109 20.2197 38.5143 20.2197 31.9709Z" fill="#2E2D29"/>
<path fill-rule="evenodd" clip-rule="evenodd" d="M37.8758 28.3012C38.2726 28.6854 38.2827 29.3185 37.8985 29.7152L30.8385 37.0052C30.652 37.1977 30.3961 37.3074 30.1281 37.3095C29.8602 37.3117 29.6025 37.2061 29.413 37.0166L26.413 34.0166C26.0225 33.6261 26.0225 32.993 26.413 32.6024C26.8035 32.2119 27.4367 32.2119 27.8272 32.6024L30.1087 34.8839L36.4618 28.3238C36.846 27.9271 37.4791 27.917 37.8758 28.3012Z" fill="#2E2D29"/>
</svg>
