<svg width="48" height="48" viewBox="0 0 48 48" fill="none" xmlns="http://www.w3.org/2000/svg">
<path d="M46.4446 31.8845L46.4093 31.9198L46.4446 31.8844L39.5624 25.0011C41.2227 22.8 42.2593 20.1664 42.5263 17.4057L42.4765 17.4009L42.5263 17.4057C42.8548 14 42.0066 10.5591 40.1374 7.71633L40.0956 7.7438L40.1374 7.71631C39.9176 7.38233 39.4687 7.28954 39.135 7.50937C38.801 7.72913 38.7082 8.17811 38.928 8.51214C42.4403 13.8534 41.7036 21.0171 37.1762 25.5448C31.8883 30.8331 23.2848 30.8331 17.9972 25.5448C12.7093 20.2566 12.7093 11.6517 17.9972 6.36341L17.9618 6.32806L17.9972 6.36341C23.2848 1.07515 31.8886 1.07515 37.1744 6.36166L37.2111 6.39869L37.2112 6.39877C37.4931 6.68218 37.9511 6.68416 38.2347 6.40216C38.5185 6.12055 38.5201 5.66215 38.2385 5.37863C38.2385 5.37862 38.2384 5.37861 38.2384 5.37859L38.1999 5.33968L38.1997 5.33952C32.3474 -0.513173 22.8256 -0.513173 16.9733 5.33952C16.7948 5.51802 16.6219 5.69985 16.4544 5.88499H1.67383C1.2742 5.88499 0.95 6.2092 0.95 6.60882V9.5891C0.95 9.98906 1.27419 10.3133 1.67383 10.3133C2.07383 10.3133 2.39765 9.98904 2.39765 9.5891V7.333H15.2991C14.8125 8.02609 14.3912 8.7511 14.0353 9.50014H5.67187C5.27226 9.50014 4.94804 9.82398 4.94804 10.224C4.94804 10.624 5.27226 10.9478 5.67187 10.9478H13.4385C13.2594 11.4566 13.1087 11.9731 12.986 12.4952H5.67187C5.27226 12.4952 4.94804 12.819 4.94804 13.219C4.94804 13.6186 5.27224 13.9428 5.67187 13.9428H12.7193C12.6504 14.4563 12.608 14.9727 12.5921 15.4898H5.67187C5.27223 15.4898 4.94804 15.8141 4.94804 16.214C4.94804 16.6136 5.27224 16.9378 5.67187 16.9378H12.6173C12.7425 18.8598 13.2336 20.762 14.0925 22.5292H13.0394C12.6394 22.5292 12.3156 22.8535 12.3156 23.2534V43.2015C12.3156 43.6014 12.6394 43.9257 13.0394 43.9257H18.43C18.83 43.9257 19.1538 43.6014 19.1538 43.2015V28.3735C19.7298 28.7649 20.3268 29.1121 20.9405 29.4146V43.2015C20.9405 43.6014 21.2647 43.9257 21.6644 43.9257H27.055C27.455 43.9257 27.7788 43.6014 27.7788 43.2015V30.9564C28.2707 30.9499 28.7619 30.92 29.2514 30.866V41.219C29.2514 41.6189 29.5752 41.9431 29.9753 41.9431C30.3749 41.9431 30.6991 41.6189 30.6991 41.219V30.6338C32.8082 30.19 34.8395 29.2896 36.6332 27.9321L43.514 34.814L43.5494 34.7786L43.514 34.814C43.9056 35.2052 44.4261 35.421 44.9791 35.421C45.5325 35.421 46.0531 35.2052 46.4443 34.814C47.2517 34.0069 47.252 32.6929 46.4446 31.8845ZM16.9733 26.5687L17.0076 26.5345L16.9733 26.5687C17.2116 26.807 17.4565 27.0348 17.7062 27.2534V42.4776H13.7632V23.9772H14.8996C15.4814 24.8972 16.1723 25.7674 16.9733 26.5687ZM45.4211 33.7901L45.4211 33.7901C45.3031 33.9081 45.1463 33.973 44.9795 33.973C44.8127 33.973 44.6559 33.9081 44.5383 33.7902L44.5382 33.7901L37.7488 27.0003C37.9013 26.8599 38.0518 26.7166 38.1997 26.5687C38.3472 26.4213 38.4911 26.2711 38.6317 26.1179L45.4204 32.908C45.6638 33.1514 45.664 33.5475 45.4211 33.7901ZM22.3886 42.4776V30.0351C23.6646 30.504 24.9919 30.7938 26.3315 30.9053V42.4776H22.3886Z" fill="#8C1515" stroke="#8C1515" stroke-width="0.1"/>
<path d="M29.9753 43.3998C29.5757 43.3998 29.2515 43.7236 29.2515 44.1236V45.6013H2.39766V12.5088C2.39766 12.1088 2.0738 11.785 1.67383 11.785C1.27422 11.785 0.95 12.1088 0.95 12.5088V46.3251C0.95 46.7251 1.27422 47.049 1.67383 47.049H29.9753C30.3753 47.049 30.6991 46.7251 30.6991 46.3251V44.1236C30.6991 43.7236 30.3753 43.3998 29.9753 43.3998Z" fill="#8C1515" stroke="#8C1515" stroke-width="0.1"/>
<path d="M3.86797 28.6436V43.2007C3.86797 43.6003 4.19217 43.9245 4.5918 43.9245H9.98277C10.3824 43.9245 10.7066 43.6003 10.7066 43.2007V28.6436C10.7066 28.2439 10.3824 27.9197 9.98277 27.9197H4.5918C4.19217 27.9197 3.86797 28.2439 3.86797 28.6436ZM5.31562 29.3677H9.25894V42.4765H5.31562V29.3677Z" fill="#8C1515" stroke="#8C1515" stroke-width="0.1"/>
<path d="M19.9034 8.26863L19.9034 8.26863C22.0214 6.15024 24.8042 5.09066 27.5869 5.09066C30.3695 5.09066 33.1523 6.15024 35.2704 8.26863C37.3193 10.3179 38.4476 13.0468 38.4476 15.9535C38.4476 18.8599 37.3193 21.5888 35.2704 23.6381C33.2214 25.6873 30.4929 26.8157 27.5869 26.8157C24.6805 26.8157 21.9523 25.6873 19.9034 23.6381C17.8541 21.5888 16.7258 18.8599 16.7258 15.9535C16.7258 13.0468 17.8541 10.3179 19.9034 8.26863ZM36.2943 7.24509L36.2589 7.28044L36.2943 7.24509C33.9717 4.92256 30.8794 3.64336 27.5869 3.64336C24.2944 3.64336 21.2017 4.92256 18.8795 7.24509C16.5573 9.56762 15.2781 12.6607 15.2781 15.9535C15.2781 19.2464 16.5573 22.3394 18.8795 24.662C21.202 26.9845 24.2944 28.2637 27.5869 28.2637C30.8794 28.2637 33.9717 26.9845 36.2943 24.662C38.6164 22.3394 39.8953 19.2464 39.8953 15.9535C39.8953 12.6607 38.6164 9.56762 36.2943 7.24509Z" fill="#8C1515" stroke="#8C1515" stroke-width="0.1"/>
</svg>
