<svg width="36" height="36" viewBox="0 0 36 36" fill="none" xmlns="http://www.w3.org/2000/svg">
<path d="M4.51772 33.8054H30.9213C31.1442 33.8054 31.3691 33.7317 31.5445 33.5846C31.7219 33.4358 31.839 33.2173 31.839 32.971V3.43436C31.839 3.18815 31.7219 2.96964 31.5445 2.82079C31.3691 2.67368 31.1442 2.6 30.9213 2.6H4.51772C4.29481 2.6 4.06987 2.67368 3.89454 2.82079C3.71712 2.96964 3.6 3.18815 3.6 3.43436V32.971C3.6 33.2173 3.71712 33.4358 3.89454 33.5846C4.06987 33.7317 4.29481 33.8054 4.51772 33.8054ZM30.0036 32.1367H5.43543V4.26873H30.0036V32.1367Z" fill="#8C1515" stroke="#8C1515" stroke-width="0.8"/>
<path d="M8.41929 10.7608H27.0235C27.2802 10.7608 27.517 10.6475 27.6847 10.4617C27.8511 10.2772 27.9385 10.0351 27.9385 9.79015C27.9385 9.54521 27.8511 9.30309 27.6847 9.11864C27.517 8.93284 27.2802 8.81948 27.0235 8.81948H8.41929C8.1626 8.81948 7.92585 8.93284 7.75818 9.11864C7.59173 9.30309 7.5043 9.54521 7.5043 9.79015C7.5043 10.0351 7.59173 10.2772 7.75818 10.4617C7.92585 10.6475 8.1626 10.7608 8.41929 10.7608Z" fill="#8C1515" stroke="#8C1515" stroke-width="0.8"/>
<path d="M8.41929 16.8223H27.0235C27.2802 16.8223 27.517 16.709 27.6847 16.5232C27.8511 16.3387 27.9385 16.0966 27.9385 15.8517C27.9385 15.6067 27.8511 15.3646 27.6847 15.1802C27.517 14.9944 27.2802 14.881 27.0235 14.881H8.41929C8.1626 14.881 7.92585 14.9944 7.75818 15.1802C7.59173 15.3646 7.5043 15.6067 7.5043 15.8517C7.5043 16.0966 7.59173 16.3387 7.75818 16.5232C7.92585 16.709 8.1626 16.8223 8.41929 16.8223Z" fill="#8C1515" stroke="#8C1515" stroke-width="0.8"/>
<path d="M8.41929 22.889H27.0235C27.2802 22.889 27.517 22.7756 27.6847 22.5898C27.8511 22.4054 27.9385 22.1633 27.9385 21.9183C27.9385 21.6734 27.8511 21.4313 27.6847 21.2468C27.517 21.061 27.2802 20.9477 27.0235 20.9477H8.41929C8.1626 20.9477 7.92585 21.061 7.75818 21.2468C7.59173 21.4313 7.5043 21.6734 7.5043 21.9183C7.5043 22.1633 7.59173 22.4054 7.75818 22.5898C7.92585 22.7756 8.1626 22.889 8.41929 22.889Z" fill="#8C1515" stroke="#8C1515" stroke-width="0.8"/>
</svg>
