<svg width="48" height="48" viewBox="0 0 48 48" fill="none" xmlns="http://www.w3.org/2000/svg">
<path d="M39.7413 18.3248H20.0161C19.613 18.3248 19.2945 18.6667 19.2945 19.0778C19.2945 19.489 19.613 19.8309 20.0161 19.8309H39.7413C40.1444 19.8309 40.4629 19.489 40.4629 19.0778C40.4629 18.6667 40.1444 18.3248 39.7413 18.3248Z" fill="#2E2D29" stroke="#2E2D29" stroke-width="0.2"/>
<path d="M39.7413 23.3141H20.0161C19.613 23.3141 19.2945 23.6559 19.2945 24.0671C19.2945 24.4783 19.613 24.8201 20.0161 24.8201H39.7413C40.1444 24.8201 40.4629 24.4783 40.4629 24.0671C40.4629 23.6559 40.1444 23.3141 39.7413 23.3141Z" fill="#2E2D29" stroke="#2E2D29" stroke-width="0.2"/>
<path d="M39.7413 28.3028H20.0161C19.613 28.3028 19.2945 28.6447 19.2945 29.0559C19.2945 29.467 19.613 29.8089 20.0161 29.8089H39.7413C40.1444 29.8089 40.4629 29.467 40.4629 29.0559C40.4629 28.6447 40.1444 28.3028 39.7413 28.3028Z" fill="#2E2D29" stroke="#2E2D29" stroke-width="0.2"/>
<path d="M41.7171 12.6144H18.0431C15.9898 12.6144 14.3277 14.3665 14.3277 16.5102V32.1401C14.3277 34.2837 15.9897 36.036 18.0431 36.036H34.6364C34.7813 36.036 34.9169 36.1041 35.0088 36.2262L40.3673 43.3489C40.5966 43.6536 40.9338 43.8224 41.2892 43.8224C41.421 43.8224 41.5545 43.7992 41.6851 43.7516C42.1683 43.5754 42.4776 43.1151 42.4776 42.5849V35.9525C44.1629 35.5808 45.4325 34.0023 45.4325 32.1401V16.5102C45.4325 14.3665 43.7705 12.6144 41.7171 12.6144ZM43.9893 32.1401C43.9893 33.4454 42.9785 34.5133 41.7466 34.5297C41.3473 34.5351 41.0343 34.875 41.0343 35.2823V41.797L36.1442 35.2969C35.7788 34.811 35.2292 34.5307 34.6364 34.5307H18.0431C16.7948 34.5307 15.7709 33.4628 15.7709 32.14V16.5102C15.7709 15.1874 16.7948 14.1195 18.0431 14.1195H41.7171C42.9653 14.1195 43.9893 15.1874 43.9893 16.5102V32.1401Z" fill="#2E2D29" stroke="#2E2D29" stroke-width="0.2"/>
<path d="M12.0395 25.0239L12.0395 25.024L7.37474 31.2245L7.29483 31.1644L7.37474 31.2245C7.15715 31.5137 6.83674 31.6741 6.49928 31.6741C6.37405 31.6741 6.24726 31.652 6.12331 31.6068C5.66433 31.4395 5.37083 31.0024 5.37083 30.4992V24.8036C3.89801 24.4413 2.79844 23.0469 2.79844 21.4067V7.80053C2.79844 5.88133 4.28665 4.31162 6.12616 4.31162H26.7351C28.5746 4.31162 30.0628 5.88133 30.0628 7.80053V10.3181C30.0628 10.7291 29.7442 11.0708 29.3412 11.0708C28.9382 11.0708 28.6196 10.7291 28.6196 10.3181V7.80053C28.6196 6.70221 27.7696 5.81689 26.7351 5.81689H6.12616C5.09167 5.81689 4.24162 6.70221 4.24162 7.80053V21.4067C4.24162 22.4906 5.08078 23.3759 6.10165 23.3895C6.50092 23.3949 6.81393 23.7348 6.81393 24.1421V29.5313L10.904 24.0946L10.9839 24.1547L10.904 24.0946C11.1855 23.7206 11.5893 23.4762 12.0413 23.4089L12.0395 25.0239ZM12.0395 25.0239C12.0915 24.9547 12.1648 24.9111 12.2456 24.899M12.0395 25.0239L12.2456 24.899M12.2456 24.899C12.6438 24.8396 12.913 24.4555 12.858 24.0488C12.858 24.0488 12.858 24.0487 12.858 24.0487L12.7589 24.0622L12.2456 24.899Z" fill="#2E2D29" stroke="#2E2D29" stroke-width="0.2"/>
</svg>
