<svg width="48" height="48" viewBox="0 0 48 48" fill="none" xmlns="http://www.w3.org/2000/svg">
<path d="M46.3193 19.894L42.9672 19.0561C42.5092 17.1013 41.7451 15.2492 40.6898 13.5363L42.4623 10.5823C42.6744 10.2288 42.6187 9.77622 42.3273 9.48467L38.5152 5.6726C38.2235 5.38106 37.7712 5.32526 37.4176 5.53747L34.4636 7.31C32.7506 6.2547 30.8985 5.49057 28.9437 5.03255L28.1059 1.68039C28.006 1.28058 27.6466 1 27.2343 1H21.8437C21.4315 1 21.0721 1.28058 20.9721 1.68048L20.1242 5.07127C18.185 5.54017 16.3571 6.30384 14.6761 7.34747L11.6604 5.53756C11.3067 5.32526 10.8542 5.38106 10.5628 5.6726L6.75072 9.48467C6.45918 9.77622 6.40348 10.2288 6.61569 10.5824L8.45488 13.6467C7.4365 15.3235 6.69619 17.127 6.24832 19.0217L2.7586 19.894C2.35862 19.9939 2.07804 20.3533 2.07804 20.7656V26.1562C2.07804 26.5685 2.35862 26.9278 2.75851 27.0278L6.28713 27.91C6.74282 29.7783 7.47441 31.5456 8.46692 33.1798L3.58651 38.0603C3.58633 38.0605 3.58624 38.0606 3.58606 38.0608L2.31648 39.3312C1.46764 40.1791 1 41.3073 1 42.5077C1 43.7081 1.46755 44.8363 2.31594 45.6836C3.16434 46.5325 4.29242 47 5.49219 47C6.69196 47 7.82004 46.5325 8.66808 45.6839L9.93937 44.4134L9.93946 44.4134L9.93955 44.4133L14.8202 39.5326C16.4558 40.5255 18.223 41.257 20.0898 41.7125L20.9722 45.2411C21.0722 45.641 21.4316 45.9216 21.8438 45.9216H27.2344C27.6467 45.9216 28.0061 45.641 28.1061 45.241L28.9783 41.7511C30.8737 41.3027 32.677 40.5626 34.3533 39.5453L37.4178 41.384C37.7714 41.596 38.2237 41.5403 38.5154 41.2489L42.3274 37.4368C42.619 37.1453 42.6746 36.6928 42.4626 36.3393L40.6526 33.3227C41.6961 31.6426 42.4599 29.8147 42.9288 27.8753L46.3196 27.0274C46.7195 26.9274 47 26.5681 47 26.1558V20.7652C46.9998 20.3533 46.7192 19.9939 46.3193 19.894ZM7.39751 44.4133C6.88845 44.9227 6.21184 45.2032 5.49219 45.2032C4.77254 45.2032 4.09593 44.9227 3.58633 44.4127C3.07719 43.9043 2.79688 43.2277 2.79688 42.5076C2.79688 41.7875 3.07728 41.1109 3.58696 40.6018L4.22198 39.9664L8.03351 43.7777L7.39751 44.4133ZM14.0612 37.7507C14.0599 37.7521 14.0585 37.7534 14.0572 37.7548L9.30417 42.5075L5.49228 38.6956L10.2456 33.9423C10.2469 33.9411 10.2482 33.9399 10.2493 33.9386L14.1167 30.0712C14.1183 30.0697 14.1199 30.0682 14.1214 30.0666L17.2428 26.9453C18.0393 28.6114 19.3891 29.9612 21.0545 30.7574L17.9333 33.8785C17.9318 33.88 17.9304 33.8815 17.9289 33.8829L14.0612 37.7507ZM26.739 22.3973C26.8466 22.0744 26.7626 21.7185 26.5219 21.4779C26.2812 21.2373 25.9255 21.1535 25.6026 21.2609L18.2553 23.7097C18.2521 23.6269 18.2499 23.544 18.2499 23.4609C18.2499 19.9931 21.0712 17.1718 24.539 17.1718C28.0068 17.1718 30.8281 19.9931 30.8281 23.4609C30.8281 26.9287 28.0068 29.7499 24.539 29.7499C24.4559 29.7499 24.373 29.7478 24.2902 29.7446L26.739 22.3973ZM22.5606 29.2511L22.4269 29.3848C20.6525 28.7531 19.2467 27.3473 18.615 25.5729L18.7487 25.4392L24.4662 23.5336L22.5606 29.2511ZM45.2031 25.4546L41.9564 26.2664C41.6228 26.3499 41.3661 26.6164 41.2952 26.9527C40.8505 29.0631 40.0266 31.0336 38.8466 32.8095C38.6548 33.0982 38.6462 33.4716 38.8245 33.7689L40.5606 36.6624L37.7405 39.4825L34.8049 37.7212C34.5108 37.5448 34.142 37.551 33.8541 37.7377C32.0723 38.8924 30.1234 39.6917 28.0613 40.1136C27.7225 40.1829 27.4536 40.4405 27.3698 40.7759L26.5327 44.1249H22.5451L21.699 40.7417C21.6158 40.4087 21.3502 40.1523 21.0145 40.0809C19.2874 39.7133 17.65 39.0884 16.1323 38.2204L18.7329 35.6198C20.5369 36.4826 22.5297 36.9374 24.5389 36.9374C31.9699 36.9374 38.0154 30.8918 38.0154 23.4609C38.0154 20.669 37.1656 17.9886 35.5578 15.7094C33.9867 13.4821 31.8144 11.7994 29.2757 10.8434C28.8113 10.6683 28.2931 10.9031 28.1183 11.3675C27.9434 11.8319 28.1781 12.3502 28.6424 12.525C33.1739 14.2316 36.2183 18.6264 36.2183 23.4609C36.2183 29.9011 30.9788 35.1405 24.5387 35.1405C23.0121 35.1405 21.4968 34.8373 20.0932 34.2593L22.9604 31.3921C23.4769 31.4948 24.0057 31.5467 24.5386 31.5467C28.9972 31.5467 32.6246 27.9194 32.6246 23.4609C32.6246 19.0024 28.9974 15.375 24.5388 15.375C20.0802 15.375 16.453 19.0024 16.453 23.4609C16.453 23.994 16.5049 24.5228 16.6076 25.0391L13.7404 27.9063C13.1623 26.5028 12.8592 24.9874 12.8592 23.4608C12.8592 18.6262 15.9037 14.2315 20.4351 12.5249C20.8994 12.3501 21.1341 11.8318 20.9593 11.3674C20.7844 10.9031 20.2663 10.6683 19.8018 10.8433C17.2632 11.7994 15.0908 13.482 13.5197 15.7093C11.912 17.9885 11.0621 20.6689 11.0621 23.4608C11.0621 25.47 11.5169 27.4628 12.3796 29.2668L9.77891 31.8675C8.91138 30.3511 8.28651 28.7136 7.9186 26.9851C7.84718 26.6494 7.59076 26.3839 7.2578 26.3006L3.87464 25.4546V21.467L7.22357 20.6299C7.55914 20.546 7.81681 20.277 7.88599 19.9381C8.307 17.8773 9.10652 15.9284 10.2625 14.1459C10.4492 13.8579 10.4556 13.4888 10.2791 13.1946L8.51741 10.2592L11.3372 7.43929L14.2298 9.17516C14.5271 9.35359 14.9004 9.34506 15.1891 9.15324C16.9661 7.97305 18.937 7.14918 21.0469 6.70455C21.3834 6.63366 21.6498 6.37697 21.7333 6.04338L22.5452 2.79688H26.5329L27.3358 6.00924C27.4198 6.34526 27.6895 6.60311 28.0291 6.67193C30.1496 7.10148 32.1436 7.92418 33.9559 9.11685C34.2442 9.30651 34.6159 9.31433 34.9121 9.1368L37.7408 7.43929L40.5607 10.2593L38.8633 13.088C38.6856 13.3842 38.6934 13.7558 38.8833 14.0443C40.0759 15.8565 40.8986 17.8505 41.3281 19.9711C41.3968 20.3106 41.6547 20.5803 41.9908 20.6643L45.2031 21.4672V25.4546Z" fill="#2E2D29"/>
</svg>
