<svg width="36" height="36" viewBox="0 0 36 36" fill="none" xmlns="http://www.w3.org/2000/svg">
<path d="M25.0683 8.87045V8.77045V4.44261C25.0683 3.70094 24.4674 3.1 23.7257 3.1H12.0565C11.3148 3.1 10.7139 3.70094 10.7139 4.44261V8.77045V8.87045H10.6139H1.95843C1.21676 8.87045 0.615819 9.47139 0.615819 10.2131L0.615625 32.5574C0.615625 32.9134 0.75701 33.2548 1.00871 33.5069C1.00873 33.5069 1.00876 33.5069 1.00878 33.5069M25.0683 8.87045L33.824 8.77045C34.6209 8.77045 35.2666 9.41616 35.2666 10.2131V32.5574C35.2666 33.3543 34.6209 34 33.824 34H1.95824C1.57566 34 1.20866 33.848 0.938022 33.5776L1.00878 33.5069M25.0683 8.87045H25.1683H33.824C34.5657 8.87045 35.1666 9.47139 35.1666 10.2131V32.5574C35.1666 33.2991 34.5657 33.9 33.824 33.9H1.95824C1.60221 33.9 1.26066 33.7586 1.00878 33.5069M25.0683 8.87045L1.00878 33.5069M3.30085 31.1148V31.2148H3.40085H32.3814H32.4814V31.1148V28.2295V28.1295H32.3814H3.40085H3.30085V28.2295V31.1148ZM13.4991 5.78523H13.3991V5.88523V8.77045V8.87045H13.4991H22.2831H22.3831V8.77045V5.88523V5.78523H22.2831H13.4991ZM32.4814 11.6557V11.5557H32.3814H3.40104H3.30104L3.30104 11.6557L3.30085 25.3443L3.30085 25.4443H3.40085H32.3814H32.4814V25.3443V11.6557Z" fill="#8C1515" stroke="white" stroke-width="0.2"/>
</svg>
