<svg width="26" height="26" viewBox="0 0 26 26" fill="none" xmlns="http://www.w3.org/2000/svg">
<path d="M21.7773 25.3261H7.3329C6.85418 25.3256 6.39521 25.1353 6.05671 24.7968C5.7182 24.4583 5.52782 23.9993 5.52734 23.5206V1.8539C5.52782 1.37518 5.7182 0.916207 6.05671 0.577703C6.39521 0.239199 6.85418 0.0488178 7.3329 0.0483398H21.7773C22.2561 0.0488178 22.715 0.239199 23.0535 0.577703C23.392 0.916207 23.5824 1.37518 23.5829 1.8539V16.8563L19.069 14.5993L14.5551 16.8563V1.8539H7.3329V23.5206H21.7773V19.9095H23.5829V23.5206C23.5822 23.9992 23.3917 24.458 23.0533 24.7965C22.7148 25.1349 22.256 25.3254 21.7773 25.3261ZM19.069 12.5807L21.7773 13.9349V1.8539H16.3607V13.9349L19.069 12.5807Z" fill="#2E2D29"/>
</svg>
