<svg width="24" height="24" viewBox="0 0 24 24" fill="none" xmlns="http://www.w3.org/2000/svg">
<g clip-path="url(#clip0_940_79)">
<path d="M5.20898 8.90722C5.20898 12.7847 8.36348 15.9392 12.241 15.9392C16.1184 15.9392 19.2729 12.7847 19.2729 8.90722C19.2729 5.02974 16.1184 1.87524 12.241 1.87524C8.36348 1.87524 5.20898 5.02974 5.20898 8.90722ZM12.241 2.81284C15.6015 2.81284 18.3353 5.5467 18.3353 8.90722C18.3353 12.2677 15.6015 15.0016 12.241 15.0016C8.88044 15.0016 6.14658 12.2677 6.14658 8.90722C6.14658 5.5467 8.88044 2.81284 12.241 2.81284Z" fill="#2E2D29"/>
<path d="M7.90152 8.07362L9.71867 9.86403L9.30059 12.3803C9.27148 12.5556 9.34381 12.7321 9.48756 12.8365C9.63113 12.9409 9.8214 12.955 9.97907 12.8733L12.243 11.6976L14.5068 12.8733C14.6632 12.9544 14.8535 12.9418 14.9983 12.8365C15.1421 12.7321 15.2144 12.5556 15.1853 12.3803L14.7672 9.86403L16.5844 8.07362C16.7109 7.9491 16.7561 7.76378 16.7012 7.59475C16.6463 7.42591 16.5007 7.30267 16.3251 7.27612L13.8033 6.8965L12.6622 4.61459C12.5829 4.45582 12.4205 4.35547 12.243 4.35547C12.0654 4.35547 11.9032 4.45582 11.8237 4.61459L10.6826 6.8965L8.16083 7.27612C7.98521 7.30249 7.83963 7.42591 7.78469 7.59475C7.72975 7.76378 7.77517 7.9491 7.90152 8.07362ZM11.063 7.7874C11.2139 7.76469 11.3443 7.67002 11.4126 7.53359L12.243 5.87247L13.0735 7.53359C13.1418 7.67002 13.2722 7.76469 13.4231 7.7874L15.2585 8.06373L13.9358 9.36666C13.8272 9.47379 13.7774 9.62706 13.8023 9.77759L14.1067 11.609L12.4589 10.7535C12.3914 10.7183 12.3172 10.7007 12.243 10.7007C12.1689 10.7007 12.0947 10.7183 12.0269 10.7535L10.3792 11.609L10.6835 9.77759C10.7086 9.62706 10.6588 9.47379 10.5501 9.36666L9.22753 8.06373L11.063 7.7874Z" fill="#2E2D29"/>
<path d="M12.711 0.468798C12.711 0.727736 12.5012 0.937596 12.2422 0.937596C11.9833 0.937596 11.7734 0.727736 11.7734 0.468798C11.7734 0.20986 11.9833 0 12.2422 0C12.5012 0 12.711 0.20986 12.711 0.468798Z" fill="#2E2D29"/>
<path d="M10.0318 0.274467C6.08817 1.2811 3.33398 4.83023 3.33398 8.9053C3.33398 11.4363 4.39812 13.8211 6.26617 15.51L3.44184 20.4875C3.35101 20.6478 3.36237 20.8463 3.47078 20.995C3.57919 21.1439 3.76451 21.2155 3.94489 21.1779L7.15231 20.5119L8.27962 23.6886C8.34079 23.8614 8.49736 23.9825 8.68011 23.9988C8.86287 24.0151 9.03812 23.923 9.12877 23.7635L12.2411 18.2917L15.3533 23.7635C15.4372 23.9109 15.5932 24.0004 15.7606 24.0004C15.7743 24.0004 15.7883 23.9999 15.802 23.9988C15.9848 23.9825 16.1413 23.8612 16.2027 23.6886L17.3298 20.5119L20.5372 21.1779C20.7174 21.2153 20.9029 21.1437 21.0113 20.995C21.1199 20.8463 21.1311 20.6478 21.0403 20.4875L18.2159 15.51C20.084 13.8211 21.1481 11.4363 21.1481 8.9053C21.1481 4.83023 18.3939 1.2811 14.4505 0.274467C14.1995 0.210373 13.9444 0.361817 13.8803 0.612697C13.8162 0.863577 13.9676 1.11885 14.2185 1.18295C17.7466 2.08355 20.2107 5.25911 20.2107 8.9053C20.2107 13.3429 16.6066 16.8749 12.2411 16.8749C7.87254 16.8749 4.27158 13.34 4.27158 8.9053C4.27158 5.25911 6.73552 2.08355 10.2636 1.18295C10.5145 1.11885 10.6659 0.863577 10.602 0.612697C10.5379 0.361817 10.2828 0.210373 10.0318 0.274467ZM8.82057 22.4092L7.89927 19.8131C7.8209 19.5922 7.59162 19.4631 7.36217 19.5108L4.76858 20.0493L7.0038 16.11C8.30709 17.0574 9.85028 17.6346 11.455 17.7775L8.82057 22.4092ZM17.1199 19.5108C16.8907 19.4631 16.6612 19.5922 16.5828 19.8131L15.6617 22.4092L13.0271 17.7775C14.632 17.6346 16.175 17.0574 17.4785 16.11L19.7137 20.0493L17.1199 19.5108Z" fill="#2E2D29"/>
</g>
<defs>
<clipPath id="clip0_940_79">
<rect width="24" height="24" fill="white"/>
</clipPath>
</defs>
</svg>
