<svg width="36" height="36" viewBox="0 0 36 36" fill="none" xmlns="http://www.w3.org/2000/svg">
<path d="M32.3369 1.16227L2.12951 14.5168C1.40614 14.8368 0.957298 15.572 1.00322 16.3616C1.04914 17.1511 1.58044 17.8291 2.33591 18.0626L14.2531 21.7471L17.9376 33.6639C18.1711 34.4193 18.8491 34.9506 19.6386 34.9965C19.6757 34.999 19.7127 35 19.7497 35C20.4963 35 21.1782 34.56 21.4833 33.8702L34.8379 3.66273C35.1549 2.94627 34.9983 2.10933 34.4443 1.55531C33.8908 1.0013 33.0529 0.845269 32.3369 1.16227ZM20.0638 27.7025L17.5806 19.6708C17.3954 19.0729 16.9273 18.6048 16.3289 18.4196L8.2972 15.9364L29.3876 6.61204L20.0638 27.7025Z" fill="#2E2D29"/>
</svg>
