<svg width="36" height="36" viewBox="0 0 36 36" fill="none" xmlns="http://www.w3.org/2000/svg">
<path d="M29.807 13.7184H15.0131C14.6958 13.7184 14.4469 13.9871 14.4469 14.3081C14.4469 14.6291 14.6958 14.8979 15.0131 14.8979H29.807C30.1242 14.8979 30.3732 14.6291 30.3732 14.3081C30.3732 13.9871 30.1242 13.7184 29.807 13.7184Z" fill="#2E2D29" stroke="#2E2D29" stroke-width="0.2"/>
<path d="M29.807 17.4605H15.0131C14.6958 17.4605 14.4469 17.7293 14.4469 18.0503C14.4469 18.3713 14.6958 18.6401 15.0131 18.6401H29.807C30.1242 18.6401 30.3732 18.3713 30.3732 18.0503C30.3732 17.7293 30.1242 17.4605 29.807 17.4605Z" fill="#2E2D29" stroke="#2E2D29" stroke-width="0.2"/>
<path d="M29.807 21.2022H15.0131C14.6958 21.2022 14.4469 21.471 14.4469 21.792C14.4469 22.113 14.6958 22.3818 15.0131 22.3818H29.807C30.1242 22.3818 30.3732 22.113 30.3732 21.792C30.3732 21.471 30.1242 21.2022 29.807 21.2022Z" fill="#2E2D29" stroke="#2E2D29" stroke-width="0.2"/>
<path d="M31.2873 9.43564H13.5318L31.2376 32.7431L31.2719 32.837C31.2719 32.837 31.2719 32.837 31.2719 32.837C31.6448 32.701 31.8827 32.3461 31.8827 31.9385V26.9843C33.1489 26.695 34.0989 25.5056 34.0989 24.105V12.3825C34.0989 10.7621 32.8423 9.43564 31.2873 9.43564ZM32.9665 24.105C32.9665 25.0714 32.2182 25.86 31.3091 25.8722C30.9949 25.8764 30.7502 26.1436 30.7502 26.4616V31.2728L27.1276 26.4575C26.849 26.0871 26.4295 25.8729 25.9768 25.8729H13.5318C12.6106 25.8729 11.8527 25.0843 11.8527 24.1049V12.3825C11.8527 11.4031 12.6105 10.6145 13.5318 10.6145H31.2873C32.2086 10.6145 32.9665 11.4031 32.9665 12.3825V24.105Z" fill="#2E2D29" stroke="#2E2D29" stroke-width="0.2"/>
<path d="M5.13545 22.0735V18.1065C5.13545 17.7884 4.89081 17.5213 4.57658 17.517H4.57656C3.82571 17.507 3.20622 16.8553 3.20622 16.0549V5.85028C3.20622 5.03918 3.83369 4.38754 4.59462 4.38754H20.0513C20.8122 4.38754 21.4397 5.03918 21.4397 5.85028V7.73848C21.4397 8.05938 21.6887 8.32795 22.0059 8.32795C22.3231 8.32795 22.5721 8.05938 22.5721 7.73848V5.85028C22.5721 4.39823 21.4459 3.20859 20.0513 3.20859H4.59462C3.20005 3.20859 2.07383 4.39823 2.07383 5.85028V16.0549C2.07383 17.289 2.89647 18.3403 4.00312 18.6221V22.8743C4.00312 23.2615 4.22924 23.5992 4.58392 23.7285C4.67959 23.7634 4.77758 23.7805 4.87446 23.7805C5.13574 23.7805 5.38332 23.6562 5.55103 23.4333L5.47112 23.3732L5.55103 23.4333L9.0496 18.7829L9.04963 18.7828C9.0848 18.736 9.13398 18.7069 9.18788 18.6988C9.50112 18.6522 9.71124 18.3506 9.66825 18.0331M9.66825 18.0331C9.66825 18.0331 9.66825 18.0331 9.66825 18.0331L9.56915 18.0465L9.66825 18.0331Z" fill="#2E2D29" stroke="#2E2D29" stroke-width="0.2"/>
</svg>
