<svg width="24" height="24" viewBox="0 0 24 24" fill="none" xmlns="http://www.w3.org/2000/svg">
<path d="M19.8707 9.11289H10.0081C9.7766 9.11289 9.59727 9.30856 9.59727 9.5394C9.59727 9.77025 9.7766 9.96592 10.0081 9.96592H19.8707C20.1021 9.96592 20.2815 9.77025 20.2815 9.5394C20.2815 9.30856 20.1021 9.11289 19.8707 9.11289Z" fill="#8C1515" stroke="#8C1515" stroke-width="0.2"/>
<path d="M19.8707 11.607H10.0081C9.7766 11.607 9.59727 11.8027 9.59727 12.0335C9.59727 12.2644 9.7766 12.4601 10.0081 12.4601H19.8707C20.1021 12.4601 20.2815 12.2644 20.2815 12.0335C20.2815 11.8027 20.1021 11.607 19.8707 11.607Z" fill="#8C1515" stroke="#8C1515" stroke-width="0.2"/>
<path d="M19.8707 14.1017H10.0081C9.7766 14.1017 9.59727 14.2973 9.59727 14.5282C9.59727 14.759 9.7766 14.9547 10.0081 14.9547H19.8707C20.1021 14.9547 20.2815 14.759 20.2815 14.5282C20.2815 14.2973 20.1021 14.1017 19.8707 14.1017Z" fill="#8C1515" stroke="#8C1515" stroke-width="0.2"/>
<path d="M20.8717 17.2151H20.8716C20.6424 17.2182 20.4662 17.4126 20.4662 17.6414V20.7491L18.1111 17.6186C18.1111 17.6186 18.1111 17.6186 18.1111 17.6186C17.9193 17.3636 17.6299 17.2156 17.3172 17.2156H9.02056C8.42633 17.2156 7.93448 16.7063 7.93448 16.0703V8.25532C7.93448 7.61924 8.42629 7.11001 9.02056 7.11001H20.8576C21.4518 7.11001 21.9437 7.61925 21.9437 8.25532V16.0703C21.9437 16.6979 21.458 17.2073 20.8717 17.2151ZM20.8576 6.25742H9.02056C7.96406 6.25742 7.11289 7.15822 7.11289 8.25537V16.0703C7.11289 17.1674 7.96401 18.0682 9.02056 18.0682H17.3172C17.3734 18.0682 17.4266 18.0945 17.4635 18.1434C17.4635 18.1434 17.4635 18.1434 17.4635 18.1434L20.1427 21.7047C20.2664 21.8692 20.4496 21.9615 20.6436 21.9615C20.7154 21.9615 20.788 21.9488 20.8587 21.923C21.1212 21.8273 21.2878 21.5775 21.2878 21.2927V18.0162C22.1347 17.8096 22.7653 17.0093 22.7653 16.0703V8.25532C22.7653 7.15822 21.9141 6.25742 20.8576 6.25742Z" fill="#8C1515" stroke="#8C1515" stroke-width="0.2"/>
<path d="M6.11543 12.4003L6.13023 12.4992C6.1302 12.4992 6.13018 12.4992 6.13016 12.4992C6.10316 12.5032 6.07808 12.5178 6.05973 12.5422L6.05971 12.5423L3.72733 15.6426L3.64742 15.5824L3.72732 15.6426C3.60948 15.7992 3.43473 15.8873 3.24964 15.8873C3.1811 15.8873 3.11192 15.8752 3.04453 15.8506C2.79415 15.7594 2.63542 15.5212 2.63542 15.2499V12.4408C1.89504 12.2396 1.34922 11.5316 1.34922 10.7036V3.90051C1.34922 2.91562 2.11344 2.10605 3.06308 2.10605H13.3675C14.3172 2.10605 15.0814 2.91562 15.0814 3.90051V5.15931C15.0814 5.3901 14.902 5.58563 14.6706 5.58563C14.4392 5.58563 14.2598 5.3901 14.2598 5.15931V3.90051C14.2598 3.37664 13.8549 2.95869 13.3675 2.95869H3.06308C2.57572 2.95869 2.17081 3.37664 2.17081 3.90051V10.7036C2.17081 11.2205 2.57063 11.6386 3.05149 11.645H3.0515C3.2807 11.6481 3.45697 11.8426 3.45697 12.0713V14.6163L6.02803 11.7541L6.01324 11.6552C6.01326 11.6552 6.01327 11.6552 6.01329 11.6552C6.24312 11.6209 6.44756 11.7888 6.47853 12.0179C6.47853 12.0179 6.47853 12.0179 6.47853 12.0179L6.37944 12.0313C6.40359 12.2098 6.28537 12.375 6.11543 12.4003ZM6.11543 12.4003C6.06164 12.4083 6.01344 12.4374 5.97979 12.4822L6.11543 12.4003Z" fill="#8C1515" stroke="#8C1515" stroke-width="0.2"/>
</svg>
