<svg width="36" height="36" viewBox="0 0 36 36" fill="none" xmlns="http://www.w3.org/2000/svg">
<path d="M5.2876 2.18021L5.2876 2.18021C5.92366 1.46043 7.0199 1.39535 7.73574 2.03521C7.73579 2.03526 7.73584 2.0353 7.73589 2.03535L9.85094 3.91727L12.7634 1.29744L5.2876 2.18021ZM5.2876 2.18021C5.00303 2.50225 4.8472 2.91877 4.85004 3.34932M5.2876 2.18021L4.85004 3.34932M4.85004 3.34932V32.9101M4.85004 3.34932L7.73966 34.2243C7.41928 34.5106 7.0047 34.6678 6.5758 34.6653C5.61636 34.6596 4.84461 33.873 4.85004 32.9101M4.85004 32.9101V32.9105H5.00004L4.85004 32.9096C4.85004 32.9098 4.85004 32.9099 4.85004 32.9101ZM28.2638 34.2237L26.1487 32.3418L23.2363 34.9616C22.574 35.5581 21.5713 35.5581 20.9091 34.9616M28.2638 34.2237L15.0913 34.9619L18 32.3448L20.9091 34.9616M28.2638 34.2237C28.9795 34.8639 30.0759 34.7991 30.7121 34.0794C30.9969 33.7573 31.1527 33.3405 31.1499 32.9097M28.2638 34.2237L31.1499 32.9097M20.9091 34.9616L21.0095 34.8501L20.9092 34.9617L20.9091 34.9616ZM31.1499 32.9097V3.34975M31.1499 32.9097L23.2354 1.29746L26.147 3.91722L28.2593 2.03592C28.2594 2.03581 28.2596 2.03569 28.2597 2.03557C28.7703 1.5733 29.5057 1.46067 30.1302 1.74953C30.7576 2.03066 31.1581 2.6599 31.1499 3.34975M31.1499 3.34975C31.1499 3.35007 31.1499 3.35038 31.1499 3.35069L30.9999 3.34881H31.1499V3.34975ZM20.9086 1.29746C21.5706 0.700872 22.5733 0.700847 23.2353 1.29738L20.9086 1.29746ZM20.9086 1.29746L17.9999 3.91421L15.0906 1.29744L20.9086 1.29746ZM27.3015 30.8268L27.3015 30.8269L29.2625 32.5749L29.2548 23.6701V23.6699V3.68388L27.2973 5.43208C26.6372 6.02229 25.6415 6.01957 24.9847 5.42575L22.0726 2.80667L19.1636 5.42344L27.3015 30.8268ZM27.3015 30.8268C26.6393 30.2368 25.6423 30.2394 24.9832 30.833M27.3015 30.8268L24.9832 30.833M6.74512 32.5746L8.70265 30.8269C9.36264 30.2368 10.3583 30.2395 11.0151 30.8332L11.0149 30.833L10.9146 30.9445L11.0152 30.8333L13.9273 33.4524L16.8363 30.8356L6.74512 32.5746ZM6.74512 32.5746V28.6334V28.6334L6.73725 3.68396L8.69844 5.43215L8.69846 5.43217C9.36065 6.02222 10.3577 6.01959 11.0167 5.42594L13.9278 2.80669L16.8365 5.42344L6.74512 32.5746ZM24.9832 30.833C24.9832 30.833 24.9832 30.8331 24.9832 30.8331M24.9832 30.833L24.9832 30.8331M24.9832 30.8331L22.0721 33.4523L19.1634 30.8356L24.9832 30.8331ZM7.73988 34.2241L9.85288 32.3421L12.7645 34.9619L7.73988 34.2241ZM15.0905 1.29736C14.4283 0.700877 13.4257 0.700878 12.7635 1.29737L15.0905 1.29736ZM12.7646 34.962C13.4266 35.5585 14.4292 35.5585 15.0912 34.962H12.7646ZM19.1633 30.8355C18.5012 30.239 17.4986 30.239 16.8364 30.8355L19.1633 30.8355ZM16.8366 5.42351C17.4987 6.02001 18.5013 6.02002 19.1635 5.42352L16.8366 5.42351Z" fill="#2E2D29" stroke="#2E2D29" stroke-width="0.3"/>
<path d="M25.5604 17.1767H10.4401C9.91597 17.1767 9.49258 17.6038 9.49258 18.1289C9.49258 18.654 9.91597 19.0811 10.4401 19.0811H25.5604C26.0845 19.0811 26.5079 18.654 26.5079 18.1289C26.5079 17.6038 26.0844 17.1767 25.5604 17.1767Z" fill="#2E2D29" stroke="#2E2D29" stroke-width="0.3"/>
<path d="M18.3825 12.3634H10.4401C9.91597 12.3634 9.49258 12.7906 9.49258 13.3156C9.49258 13.8407 9.91597 14.2679 10.4401 14.2679H18.3825C18.9067 14.2679 19.3301 13.8407 19.3301 13.3156C19.3301 12.7906 18.9066 12.3634 18.3825 12.3634Z" fill="#2E2D29" stroke="#2E2D29" stroke-width="0.3"/>
<path d="M25.5604 21.9899H10.4401C9.91597 21.9899 9.49258 22.417 9.49258 22.9421C9.49258 23.4672 9.91597 23.8943 10.4401 23.8943H25.5604C26.0845 23.8943 26.5079 23.4672 26.5079 22.9421C26.5079 22.417 26.0844 21.9899 25.5604 21.9899Z" fill="#2E2D29" stroke="#2E2D29" stroke-width="0.3"/>
</svg>
