<svg width="24" height="24" viewBox="0 0 24 24" fill="none" xmlns="http://www.w3.org/2000/svg">
<g clip-path="url(#clip0_959_227)">
<path d="M12 19.1H12.0001C15.9195 19.0958 19.0958 15.9195 19.1 12.0001V12C19.1 8.07874 15.9212 4.9 12 4.9C8.07874 4.9 4.9 8.07879 4.9 12C4.9 15.9212 8.07874 19.1 12 19.1ZM12 17.9C8.74153 17.9 6.09998 15.2584 6.09998 12C6.09998 8.74156 8.74147 6.10004 11.9999 6.09998C15.257 6.10349 17.8965 8.743 17.9 12.0001C17.8999 15.2585 15.2584 17.9 12 17.9Z" fill="#2E2D29" stroke="#2E2D29" stroke-width="0.2"/>
<mask id="path-2-outside-1_959_227" maskUnits="userSpaceOnUse" x="-1" y="-1" width="26" height="26" fill="black">
<rect fill="white" x="-1" y="-1" width="26" height="26"/>
<path d="M23 9.50001H21.1595C20.9491 8.72822 20.6411 7.98642 20.243 7.29253L21.546 5.98955C21.5461 5.98945 21.5462 5.98936 21.5463 5.98926C21.9367 5.59866 21.9366 4.96551 21.546 4.57505L19.4245 2.45405C19.034 2.06367 18.401 2.06367 18.0105 2.45405L16.7075 3.75703C16.0135 3.3592 15.2717 3.05123 14.5 2.84053V0.999984C14.5 0.447703 14.0523 0 13.5 0H10.5C9.94772 0 9.50001 0.447703 9.50001 0.999984V2.84048C8.72831 3.05119 7.98651 3.35916 7.29253 3.75698L5.98955 2.454C5.59903 2.06362 4.96603 2.06362 4.57556 2.454L2.454 4.575C2.45391 4.57509 2.45381 4.57519 2.45372 4.57528C2.0633 4.96589 2.06339 5.59903 2.454 5.9895L3.75698 7.29248C3.35887 7.98637 3.05091 8.72817 2.84048 9.49997H0.999984C0.447703 9.50001 0 9.94772 0 10.5V13.5C0 14.0523 0.447703 14.5 0.999984 14.5H2.84048C3.05091 15.2718 3.35887 16.0136 3.75698 16.7075L2.454 18.0105C2.45391 18.0105 2.45381 18.0106 2.45372 18.0107C2.0633 18.4013 2.06339 19.0345 2.454 19.4249L4.57551 21.5459C4.96603 21.9363 5.59903 21.9363 5.9895 21.5459L7.29248 20.243C7.98651 20.6408 8.72826 20.9488 9.49997 21.1595V23C9.49997 23.5522 9.94767 23.9999 10.5 23.9999H13.5C14.0522 23.9999 14.4999 23.5522 14.4999 23V21.1595C15.2716 20.9488 16.0134 20.6408 16.7074 20.243L18.0104 21.5459C18.4009 21.9363 19.0339 21.9363 19.4244 21.5459L21.5459 19.4249C21.546 19.4249 21.5461 19.4248 21.5462 19.4247C21.9367 19.0341 21.9365 18.4009 21.5459 18.0105L20.2429 16.7075C20.641 16.0136 20.949 15.2718 21.1594 14.5H22.9999C23.5522 14.5 23.9999 14.0523 23.9999 13.5V10.5C24 9.94772 23.5523 9.50001 23 9.50001ZM23 13.5H20.7695C20.536 13.4998 20.3333 13.6612 20.2815 13.889C20.0697 14.821 19.7006 15.7101 19.19 16.518C19.0657 16.7157 19.0948 16.973 19.26 17.138L20.839 18.718L18.7175 20.839L17.138 19.26C16.9731 19.095 16.716 19.066 16.5185 19.1901C15.7104 19.7004 14.8214 20.0695 13.8895 20.2815C13.6617 20.3332 13.5 20.5355 13.5 20.769V23.0001H10.5V20.769C10.5 20.5355 10.3382 20.3332 10.1105 20.2815C9.17859 20.0695 8.28956 19.7004 7.48153 19.1901C7.40184 19.14 7.30964 19.1135 7.21551 19.1136C7.08291 19.1136 6.95578 19.1663 6.86203 19.26L5.28253 20.839L3.16102 18.7175L4.74 17.138C4.90523 16.9731 4.9343 16.7157 4.80998 16.518C4.29937 15.7101 3.93023 14.821 3.7185 13.889C3.66666 13.6613 3.46406 13.4998 3.23048 13.5H0.999984V10.5H3.23048C3.46402 10.5002 3.66666 10.3387 3.7185 10.111C3.93028 9.17897 4.29937 8.28989 4.80998 7.482C4.9343 7.28433 4.90523 7.02698 4.74 6.86198L3.16102 5.28197L5.28253 3.16097L6.86203 4.73995C7.02694 4.90495 7.284 4.93397 7.48153 4.80994C8.28951 4.29956 9.17859 3.93061 10.1105 3.71892C10.3384 3.66726 10.5002 3.46462 10.5 3.23091V0.999984H13.5V3.231C13.4998 3.46472 13.6616 3.66736 13.8895 3.71901C14.8215 3.93066 15.7105 4.29961 16.5185 4.81003C16.716 4.93406 16.9731 4.905 17.138 4.74005L18.7175 3.16106L20.839 5.28258L19.26 6.86208C19.0948 7.02703 19.0657 7.28442 19.19 7.48209C19.7006 8.29003 20.0698 9.17911 20.2815 10.1111C20.3333 10.3388 20.5359 10.5003 20.7695 10.5001H23V13.5Z"/>
</mask>
<path d="M23 9.50001H21.1595C20.9491 8.72822 20.6411 7.98642 20.243 7.29253L21.546 5.98955C21.5461 5.98945 21.5462 5.98936 21.5463 5.98926C21.9367 5.59866 21.9366 4.96551 21.546 4.57505L19.4245 2.45405C19.034 2.06367 18.401 2.06367 18.0105 2.45405L16.7075 3.75703C16.0135 3.3592 15.2717 3.05123 14.5 2.84053V0.999984C14.5 0.447703 14.0523 0 13.5 0H10.5C9.94772 0 9.50001 0.447703 9.50001 0.999984V2.84048C8.72831 3.05119 7.98651 3.35916 7.29253 3.75698L5.98955 2.454C5.59903 2.06362 4.96603 2.06362 4.57556 2.454L2.454 4.575C2.45391 4.57509 2.45381 4.57519 2.45372 4.57528C2.0633 4.96589 2.06339 5.59903 2.454 5.9895L3.75698 7.29248C3.35887 7.98637 3.05091 8.72817 2.84048 9.49997H0.999984C0.447703 9.50001 0 9.94772 0 10.5V13.5C0 14.0523 0.447703 14.5 0.999984 14.5H2.84048C3.05091 15.2718 3.35887 16.0136 3.75698 16.7075L2.454 18.0105C2.45391 18.0105 2.45381 18.0106 2.45372 18.0107C2.0633 18.4013 2.06339 19.0345 2.454 19.4249L4.57551 21.5459C4.96603 21.9363 5.59903 21.9363 5.9895 21.5459L7.29248 20.243C7.98651 20.6408 8.72826 20.9488 9.49997 21.1595V23C9.49997 23.5522 9.94767 23.9999 10.5 23.9999H13.5C14.0522 23.9999 14.4999 23.5522 14.4999 23V21.1595C15.2716 20.9488 16.0134 20.6408 16.7074 20.243L18.0104 21.5459C18.4009 21.9363 19.0339 21.9363 19.4244 21.5459L21.5459 19.4249C21.546 19.4249 21.5461 19.4248 21.5462 19.4247C21.9367 19.0341 21.9365 18.4009 21.5459 18.0105L20.2429 16.7075C20.641 16.0136 20.949 15.2718 21.1594 14.5H22.9999C23.5522 14.5 23.9999 14.0523 23.9999 13.5V10.5C24 9.94772 23.5523 9.50001 23 9.50001ZM23 13.5H20.7695C20.536 13.4998 20.3333 13.6612 20.2815 13.889C20.0697 14.821 19.7006 15.7101 19.19 16.518C19.0657 16.7157 19.0948 16.973 19.26 17.138L20.839 18.718L18.7175 20.839L17.138 19.26C16.9731 19.095 16.716 19.066 16.5185 19.1901C15.7104 19.7004 14.8214 20.0695 13.8895 20.2815C13.6617 20.3332 13.5 20.5355 13.5 20.769V23.0001H10.5V20.769C10.5 20.5355 10.3382 20.3332 10.1105 20.2815C9.17859 20.0695 8.28956 19.7004 7.48153 19.1901C7.40184 19.14 7.30964 19.1135 7.21551 19.1136C7.08291 19.1136 6.95578 19.1663 6.86203 19.26L5.28253 20.839L3.16102 18.7175L4.74 17.138C4.90523 16.9731 4.9343 16.7157 4.80998 16.518C4.29937 15.7101 3.93023 14.821 3.7185 13.889C3.66666 13.6613 3.46406 13.4998 3.23048 13.5H0.999984V10.5H3.23048C3.46402 10.5002 3.66666 10.3387 3.7185 10.111C3.93028 9.17897 4.29937 8.28989 4.80998 7.482C4.9343 7.28433 4.90523 7.02698 4.74 6.86198L3.16102 5.28197L5.28253 3.16097L6.86203 4.73995C7.02694 4.90495 7.284 4.93397 7.48153 4.80994C8.28951 4.29956 9.17859 3.93061 10.1105 3.71892C10.3384 3.66726 10.5002 3.46462 10.5 3.23091V0.999984H13.5V3.231C13.4998 3.46472 13.6616 3.66736 13.8895 3.71901C14.8215 3.93066 15.7105 4.29961 16.5185 4.81003C16.716 4.93406 16.9731 4.905 17.138 4.74005L18.7175 3.16106L20.839 5.28258L19.26 6.86208C19.0948 7.02703 19.0657 7.28442 19.19 7.48209C19.7006 8.29003 20.0698 9.17911 20.2815 10.1111C20.3333 10.3388 20.5359 10.5003 20.7695 10.5001H23V13.5Z" fill="#2E2D29"/>
<path d="M23 9.50001H21.1595C20.9491 8.72822 20.6411 7.98642 20.243 7.29253L21.546 5.98955C21.5461 5.98945 21.5462 5.98936 21.5463 5.98926C21.9367 5.59866 21.9366 4.96551 21.546 4.57505L19.4245 2.45405C19.034 2.06367 18.401 2.06367 18.0105 2.45405L16.7075 3.75703C16.0135 3.3592 15.2717 3.05123 14.5 2.84053V0.999984C14.5 0.447703 14.0523 0 13.5 0H10.5C9.94772 0 9.50001 0.447703 9.50001 0.999984V2.84048C8.72831 3.05119 7.98651 3.35916 7.29253 3.75698L5.98955 2.454C5.59903 2.06362 4.96603 2.06362 4.57556 2.454L2.454 4.575C2.45391 4.57509 2.45381 4.57519 2.45372 4.57528C2.0633 4.96589 2.06339 5.59903 2.454 5.9895L3.75698 7.29248C3.35887 7.98637 3.05091 8.72817 2.84048 9.49997H0.999984C0.447703 9.50001 0 9.94772 0 10.5V13.5C0 14.0523 0.447703 14.5 0.999984 14.5H2.84048C3.05091 15.2718 3.35887 16.0136 3.75698 16.7075L2.454 18.0105C2.45391 18.0105 2.45381 18.0106 2.45372 18.0107C2.0633 18.4013 2.06339 19.0345 2.454 19.4249L4.57551 21.5459C4.96603 21.9363 5.59903 21.9363 5.9895 21.5459L7.29248 20.243C7.98651 20.6408 8.72826 20.9488 9.49997 21.1595V23C9.49997 23.5522 9.94767 23.9999 10.5 23.9999H13.5C14.0522 23.9999 14.4999 23.5522 14.4999 23V21.1595C15.2716 20.9488 16.0134 20.6408 16.7074 20.243L18.0104 21.5459C18.4009 21.9363 19.0339 21.9363 19.4244 21.5459L21.5459 19.4249C21.546 19.4249 21.5461 19.4248 21.5462 19.4247C21.9367 19.0341 21.9365 18.4009 21.5459 18.0105L20.2429 16.7075C20.641 16.0136 20.949 15.2718 21.1594 14.5H22.9999C23.5522 14.5 23.9999 14.0523 23.9999 13.5V10.5C24 9.94772 23.5523 9.50001 23 9.50001ZM23 13.5H20.7695C20.536 13.4998 20.3333 13.6612 20.2815 13.889C20.0697 14.821 19.7006 15.7101 19.19 16.518C19.0657 16.7157 19.0948 16.973 19.26 17.138L20.839 18.718L18.7175 20.839L17.138 19.26C16.9731 19.095 16.716 19.066 16.5185 19.1901C15.7104 19.7004 14.8214 20.0695 13.8895 20.2815C13.6617 20.3332 13.5 20.5355 13.5 20.769V23.0001H10.5V20.769C10.5 20.5355 10.3382 20.3332 10.1105 20.2815C9.17859 20.0695 8.28956 19.7004 7.48153 19.1901C7.40184 19.14 7.30964 19.1135 7.21551 19.1136C7.08291 19.1136 6.95578 19.1663 6.86203 19.26L5.28253 20.839L3.16102 18.7175L4.74 17.138C4.90523 16.9731 4.9343 16.7157 4.80998 16.518C4.29937 15.7101 3.93023 14.821 3.7185 13.889C3.66666 13.6613 3.46406 13.4998 3.23048 13.5H0.999984V10.5H3.23048C3.46402 10.5002 3.66666 10.3387 3.7185 10.111C3.93028 9.17897 4.29937 8.28989 4.80998 7.482C4.9343 7.28433 4.90523 7.02698 4.74 6.86198L3.16102 5.28197L5.28253 3.16097L6.86203 4.73995C7.02694 4.90495 7.284 4.93397 7.48153 4.80994C8.28951 4.29956 9.17859 3.93061 10.1105 3.71892C10.3384 3.66726 10.5002 3.46462 10.5 3.23091V0.999984H13.5V3.231C13.4998 3.46472 13.6616 3.66736 13.8895 3.71901C14.8215 3.93066 15.7105 4.29961 16.5185 4.81003C16.716 4.93406 16.9731 4.905 17.138 4.74005L18.7175 3.16106L20.839 5.28258L19.26 6.86208C19.0948 7.02703 19.0657 7.28442 19.19 7.48209C19.7006 8.29003 20.0698 9.17911 20.2815 10.1111C20.3333 10.3388 20.5359 10.5003 20.7695 10.5001H23V13.5Z" stroke="#2E2D29" stroke-width="0.4" mask="url(#path-2-outside-1_959_227)"/>
<path d="M14.6001 12.0003C14.6002 11.9072 14.5786 11.8154 14.5371 11.7321L14.537 11.732L14.5001 12.0002M14.6001 12.0003L14.5001 12.0002M14.6001 12.0003V12.0002H14.5001M14.6001 12.0003V18.5002V18.6002H14.5001H13.5001H13.4001V18.5002V12.1418M14.5001 12.0002V18.4002V18.5002H14.4001H13.6001H13.5001V18.4002V12.1182L13.4106 12.1629L13.4001 12.1418M13.4001 12.1418L12.0001 9.34181M13.4001 12.1418L12.0001 9.34181M12.0001 9.34181L10.6001 12.1418V18.5002V18.6002H10.5001H9.5H9.4V18.5002L9.4 12.0003L9.4 12.0002H9.5L12.0001 9.34181Z" fill="#2E2D29" stroke="#2E2D29" stroke-width="0.2"/>
<path d="M10.0011 10.9L9.9 10.8989V11V12V12.1H10C10.1252 12.1 10.2067 12.1235 10.2845 12.1705C10.3672 12.2204 10.4492 12.2984 10.5726 12.421C10.9253 12.8456 11.4468 13.0938 11.9989 13.1L12.0011 13.1C12.5532 13.0938 13.0747 12.8456 13.4274 12.421C13.5508 12.2984 13.6328 12.2204 13.7155 12.1705C13.7933 12.1235 13.8748 12.1 14 12.1H14.1V12V11V10.8989L13.9989 10.9C13.4468 10.9061 12.9253 11.1544 12.5726 11.579C12.4492 11.7015 12.3672 11.7796 12.2845 11.8295C12.2067 11.8764 12.1252 11.9 12 11.9C11.8748 11.9 11.7929 11.8764 11.7149 11.8294C11.6321 11.7796 11.5501 11.7015 11.4275 11.5791C11.0748 11.1545 10.5533 10.9061 10.0011 10.9Z" fill="#2E2D29" stroke="#2E2D29" stroke-width="0.2"/>
<path d="M12.6 12.5V12.4H12.5H11.5H11.4V12.5V18.5V18.6H11.5H12.5H12.6V18.5V12.5Z" fill="#2E2D29" stroke="#2E2D29" stroke-width="0.2"/>
<path d="M13.1 9V8.9H13H11H10.9V9V9.99998V10.1H11H13H13.1V9.99998V9Z" fill="#2E2D29" stroke="#2E2D29" stroke-width="0.2"/>
</g>
<defs>
<clipPath id="clip0_959_227">
<rect width="24" height="24" fill="white"/>
</clipPath>
</defs>
</svg>
