<svg width="24" height="24" viewBox="0 0 24 24" fill="none" xmlns="http://www.w3.org/2000/svg">
<path d="M7.548 9.3084H10.6927C10.964 9.3084 11.184 9.08842 11.184 8.81704C11.184 8.54566 10.964 8.32568 10.6927 8.32568H7.548C7.27662 8.32568 7.05664 8.54566 7.05664 8.81704C7.05664 9.08842 7.27667 9.3084 7.548 9.3084Z" fill="#8C1515"/>
<path d="M13.6408 11.5193H7.548C7.27662 11.5193 7.05664 11.7393 7.05664 12.0106C7.05664 12.282 7.27662 12.502 7.548 12.502H13.6408C13.9122 12.502 14.1321 12.282 14.1321 12.0106C14.1321 11.7393 13.9122 11.5193 13.6408 11.5193Z" fill="#8C1515"/>
<path d="M13.6408 14.7141H7.548C7.27662 14.7141 7.05664 14.9341 7.05664 15.2055C7.05664 15.4768 7.27662 15.6968 7.548 15.6968H13.6408C13.9122 15.6968 14.1321 15.4768 14.1321 15.2055C14.1321 14.9341 13.9122 14.7141 13.6408 14.7141Z" fill="#8C1515"/>
<path d="M20.6658 18.3988V2.92108C20.7069 1.93145 19.9379 1.09588 18.9483 1.05478C18.9066 1.05304 18.8649 1.05276 18.8232 1.05393H8.25901C7.17801 1.05393 6.17075 1.84009 6.17075 2.92108V3.75637H5.31091C4.18684 3.78106 3.27405 4.67236 3.22266 5.79549V21.2978C3.25463 21.5973 3.44104 21.8582 3.71401 21.9857C3.99658 22.1105 4.32655 22.0523 4.54931 21.8383L6.04792 20.487L7.84138 22.0839C7.97517 22.208 8.15029 22.278 8.33274 22.2805C8.5143 22.2737 8.68796 22.2042 8.8241 22.0839L10.593 20.487L12.3618 22.0839C12.6416 22.3342 13.0647 22.3342 13.3445 22.0839L15.138 20.487L16.6121 21.8383C16.7905 22.0579 17.0999 22.1198 17.3491 21.9857C17.5932 21.8455 17.7362 21.5786 17.7176 21.2978V17.8091L18.0124 17.588L19.511 18.9393C19.6496 19.0714 19.8355 19.1423 20.0269 19.1358C20.1119 19.1435 20.1972 19.1264 20.2726 19.0867C20.5309 18.9581 20.6861 18.6865 20.6658 18.3988ZM16.7349 20.7573L15.5802 19.6272C15.32 19.3612 14.8955 19.3503 14.6221 19.6026L12.8286 21.1995L11.0843 19.6026C10.797 19.3727 10.3888 19.3727 10.1016 19.6026L8.33269 21.1995L6.53923 19.6026C6.22939 19.3487 5.78054 19.3591 5.48283 19.6272L4.20532 20.7573V5.79554C4.25446 5.21488 4.72856 4.76185 5.31086 4.73913H15.875C16.4155 4.73913 16.7349 5.25504 16.7349 5.79554V20.7573ZM19.683 2.92108V17.8583L18.4547 16.7282C18.2581 16.5316 18.209 16.4825 17.7177 16.5562V5.79554C17.7177 4.71454 16.9561 3.75642 15.8751 3.75642H7.15347V2.92108C7.15347 2.38058 7.71851 2.03665 8.25901 2.03665H18.8232C19.27 2.00759 19.6558 2.34621 19.6848 2.79303C19.6877 2.83568 19.687 2.87852 19.683 2.92108Z" fill="#8C1515"/>
</svg>
