<svg width="48" height="48" viewBox="0 0 48 48" fill="none" xmlns="http://www.w3.org/2000/svg">
<path d="M40.5 9.375C39.9825 9.375 39.5625 9.795 39.5625 10.3125C39.5625 10.83 39.9825 11.25 40.5 11.25C41.0175 11.25 41.4375 10.83 41.4375 10.3125C41.4375 9.795 41.0175 9.375 40.5 9.375Z" fill="#8C1515"/>
<path d="M7.5 9.375C6.9825 9.375 6.5625 9.795 6.5625 10.3125C6.5625 10.83 6.9825 11.25 7.5 11.25C8.0175 11.25 8.4375 10.83 8.4375 10.3125C8.4375 9.795 8.0175 9.375 7.5 9.375Z" fill="#8C1515"/>
<path d="M47.0623 20.6231H45.941C45.5906 17.9227 44.7438 15.3494 43.415 12.9633C43.1631 12.511 42.5922 12.3484 42.1398 12.6003C41.6874 12.8522 41.5249 13.4231 41.7768 13.8754C42.9494 15.9814 43.7124 18.2468 44.0504 20.6231H43.3122C42.7945 20.6231 42.3747 21.0428 42.3747 21.5606V25.3106C42.3747 25.8284 42.7945 26.2481 43.3122 26.2481H47.0623C47.58 26.2481 47.9998 25.8284 47.9998 25.3106V21.5606C47.9998 21.0428 47.58 20.6231 47.0623 20.6231ZM46.1248 24.3731H44.2497V22.4981H45.1008C45.1011 22.4981 45.1015 22.4981 45.1018 22.4981C45.1021 22.4981 45.1024 22.4981 45.1028 22.4981H46.1248V24.3731Z" fill="#8C1515"/>
<path d="M34.3107 27.4332C34.3102 27.4187 34.3098 27.4042 34.3086 27.3896C34.3069 27.3698 34.3042 27.3502 34.3013 27.3307C34.2995 27.3187 34.2981 27.3067 34.2957 27.2947C34.2914 27.2717 34.2858 27.2492 34.2799 27.2268C34.2776 27.2183 34.2758 27.2097 34.2733 27.2013C34.265 27.1733 34.2552 27.1458 34.2443 27.1189C34.2431 27.116 34.2423 27.1129 34.2411 27.11C34.2281 27.0787 34.2136 27.0482 34.1975 27.0188L24.8227 9.86288C24.6583 9.56213 24.3428 9.375 24 9.375C23.6572 9.375 23.3417 9.56213 23.1773 9.86297L13.8025 27.0188C13.7864 27.0483 13.7719 27.0788 13.7589 27.1101C13.7577 27.113 13.7569 27.116 13.7557 27.119C13.7448 27.1459 13.735 27.1733 13.7267 27.2014C13.7242 27.2098 13.7224 27.2183 13.7201 27.2269C13.7141 27.2493 13.7086 27.2717 13.7043 27.2948C13.702 27.3067 13.7006 27.3187 13.6987 27.3308C13.6958 27.3503 13.6931 27.3698 13.6914 27.3897C13.6902 27.4043 13.6897 27.4188 13.6893 27.4333C13.6888 27.4451 13.6875 27.4568 13.6875 27.4688C13.6875 27.4749 13.6883 27.4808 13.6884 27.487C13.6887 27.5018 13.6897 27.5164 13.6907 27.5311C13.6919 27.5498 13.6934 27.5683 13.6957 27.5867C13.6974 27.5996 13.6995 27.6125 13.7017 27.6254C13.705 27.6457 13.7091 27.6657 13.7137 27.6855C13.7164 27.6967 13.7193 27.7078 13.7224 27.7189C13.7283 27.7402 13.735 27.7612 13.7423 27.782C13.7444 27.7879 13.7457 27.7939 13.748 27.7998L17.129 36.7594C16.8578 36.8938 16.6069 37.0724 16.3865 37.2927C15.8551 37.8241 15.5625 38.5303 15.5625 39.2812C15.5625 40.5034 16.3463 41.5455 17.4375 41.9325V47.0625C17.4375 47.5803 17.8572 48 18.375 48H29.625C30.1428 48 30.5625 47.5803 30.5625 47.0625V41.9341C30.9533 41.7962 31.3118 41.5717 31.6136 41.2698C32.1449 40.7384 32.4375 40.0322 32.4375 39.2812C32.4375 38.1775 31.7982 37.2208 30.8707 36.7606L34.2521 27.7998C34.2544 27.7939 34.2557 27.7879 34.2577 27.782C34.2651 27.7612 34.2718 27.7402 34.2777 27.7189C34.2808 27.7078 34.2836 27.6967 34.2863 27.6855C34.291 27.6657 34.295 27.6457 34.2984 27.6254C34.3006 27.6125 34.3028 27.5996 34.3043 27.5867C34.3067 27.5683 34.3082 27.5498 34.3094 27.5311C34.3103 27.5164 34.3114 27.5018 34.3117 27.487C34.3118 27.4809 34.3126 27.4749 34.3126 27.4688C34.3125 27.4568 34.3112 27.4451 34.3107 27.4332ZM24 26.5312C24.5169 26.5312 24.9375 26.9518 24.9375 27.4688C24.9375 27.9857 24.5169 28.4062 24 28.4062C23.4831 28.4062 23.0625 27.9857 23.0625 27.4688C23.0625 26.9518 23.4831 26.5312 24 26.5312ZM28.6875 46.125H19.3125V42.0938H28.6875V46.125ZM30.2877 39.9439C30.1105 40.1212 29.8751 40.2188 29.625 40.2188H18.375C17.8581 40.2188 17.4375 39.7982 17.4375 39.2812C17.4375 39.0311 17.5351 38.7957 17.7123 38.6186C17.8896 38.4413 18.1249 38.3438 18.375 38.3438H29.6187C29.6208 38.3438 29.6228 38.344 29.6249 38.344C29.6259 38.344 29.6271 38.3439 29.6281 38.3439C30.1436 38.3456 30.5626 38.7653 30.5626 39.2812C30.5625 39.5314 30.4649 39.7668 30.2877 39.9439ZM28.9767 36.4688H19.0233L15.9808 28.4062H18.375C18.8928 28.4062 19.3125 27.9865 19.3125 27.4688C19.3125 26.951 18.8928 26.5312 18.375 26.5312H16.2056L23.0625 13.9832V24.8175C21.9713 25.2045 21.1875 26.2465 21.1875 27.4688C21.1875 29.0196 22.4492 30.2812 24 30.2812C25.5508 30.2812 26.8125 29.0196 26.8125 27.4688C26.8125 26.2466 26.0287 25.2045 24.9375 24.8175V13.9832L31.7944 26.5312H29.625C29.1072 26.5312 28.6875 26.951 28.6875 27.4688C28.6875 27.9865 29.1072 28.4062 29.625 28.4062H32.0192L28.9767 36.4688Z" fill="#8C1515"/>
<path d="M5.85984 12.6045C5.40741 12.3525 4.83647 12.5151 4.58466 12.9675C3.25594 15.3536 2.40909 17.927 2.05875 20.6273H0.9375C0.419719 20.6273 0 21.0471 0 21.5648V25.3148C0 25.8326 0.419719 26.2523 0.9375 26.2523H4.6875C5.20528 26.2523 5.625 25.8326 5.625 25.3148V21.5648C5.625 21.0471 5.20528 20.6273 4.6875 20.6273H3.94922C4.28737 18.2511 5.05022 15.9856 6.22284 13.8797C6.47475 13.4273 6.31228 12.8564 5.85984 12.6045ZM3.75 24.3773H1.875V22.5023H2.89697C2.89734 22.5023 2.89762 22.5023 2.898 22.5023C2.89828 22.5023 2.89866 22.5023 2.89894 22.5023H3.75V24.3773Z" fill="#8C1515"/>
<path d="M45.1875 0C43.9654 0 42.9232 0.783844 42.5363 1.875H26.8125V0.9375C26.8125 0.419719 26.3928 0 25.875 0H22.125C21.6072 0 21.1875 0.419719 21.1875 0.9375V1.875H5.46375C5.07675 0.783844 4.03463 0 2.8125 0C1.26169 0 0 1.26169 0 2.8125C0 4.36331 1.26169 5.625 2.8125 5.625C4.03463 5.625 5.07675 4.84116 5.46375 3.75H14.8888C12.8892 4.58672 11.0555 5.67291 9.54609 6.94537C9.15019 7.27912 9.09984 7.87059 9.43359 8.26641C9.61903 8.48644 9.88406 8.59969 10.1508 8.59969C10.3642 8.59969 10.5787 8.52731 10.7545 8.379C13.4444 6.11137 17.2831 4.49184 21.1875 3.94866V4.6875C21.1875 5.20528 21.6072 5.625 22.125 5.625H25.875C26.3928 5.625 26.8125 5.20528 26.8125 4.6875V3.94866C30.7169 4.49184 34.5556 6.11137 37.2455 8.37891C37.4213 8.52722 37.6358 8.59969 37.8492 8.59959C38.116 8.59959 38.3811 8.48634 38.5664 8.26631C38.9002 7.87059 38.8498 7.27912 38.4539 6.94537C36.9445 5.67291 35.1108 4.58672 33.1112 3.75H42.5363C42.9232 4.84116 43.9653 5.625 45.1875 5.625C46.7383 5.625 48 4.36331 48 2.8125C48 1.26169 46.7383 0 45.1875 0ZM2.8125 3.75C2.29556 3.75 1.875 3.32944 1.875 2.8125C1.875 2.29556 2.29556 1.875 2.8125 1.875C3.32944 1.875 3.75 2.29556 3.75 2.8125C3.75 3.32944 3.32944 3.75 2.8125 3.75ZM24.9375 2.8125V2.89687V3.75H23.0625V2.89687V2.8125V1.875H24.9375V2.8125ZM45.1875 3.75C44.6706 3.75 44.25 3.32944 44.25 2.8125C44.25 2.29556 44.6706 1.875 45.1875 1.875C45.7044 1.875 46.125 2.29556 46.125 2.8125C46.125 3.32944 45.7044 3.75 45.1875 3.75Z" fill="#8C1515"/>
</svg>
