<svg width="36" height="36" viewBox="0 0 36 36" fill="none" xmlns="http://www.w3.org/2000/svg">
<path d="M18 21.4C18.3362 21.4 18.6649 21.3003 18.9445 21.1135C19.224 20.9267 19.4419 20.6612 19.5706 20.3506C19.6993 20.0399 19.7329 19.6981 19.6673 19.3683C19.6017 19.0386 19.4398 18.7357 19.2021 18.4979C18.9643 18.2602 18.6614 18.0983 18.3317 18.0327C18.0019 17.9671 17.6601 18.0007 17.3494 18.1294C17.0388 18.2581 16.7733 18.476 16.5865 18.7555C16.3997 19.0351 16.3 19.3638 16.3 19.7C16.3 20.1509 16.4791 20.5833 16.7979 20.9021C17.1167 21.2209 17.5491 21.4 18 21.4ZM26.5 21.4C26.8362 21.4 27.1649 21.3003 27.4445 21.1135C27.724 20.9267 27.9419 20.6612 28.0706 20.3506C28.1993 20.0399 28.2329 19.6981 28.1673 19.3683C28.1017 19.0386 27.9398 18.7357 27.7021 18.4979C27.4643 18.2602 27.1614 18.0983 26.8317 18.0327C26.5019 17.9671 26.1601 18.0007 25.8494 18.1294C25.5388 18.2581 25.2733 18.476 25.0865 18.7555C24.8997 19.0351 24.8 19.3638 24.8 19.7C24.8 20.1509 24.9791 20.5833 25.2979 20.9021C25.6167 21.2209 26.0491 21.4 26.5 21.4ZM18 28.2C18.3362 28.2 18.6649 28.1003 18.9445 27.9135C19.224 27.7267 19.4419 27.4612 19.5706 27.1506C19.6993 26.8399 19.7329 26.4981 19.6673 26.1683C19.6017 25.8386 19.4398 25.5357 19.2021 25.2979C18.9643 25.0602 18.6614 24.8983 18.3317 24.8327C18.0019 24.7671 17.6601 24.8007 17.3494 24.9294C17.0388 25.0581 16.7733 25.276 16.5865 25.5555C16.3997 25.8351 16.3 26.1638 16.3 26.5C16.3 26.9509 16.4791 27.3833 16.7979 27.7021C17.1167 28.0209 17.5491 28.2 18 28.2ZM26.5 28.2C26.8362 28.2 27.1649 28.1003 27.4445 27.9135C27.724 27.7267 27.9419 27.4612 28.0706 27.1506C28.1993 26.8399 28.2329 26.4981 28.1673 26.1683C28.1017 25.8386 27.9398 25.5357 27.7021 25.2979C27.4643 25.0602 27.1614 24.8983 26.8317 24.8327C26.5019 24.7671 26.1601 24.8007 25.8494 24.9294C25.5388 25.0581 25.2733 25.276 25.0865 25.5555C24.8997 25.8351 24.8 26.1638 24.8 26.5C24.8 26.9509 24.9791 27.3833 25.2979 27.7021C25.6167 28.0209 26.0491 28.2 26.5 28.2ZM9.5 21.4C9.83623 21.4 10.1649 21.3003 10.4445 21.1135C10.724 20.9267 10.9419 20.6612 11.0706 20.3506C11.1993 20.0399 11.2329 19.6981 11.1673 19.3683C11.1017 19.0386 10.9398 18.7357 10.7021 18.4979C10.4643 18.2602 10.1614 18.0983 9.83165 18.0327C9.50189 17.9671 9.16007 18.0007 8.84944 18.1294C8.5388 18.2581 8.2733 18.476 8.0865 18.7555C7.8997 19.0351 7.8 19.3638 7.8 19.7C7.8 20.1509 7.97911 20.5833 8.29792 20.9021C8.61673 21.2209 9.04913 21.4 9.5 21.4ZM29.9 4.4H28.2V2.7C28.2 2.24913 28.0209 1.81673 27.7021 1.49792C27.3833 1.17911 26.9509 1 26.5 1C26.0491 1 25.6167 1.17911 25.2979 1.49792C24.9791 1.81673 24.8 2.24913 24.8 2.7V4.4H11.2V2.7C11.2 2.24913 11.0209 1.81673 10.7021 1.49792C10.3833 1.17911 9.95087 1 9.5 1C9.04913 1 8.61673 1.17911 8.29792 1.49792C7.97911 1.81673 7.8 2.24913 7.8 2.7V4.4H6.1C4.7474 4.4 3.45019 4.93732 2.49376 5.89376C1.53732 6.85019 1 8.1474 1 9.5V29.9C1 31.2526 1.53732 32.5498 2.49376 33.5062C3.45019 34.4627 4.7474 35 6.1 35H29.9C31.2526 35 32.5498 34.4627 33.5062 33.5062C34.4627 32.5498 35 31.2526 35 29.9V9.5C35 8.1474 34.4627 6.85019 33.5062 5.89376C32.5498 4.93732 31.2526 4.4 29.9 4.4ZM31.6 29.9C31.6 30.3509 31.4209 30.7833 31.1021 31.1021C30.7833 31.4209 30.3509 31.6 29.9 31.6H6.1C5.64913 31.6 5.21673 31.4209 4.89792 31.1021C4.57911 30.7833 4.4 30.3509 4.4 29.9V14.6H31.6V29.9ZM31.6 11.2H4.4V9.5C4.4 9.04913 4.57911 8.61673 4.89792 8.29792C5.21673 7.97911 5.64913 7.8 6.1 7.8H29.9C30.3509 7.8 30.7833 7.97911 31.1021 8.29792C31.4209 8.61673 31.6 9.04913 31.6 9.5V11.2ZM9.5 28.2C9.83623 28.2 10.1649 28.1003 10.4445 27.9135C10.724 27.7267 10.9419 27.4612 11.0706 27.1506C11.1993 26.8399 11.2329 26.4981 11.1673 26.1683C11.1017 25.8386 10.9398 25.5357 10.7021 25.2979C10.4643 25.0602 10.1614 24.8983 9.83165 24.8327C9.50189 24.7671 9.16007 24.8007 8.84944 24.9294C8.5388 25.0581 8.2733 25.276 8.0865 25.5555C7.8997 25.8351 7.8 26.1638 7.8 26.5C7.8 26.9509 7.97911 27.3833 8.29792 27.7021C8.61673 28.0209 9.04913 28.2 9.5 28.2Z" fill="#2E2D29"/>
</svg>
