<svg width="44" height="44" viewBox="0 0 44 44" fill="none" xmlns="http://www.w3.org/2000/svg">
<path d="M39.05 5C40.3628 5 41.6219 5.49257 42.5502 6.36935C43.4785 7.24614 44 8.43531 44 9.67526V33.5814C44 34.8214 43.4785 36.0106 42.5502 36.8874C41.6219 37.7641 40.3628 38.2567 39.05 38.2567H4.95C4.29996 38.2567 3.65628 38.1358 3.05572 37.9008C2.45516 37.6659 1.90947 37.3215 1.44982 36.8874C0.990171 36.4532 0.625557 35.9378 0.376796 35.3706C0.128036 34.8034 0 34.1954 0 33.5814V9.67526C0 8.43531 0.521516 7.24614 1.44982 6.36935C2.37813 5.49257 3.63718 5 4.95 5H39.05ZM39.05 8.11684H4.95C4.51239 8.11684 4.09271 8.28103 3.78327 8.57329C3.47384 8.86555 3.3 9.26195 3.3 9.67526V33.5814C3.3 34.4417 4.0392 35.1399 4.95 35.1399H39.05C39.4876 35.1399 39.9073 34.9757 40.2167 34.6834C40.5262 34.3912 40.7 33.9948 40.7 33.5814V9.67526C40.7 9.26195 40.5262 8.86555 40.2167 8.57329C39.9073 8.28103 39.4876 8.11684 39.05 8.11684ZM17.05 22.6621C17.4876 22.6621 17.9073 22.8263 18.2167 23.1186C18.5262 23.4108 18.7 23.8072 18.7 24.2205V25.2449L18.6824 25.4693C18.3238 27.782 16.2756 28.8979 13.2 28.8979C10.1244 28.8979 8.074 27.782 7.7176 25.4693L7.7 25.2408V24.2205C7.7 23.8072 7.87384 23.4108 8.18327 23.1186C8.49271 22.8263 8.91239 22.6621 9.35 22.6621H17.05ZM24.7544 23.6927H34.65C35.0681 23.6929 35.4705 23.8429 35.7759 24.1124C36.0814 24.382 36.2672 24.751 36.2957 25.1449C36.3242 25.5389 36.1933 25.9283 35.9295 26.2346C35.6656 26.5409 35.2885 26.7412 34.8744 26.795L34.65 26.8096H24.7544C24.3363 26.8095 23.9339 26.6595 23.6285 26.3899C23.323 26.1203 23.1372 25.7513 23.1087 25.3574C23.0802 24.9635 23.2111 24.574 23.475 24.2677C23.7388 23.9614 24.1159 23.7611 24.53 23.7073L24.7544 23.6927H34.65H24.7544ZM13.2 14.3547C14.0752 14.3547 14.9146 14.6831 15.5335 15.2676C16.1523 15.8521 16.5 16.6449 16.5 17.4715C16.5 18.2982 16.1523 19.0909 15.5335 19.6755C14.9146 20.26 14.0752 20.5884 13.2 20.5884C12.3248 20.5884 11.4854 20.26 10.8665 19.6755C10.2477 19.0909 9.9 18.2982 9.9 17.4715C9.9 16.6449 10.2477 15.8521 10.8665 15.2676C11.4854 14.6831 12.3248 14.3547 13.2 14.3547ZM24.7544 16.4284H34.65C35.0681 16.4285 35.4705 16.5785 35.7759 16.8481C36.0814 17.1177 36.2672 17.4867 36.2957 17.8806C36.3242 18.2746 36.1933 18.664 35.9295 18.9703C35.6656 19.2766 35.2885 19.4769 34.8744 19.5307L34.65 19.5453H24.7544C24.3363 19.5451 23.9339 19.3952 23.6285 19.1256C23.323 18.856 23.1372 18.487 23.1087 18.0931C23.0802 17.6991 23.2111 17.3097 23.475 17.0034C23.7388 16.6971 24.1159 16.4968 24.53 16.443L24.7544 16.4284H34.65H24.7544Z" fill="#8C1515"/>
</svg>
