<svg width="36" height="36" viewBox="0 0 36 36" fill="none" xmlns="http://www.w3.org/2000/svg">
<g clip-path="url(#clip0_934_1603)">
<path d="M18 28.6H18.0001C23.8517 28.5937 28.5937 23.8517 28.6 18.0001V18C28.6 12.1457 23.8542 7.4 18 7.4C12.1457 7.4 7.4 12.1458 7.4 18C7.4 23.8542 12.1457 28.6 18 28.6ZM18 26.9C13.0847 26.9 9.09998 22.9153 9.09998 18C9.09998 13.0847 13.0847 9.09998 18 9.09998C22.9131 9.10532 26.8947 13.0869 26.9 18.0001C26.8999 22.9153 22.9152 26.9 18 26.9Z" fill="#2E2D29" stroke="#2E2D29" stroke-width="0.2"/>
<mask id="path-2-outside-1_934_1603" maskUnits="userSpaceOnUse" x="-1" y="-1" width="38" height="38" fill="black">
<rect fill="white" x="-1" y="-1" width="38" height="38"/>
<path d="M34.5 14.25H31.7393C31.4236 13.0923 30.9617 11.9796 30.3645 10.9388L32.319 8.98432C32.3191 8.98418 32.3193 8.98404 32.3194 8.9839C32.9051 8.39798 32.9049 7.44827 32.319 6.86257L29.1367 3.68107C28.551 3.09551 27.6014 3.09551 27.0157 3.68107L25.0613 5.63555C24.0202 5.0388 22.9076 4.57685 21.75 4.2608V1.49998C21.75 0.671555 21.0784 0 20.25 0H15.75C14.9216 0 14.25 0.671555 14.25 1.49998V4.26073C13.0925 4.57678 11.9798 5.03873 10.9388 5.63548L8.98432 3.681C8.39855 3.09544 7.44905 3.09544 6.86334 3.681L3.681 6.8625C3.68086 6.86264 3.68072 6.86278 3.68058 6.86292C3.09494 7.44884 3.09509 8.39855 3.681 8.98425L5.63548 10.9387C5.03831 11.9796 4.57636 13.0923 4.26073 14.25H1.49998C0.671555 14.25 0 14.9216 0 15.75V20.25C0 21.0784 0.671555 21.75 1.49998 21.75H4.26073C4.57636 22.9077 5.03831 24.0204 5.63548 25.0612L3.681 27.0157C3.68086 27.0158 3.68072 27.016 3.68058 27.0161C3.09494 27.602 3.09509 28.5517 3.681 29.1374L6.86327 32.3189C7.44905 32.9045 8.39855 32.9045 8.98425 32.3189L10.9387 30.3645C11.9798 30.9612 13.0924 31.4231 14.25 31.7392V34.4999C14.25 35.3284 14.9215 35.9999 15.7499 35.9999H20.2499C21.0783 35.9999 21.7499 35.3284 21.7499 34.4999V31.7392C22.9075 31.4231 24.0202 30.9612 25.0611 30.3645L27.0156 32.3189C27.6014 32.9045 28.5509 32.9045 29.1366 32.3189L32.3189 29.1374C32.319 29.1373 32.3191 29.1371 32.3193 29.137C32.905 28.5511 32.9048 27.6014 32.3189 27.0157L30.3644 25.0612C30.9615 24.0204 31.4235 22.9077 31.7391 21.75H34.4999C35.3283 21.75 35.9999 21.0784 35.9999 20.25V15.75C36 14.9216 35.3284 14.25 34.5 14.25ZM34.5 20.25H31.1543C30.804 20.2496 30.5 20.4919 30.4222 20.8335C30.1046 22.2315 29.5509 23.5652 28.785 24.777C28.5986 25.0735 28.6421 25.4595 28.89 25.707L31.2585 28.077L28.0762 31.2585L25.7069 28.8901C25.4596 28.6426 25.074 28.599 24.7777 28.7851C23.5656 29.5506 22.232 30.1042 20.8342 30.4223C20.4926 30.4997 20.2501 30.8033 20.25 31.1536V34.5001H15.75V31.1536C15.7499 30.8033 15.5073 30.4997 15.1658 30.4223C13.7679 30.1042 12.4343 29.5506 11.2223 28.7851C11.1028 28.7101 10.9645 28.6703 10.8233 28.6703C10.6244 28.6704 10.4337 28.7494 10.293 28.8901L7.9238 31.2585L4.74152 28.0763L7.11 25.707C7.35785 25.4596 7.40144 25.0735 7.21498 24.777C6.44906 23.5651 5.89535 22.2315 5.57775 20.8335C5.49998 20.4919 5.19609 20.2497 4.84573 20.25H1.49998V15.75H4.84573C5.19602 15.7503 5.49998 15.5081 5.57775 15.1665C5.89542 13.7685 6.44906 12.4348 7.21498 11.223C7.40144 10.9265 7.35785 10.5405 7.11 10.293L4.74152 7.92295L7.9238 4.74145L10.293 7.10993C10.5404 7.35743 10.926 7.40095 11.2223 7.21491C12.4343 6.44934 13.7679 5.89591 15.1658 5.57838C15.5076 5.5009 15.7503 5.19694 15.75 4.84636V1.49998H20.25V4.8465C20.2497 5.19708 20.4924 5.50104 20.8342 5.57852C22.2322 5.89598 23.5657 6.44941 24.7777 7.21505C25.074 7.40109 25.4596 7.3575 25.7069 7.11007L28.0762 4.74159L31.2585 7.92387L28.89 10.2931C28.6421 10.5405 28.5986 10.9266 28.785 11.2231C29.5509 12.435 30.1046 13.7687 30.4222 15.1666C30.5 15.5082 30.8039 15.7504 31.1543 15.7501H34.5V20.25Z"/>
</mask>
<path d="M34.5 14.25H31.7393C31.4236 13.0923 30.9617 11.9796 30.3645 10.9388L32.319 8.98432C32.3191 8.98418 32.3193 8.98404 32.3194 8.9839C32.9051 8.39798 32.9049 7.44827 32.319 6.86257L29.1367 3.68107C28.551 3.09551 27.6014 3.09551 27.0157 3.68107L25.0613 5.63555C24.0202 5.0388 22.9076 4.57685 21.75 4.2608V1.49998C21.75 0.671555 21.0784 0 20.25 0H15.75C14.9216 0 14.25 0.671555 14.25 1.49998V4.26073C13.0925 4.57678 11.9798 5.03873 10.9388 5.63548L8.98432 3.681C8.39855 3.09544 7.44905 3.09544 6.86334 3.681L3.681 6.8625C3.68086 6.86264 3.68072 6.86278 3.68058 6.86292C3.09494 7.44884 3.09509 8.39855 3.681 8.98425L5.63548 10.9387C5.03831 11.9796 4.57636 13.0923 4.26073 14.25H1.49998C0.671555 14.25 0 14.9216 0 15.75V20.25C0 21.0784 0.671555 21.75 1.49998 21.75H4.26073C4.57636 22.9077 5.03831 24.0204 5.63548 25.0612L3.681 27.0157C3.68086 27.0158 3.68072 27.016 3.68058 27.0161C3.09494 27.602 3.09509 28.5517 3.681 29.1374L6.86327 32.3189C7.44905 32.9045 8.39855 32.9045 8.98425 32.3189L10.9387 30.3645C11.9798 30.9612 13.0924 31.4231 14.25 31.7392V34.4999C14.25 35.3284 14.9215 35.9999 15.7499 35.9999H20.2499C21.0783 35.9999 21.7499 35.3284 21.7499 34.4999V31.7392C22.9075 31.4231 24.0202 30.9612 25.0611 30.3645L27.0156 32.3189C27.6014 32.9045 28.5509 32.9045 29.1366 32.3189L32.3189 29.1374C32.319 29.1373 32.3191 29.1371 32.3193 29.137C32.905 28.5511 32.9048 27.6014 32.3189 27.0157L30.3644 25.0612C30.9615 24.0204 31.4235 22.9077 31.7391 21.75H34.4999C35.3283 21.75 35.9999 21.0784 35.9999 20.25V15.75C36 14.9216 35.3284 14.25 34.5 14.25ZM34.5 20.25H31.1543C30.804 20.2496 30.5 20.4919 30.4222 20.8335C30.1046 22.2315 29.5509 23.5652 28.785 24.777C28.5986 25.0735 28.6421 25.4595 28.89 25.707L31.2585 28.077L28.0762 31.2585L25.7069 28.8901C25.4596 28.6426 25.074 28.599 24.7777 28.7851C23.5656 29.5506 22.232 30.1042 20.8342 30.4223C20.4926 30.4997 20.2501 30.8033 20.25 31.1536V34.5001H15.75V31.1536C15.7499 30.8033 15.5073 30.4997 15.1658 30.4223C13.7679 30.1042 12.4343 29.5506 11.2223 28.7851C11.1028 28.7101 10.9645 28.6703 10.8233 28.6703C10.6244 28.6704 10.4337 28.7494 10.293 28.8901L7.9238 31.2585L4.74152 28.0763L7.11 25.707C7.35785 25.4596 7.40144 25.0735 7.21498 24.777C6.44906 23.5651 5.89535 22.2315 5.57775 20.8335C5.49998 20.4919 5.19609 20.2497 4.84573 20.25H1.49998V15.75H4.84573C5.19602 15.7503 5.49998 15.5081 5.57775 15.1665C5.89542 13.7685 6.44906 12.4348 7.21498 11.223C7.40144 10.9265 7.35785 10.5405 7.11 10.293L4.74152 7.92295L7.9238 4.74145L10.293 7.10993C10.5404 7.35743 10.926 7.40095 11.2223 7.21491C12.4343 6.44934 13.7679 5.89591 15.1658 5.57838C15.5076 5.5009 15.7503 5.19694 15.75 4.84636V1.49998H20.25V4.8465C20.2497 5.19708 20.4924 5.50104 20.8342 5.57852C22.2322 5.89598 23.5657 6.44941 24.7777 7.21505C25.074 7.40109 25.4596 7.3575 25.7069 7.11007L28.0762 4.74159L31.2585 7.92387L28.89 10.2931C28.6421 10.5405 28.5986 10.9266 28.785 11.2231C29.5509 12.435 30.1046 13.7687 30.4222 15.1666C30.5 15.5082 30.8039 15.7504 31.1543 15.7501H34.5V20.25Z" fill="#2E2D29"/>
<path d="M34.5 14.25H31.7393C31.4236 13.0923 30.9617 11.9796 30.3645 10.9388L32.319 8.98432C32.3191 8.98418 32.3193 8.98404 32.3194 8.9839C32.9051 8.39798 32.9049 7.44827 32.319 6.86257L29.1367 3.68107C28.551 3.09551 27.6014 3.09551 27.0157 3.68107L25.0613 5.63555C24.0202 5.0388 22.9076 4.57685 21.75 4.2608V1.49998C21.75 0.671555 21.0784 0 20.25 0H15.75C14.9216 0 14.25 0.671555 14.25 1.49998V4.26073C13.0925 4.57678 11.9798 5.03873 10.9388 5.63548L8.98432 3.681C8.39855 3.09544 7.44905 3.09544 6.86334 3.681L3.681 6.8625C3.68086 6.86264 3.68072 6.86278 3.68058 6.86292C3.09494 7.44884 3.09509 8.39855 3.681 8.98425L5.63548 10.9387C5.03831 11.9796 4.57636 13.0923 4.26073 14.25H1.49998C0.671555 14.25 0 14.9216 0 15.75V20.25C0 21.0784 0.671555 21.75 1.49998 21.75H4.26073C4.57636 22.9077 5.03831 24.0204 5.63548 25.0612L3.681 27.0157C3.68086 27.0158 3.68072 27.016 3.68058 27.0161C3.09494 27.602 3.09509 28.5517 3.681 29.1374L6.86327 32.3189C7.44905 32.9045 8.39855 32.9045 8.98425 32.3189L10.9387 30.3645C11.9798 30.9612 13.0924 31.4231 14.25 31.7392V34.4999C14.25 35.3284 14.9215 35.9999 15.7499 35.9999H20.2499C21.0783 35.9999 21.7499 35.3284 21.7499 34.4999V31.7392C22.9075 31.4231 24.0202 30.9612 25.0611 30.3645L27.0156 32.3189C27.6014 32.9045 28.5509 32.9045 29.1366 32.3189L32.3189 29.1374C32.319 29.1373 32.3191 29.1371 32.3193 29.137C32.905 28.5511 32.9048 27.6014 32.3189 27.0157L30.3644 25.0612C30.9615 24.0204 31.4235 22.9077 31.7391 21.75H34.4999C35.3283 21.75 35.9999 21.0784 35.9999 20.25V15.75C36 14.9216 35.3284 14.25 34.5 14.25ZM34.5 20.25H31.1543C30.804 20.2496 30.5 20.4919 30.4222 20.8335C30.1046 22.2315 29.5509 23.5652 28.785 24.777C28.5986 25.0735 28.6421 25.4595 28.89 25.707L31.2585 28.077L28.0762 31.2585L25.7069 28.8901C25.4596 28.6426 25.074 28.599 24.7777 28.7851C23.5656 29.5506 22.232 30.1042 20.8342 30.4223C20.4926 30.4997 20.2501 30.8033 20.25 31.1536V34.5001H15.75V31.1536C15.7499 30.8033 15.5073 30.4997 15.1658 30.4223C13.7679 30.1042 12.4343 29.5506 11.2223 28.7851C11.1028 28.7101 10.9645 28.6703 10.8233 28.6703C10.6244 28.6704 10.4337 28.7494 10.293 28.8901L7.9238 31.2585L4.74152 28.0763L7.11 25.707C7.35785 25.4596 7.40144 25.0735 7.21498 24.777C6.44906 23.5651 5.89535 22.2315 5.57775 20.8335C5.49998 20.4919 5.19609 20.2497 4.84573 20.25H1.49998V15.75H4.84573C5.19602 15.7503 5.49998 15.5081 5.57775 15.1665C5.89542 13.7685 6.44906 12.4348 7.21498 11.223C7.40144 10.9265 7.35785 10.5405 7.11 10.293L4.74152 7.92295L7.9238 4.74145L10.293 7.10993C10.5404 7.35743 10.926 7.40095 11.2223 7.21491C12.4343 6.44934 13.7679 5.89591 15.1658 5.57838C15.5076 5.5009 15.7503 5.19694 15.75 4.84636V1.49998H20.25V4.8465C20.2497 5.19708 20.4924 5.50104 20.8342 5.57852C22.2322 5.89598 23.5657 6.44941 24.7777 7.21505C25.074 7.40109 25.4596 7.3575 25.7069 7.11007L28.0762 4.74159L31.2585 7.92387L28.89 10.2931C28.6421 10.5405 28.5986 10.9266 28.785 11.2231C29.5509 12.435 30.1046 13.7687 30.4222 15.1666C30.5 15.5082 30.8039 15.7504 31.1543 15.7501H34.5V20.25Z" stroke="#2E2D29" stroke-width="0.4" mask="url(#path-2-outside-1_934_1603)"/>
<path d="M21.8501 18.0005C21.8503 17.8685 21.8197 17.7385 21.7609 17.6205L21.7608 17.6204L21.7501 18.0003M21.8501 18.0005L21.7501 18.0003M21.8501 18.0005V18.0003H21.7501M21.8501 18.0005V27.7503V27.8503H21.7501H20.2501H20.1501V27.7503V18.2009M21.7501 18.0003V27.6503V27.7503H21.6501H20.3501H20.2501V27.6503V18.1773L20.1607 18.222L20.1501 18.2009M20.1501 18.2009L18.0001 13.9009M20.1501 18.2009L18.0001 13.9009M18.0001 13.9009L15.8501 18.2009V27.7504V27.8504H15.7501H14.25H14.15V27.7504L14.15 18.0005L14.15 18.0003H14.25L18.0001 13.9009Z" fill="#2E2D29" stroke="#2E2D29" stroke-width="0.2"/>
<path d="M15.0011 16.4L14.9 16.3989V16.5V18V18.1H15C15.1954 18.1 15.327 18.1371 15.4526 18.2129C15.5831 18.2917 15.7108 18.4139 15.8958 18.5977C16.4156 19.2244 17.1846 19.5909 17.9989 19.6L18.0011 19.5999C18.8154 19.5909 19.5845 19.2244 20.1042 18.5977C20.2893 18.4138 20.417 18.2916 20.5474 18.2129C20.6731 18.1371 20.8046 18.1 21.0001 18.1H21.1001V18V16.5V16.3989L20.9989 16.4C20.1847 16.409 19.4156 16.7756 18.8958 17.4022C18.7108 17.5861 18.5831 17.7083 18.4526 17.787C18.327 17.8629 18.1955 17.9 18 17.9C17.8045 17.9 17.6724 17.8628 17.5465 17.787C17.4158 17.7083 17.2881 17.5861 17.1043 17.4024C16.5845 16.7756 15.8155 16.409 15.0011 16.4Z" fill="#2E2D29" stroke="#2E2D29" stroke-width="0.2"/>
<path d="M18.85 18.75V18.65H18.75H17.25H17.15V18.75V27.75V27.85H17.25H18.75H18.85V27.75V18.75Z" fill="#2E2D29" stroke="#2E2D29" stroke-width="0.2"/>
<path d="M19.6 13.5V13.4H19.5H16.5H16.4V13.5V15V15.1H16.5H19.5H19.6V15V13.5Z" fill="#2E2D29" stroke="#2E2D29" stroke-width="0.2"/>
</g>
<defs>
<clipPath id="clip0_934_1603">
<rect width="36" height="36" fill="white"/>
</clipPath>
</defs>
</svg>
