<svg width="48" height="48" viewBox="0 0 48 48" fill="none" xmlns="http://www.w3.org/2000/svg">
<g clip-path="url(#clip0_947_228)">
<path d="M7.89805 9.99855C7.89805 15.5683 12.4293 20.0995 17.999 20.0995C23.5688 20.0995 28.1 15.5683 28.1 9.99855C28.1 4.42878 23.5688 -0.102441 17.999 -0.102441C12.4293 -0.102441 7.89805 4.42878 7.89805 9.99855ZM10.0982 9.99855C10.0982 5.64134 13.6418 2.09776 17.999 2.09776C22.3562 2.09776 25.8998 5.64134 25.8998 9.99855C25.8998 14.3558 22.3562 17.8993 17.999 17.8993C13.6418 17.8993 10.0982 14.3558 10.0982 9.99855Z" fill="#8C1515" stroke="#8C1515" stroke-width="0.2"/>
<path d="M0.998146 42.1018H18.9999C19.6072 42.1018 20.1 41.609 20.1 41.0017C20.1 40.3944 19.6072 39.9016 18.9999 39.9016H2.09825V33.0009C2.09825 29.1957 5.19379 26.1002 8.99894 26.1002H27.0007C27.608 26.1002 28.1008 25.6074 28.1008 25.0001C28.1008 24.3928 27.608 23.9 27.0007 23.9H8.99894C3.98122 23.9 -0.101953 27.9832 -0.101953 33.0009V41.0017C-0.101953 41.609 0.390863 42.1018 0.998146 42.1018Z" fill="#8C1515" stroke="#8C1515" stroke-width="0.2"/>
<path d="M41.4907 43.656L41.4905 43.6561C38.9668 45.1618 36.4826 45.9117 34.0015 45.9117C31.5204 45.9117 29.0352 45.1618 26.5095 43.6561C26.2648 43.51 26.1002 43.2085 26.1002 42.8879V37.0013C26.1002 36.394 25.6074 35.9012 25.0001 35.9012C24.3928 35.9012 23.9 36.394 23.9 37.0013V42.8879C23.9 43.9799 24.4655 44.9993 25.3849 45.5461C28.2403 47.248 31.1181 48.1024 34.001 48.1024C36.8839 48.1024 39.7617 47.248 42.617 45.5461C43.5365 44.9993 44.102 43.9799 44.102 42.8879V37.0013C44.102 36.394 43.6092 35.9012 43.0019 35.9012C42.3946 35.9012 41.9018 36.394 41.9018 37.0013V42.8879C41.9018 43.2084 41.7372 43.5098 41.4907 43.656Z" fill="#8C1515" stroke="#8C1515" stroke-width="0.2"/>
<path d="M20.5361 36L20.5362 36.0001L33.5374 42.0007C33.685 42.069 33.8434 42.1019 33.9994 42.1019C34.1555 42.1019 34.3138 42.069 34.4615 42.0007L47.4627 36.0001L47.4628 36C47.8522 35.8196 48.1008 35.4302 48.1008 35.0012C48.1008 34.5722 47.8522 34.1828 47.4628 34.0024L47.4627 34.0023L34.4614 28.0017L34.4614 28.0017L34.4612 28.0016C34.1647 27.8655 33.8342 27.8655 33.5377 28.0016L33.5375 28.0017L20.5362 34.0023L20.5361 34.0024C20.1467 34.1828 19.898 34.5722 19.898 35.0012C19.898 35.4302 20.1467 35.8196 20.5361 36ZM33.9994 39.7896L23.623 35.0012L33.9994 30.2129L44.3758 35.0012L33.9994 39.7896Z" fill="#8C1515" stroke="#8C1515" stroke-width="0.2"/>
</g>
<defs>
<clipPath id="clip0_947_228">
<rect width="48" height="48" fill="white"/>
</clipPath>
</defs>
</svg>
