<svg width="26" height="26" viewBox="0 0 26 26" fill="none" xmlns="http://www.w3.org/2000/svg">
<g clip-path="url(#clip0_936_371)">
<path d="M10.4261 21.8261H14.3986C14.8107 21.8261 15.1451 21.4918 15.1451 21.0796C15.1451 20.6674 14.8107 20.3331 14.3986 20.3331H10.4261C9.74289 20.3331 9.18647 19.7767 9.18647 19.0935V17.1074C9.18647 16.6952 8.85207 16.3608 8.43991 16.3608C8.02776 16.3608 7.69336 16.6952 7.69336 17.1074V19.0935C7.69336 20.6 8.91957 21.8261 10.4261 21.8261Z" fill="#8C1515" stroke="#8C1515" stroke-width="0.5"/>
<path d="M0.496556 11.8964H10.4277C10.8398 11.8964 11.1742 11.562 11.1742 11.1498C11.1742 10.7377 10.8398 10.4033 10.4277 10.4033H0.496556C0.0843986 10.4033 -0.25 10.7377 -0.25 11.1498C-0.25 11.562 0.0843986 11.8964 0.496556 11.8964Z" fill="#8C1515" stroke="#8C1515" stroke-width="0.5"/>
<path d="M15.1867 2.57541L15.1868 2.57538L21.143 0.590102C21.3595 0.512983 21.6007 0.472168 21.8472 0.472168C23.0807 0.472168 24.0835 1.47485 24.0835 2.70828V20.5833C24.0835 21.5447 23.4667 22.3964 22.55 22.7013L15.1867 2.57541ZM15.1867 2.57541C14.2705 2.88119 13.6523 3.73162 13.6523 4.69439V22.5694C13.6523 23.8028 14.6551 24.8055 15.8886 24.8055C16.1335 24.8055 16.3746 24.7646 16.5937 24.6866L22.5498 22.7014L15.1867 2.57541ZM21.6284 2.00204L21.6284 2.00206L21.6314 2.001C21.6962 1.97848 21.7717 1.96522 21.8472 1.96522C22.2564 1.96522 22.5903 2.29919 22.5903 2.70828V20.5833C22.5903 20.8985 22.3862 21.182 22.0778 21.2856C22.0777 21.2857 22.0776 21.2857 22.0775 21.2857L16.1094 23.2746L16.1094 23.2746L16.1057 23.2759C16.0391 23.2993 15.9638 23.3124 15.8886 23.3124C15.4794 23.3124 15.1455 22.9785 15.1455 22.5694V4.69439C15.1455 4.3777 15.349 4.09488 15.6584 3.99225L15.6588 3.99213L21.6284 2.00204Z" fill="#8C1515" stroke="#8C1515" stroke-width="0.5"/>
<path d="M7.69336 5.19092C7.69336 5.60309 8.02776 5.93745 8.43992 5.93745C8.85207 5.93745 9.18647 5.60309 9.18647 5.19092V3.20481C9.18647 2.52163 9.74289 1.96522 10.4261 1.96522H21.8469C22.2591 1.96522 22.5935 1.63086 22.5935 1.2187C22.5935 0.806528 22.2591 0.472168 21.8469 0.472168H10.4261C8.91957 0.472168 7.69336 1.69829 7.69336 3.20481V5.19092Z" fill="#8C1515" stroke="#8C1515" stroke-width="0.5"/>
<path d="M5.92746 15.6492L5.92836 15.6501C6.07395 15.7942 6.26488 15.8674 6.45579 15.8674C6.64646 15.8674 6.83801 15.7943 6.98313 15.6492L10.9556 11.677C11.2469 11.3857 11.2469 10.9126 10.9556 10.6213L6.98313 6.64912C6.69184 6.35785 6.21874 6.35785 5.92746 6.64912C5.63616 6.94039 5.63616 7.41349 5.92746 7.70477L5.92748 7.70479L9.37252 11.1487L5.92746 14.5936C5.63616 14.8848 5.63616 15.3579 5.92746 15.6492Z" fill="#8C1515" stroke="#8C1515" stroke-width="0.5"/>
</g>
<defs>
<clipPath id="clip0_936_371">
<rect width="26" height="26" fill="white"/>
</clipPath>
</defs>
</svg>
