<svg width="26" height="26" viewBox="0 0 26 26" fill="none" xmlns="http://www.w3.org/2000/svg">
<g clip-path="url(#clip0_936_380)">
<path d="M16.9125 6.5V6.65H17.0625H19.35V19.35H17.0625H16.9125V19.5V21.125V21.275H17.0625H21.125H21.275V21.125V4.875V4.725H21.125H17.0625H16.9125V4.875V6.5Z" fill="#8C1515" stroke="#8C1515" stroke-width="0.3"/>
<path d="M15.5875 4.875V4.725H15.4375H13.8125H13.6625V4.875V6.5V6.65H13.8125H15.4375H15.5875V6.5V4.875Z" fill="#8C1515" stroke="#8C1515" stroke-width="0.3"/>
<path d="M12.3375 4.875V4.725H12.1875H10.5625H10.4125V4.875V6.5V6.65H10.5625H12.1875H12.3375V6.5V4.875Z" fill="#8C1515" stroke="#8C1515" stroke-width="0.3"/>
<path d="M4.725 21.125V21.275H4.875H8.9375H9.0875V21.125V19.5V19.35H8.9375H6.65V6.65H8.9375H9.0875V6.5V4.875V4.725H8.9375H4.875H4.725V4.875V21.125Z" fill="#8C1515" stroke="#8C1515" stroke-width="0.3"/>
<path d="M12.3375 19.5V19.35H12.1875H10.5625H10.4125V19.5V21.125V21.275H10.5625H12.1875H12.3375V21.125V19.5Z" fill="#8C1515" stroke="#8C1515" stroke-width="0.3"/>
<path d="M15.5875 19.5V19.35H15.4375H13.8125H13.6625V19.5V21.125V21.275H13.8125H15.4375H15.5875V21.125V19.5Z" fill="#8C1515" stroke="#8C1515" stroke-width="0.3"/>
<path d="M3.4 4.875V4.725H3.25H0H-0.15V4.875V6.5V6.65H0H3.25H3.4V6.5V4.875Z" fill="#8C1515" stroke="#8C1515" stroke-width="0.3"/>
<path d="M3.4 19.5V19.35H3.25H0H-0.15V19.5V21.125V21.275H0H3.25H3.4V21.125V19.5Z" fill="#8C1515" stroke="#8C1515" stroke-width="0.3"/>
<path d="M26.15 4.875V4.725H26H22.75H22.6V4.875V6.5V6.65H22.75H26H26.15V6.5V4.875Z" fill="#8C1515" stroke="#8C1515" stroke-width="0.3"/>
<path d="M26.15 19.5V19.35H26H22.75H22.6V19.5V21.125V21.275H22.75H26H26.15V21.125V19.5Z" fill="#8C1515" stroke="#8C1515" stroke-width="0.3"/>
<path d="M6.65 22.75V22.6H6.5H4.875H4.725V22.75V26V26.15H4.875H6.5H6.65V26V22.75Z" fill="#8C1515" stroke="#8C1515" stroke-width="0.3"/>
<path d="M21.275 22.75V22.6H21.125H19.5H19.35V22.75V26V26.15H19.5H21.125H21.275V26V22.75Z" fill="#8C1515" stroke="#8C1515" stroke-width="0.3"/>
<path d="M6.65 0V-0.15H6.5H4.875H4.725V0V3.25V3.4H4.875H6.5H6.65V3.25V0Z" fill="#8C1515" stroke="#8C1515" stroke-width="0.3"/>
<path d="M21.275 0V-0.15H21.125H19.5H19.35V0V3.25V3.4H19.5H21.125H21.275V3.25V0Z" fill="#8C1515" stroke="#8C1515" stroke-width="0.3"/>
</g>
<defs>
<clipPath id="clip0_936_380">
<rect width="26" height="26" fill="white"/>
</clipPath>
</defs>
</svg>
