<svg width="36" height="36" viewBox="0 0 36 36" fill="none" xmlns="http://www.w3.org/2000/svg">
<path d="M30.8818 13.2021H25.8519V31.9976H24.1753V20.6705H19.1454V31.9976H17.4688V16.9363H12.439V31.9976H10.7624V22.5376H5.7325V31.9976H4V33.8647H32.6143V31.9976H30.8818V13.2021ZM27.5285 15.0692H29.2051V31.9976H27.5285V15.0692ZM20.8221 22.5376H22.4987V31.9976H20.8221V22.5376ZM14.1156 18.8034H15.7922V31.9976H14.1156V18.8034ZM7.40912 24.4047H9.08574V31.9976H7.40912V24.4047Z" fill="#2E2D29"/>
<path d="M25.8528 3.8671H29.745L21.6628 12.8177L14.9564 5.34933L4.24805 17.2084L5.43029 18.5323L14.9531 7.98617L21.6596 15.4546L30.9385 5.17855V9.4684H32.6151V2H25.8528V3.8671Z" fill="#2E2D29"/>
</svg>
