<svg width="48" height="48" viewBox="0 0 48 48" fill="none" xmlns="http://www.w3.org/2000/svg">
<g clip-path="url(#clip0_940_62)">
<path d="M24.9449 43.3694C24.9449 43.8909 24.5206 44.3142 24 44.3142C23.4794 44.3142 23.0551 43.8909 23.0551 43.3694C23.0551 42.8487 23.4794 42.4245 24 42.4245C24.5206 42.4245 24.9449 42.8487 24.9449 43.3694ZM7.52372 20.1253C7.00186 20.1253 6.57883 20.5483 6.57883 21.0702C6.57883 21.592 7.00186 22.015 7.52372 22.015H9.44882V31.4639C9.44882 31.9857 9.87184 32.4087 10.3937 32.4087C10.9156 32.4087 11.3386 31.9857 11.3386 31.4639V22.015H13.2637C13.7855 22.015 14.2086 21.592 14.2086 21.0702C14.2086 20.5483 13.7855 20.1253 13.2637 20.1253H7.52372ZM40.252 12.7552C42.4402 12.7552 44.2205 14.5354 44.2205 16.7237C44.2205 18.9119 42.4402 20.6922 40.252 20.6922C38.0637 20.6922 36.2835 18.9119 36.2835 16.7237C36.2835 14.5354 38.0637 12.7552 40.252 12.7552ZM38.1732 16.7237C38.1732 17.8699 39.1057 18.8024 40.252 18.8024C41.3982 18.8024 42.3307 17.8699 42.3307 16.7237C42.3307 15.5775 41.3982 14.645 40.252 14.645C39.1057 14.645 38.1732 15.5775 38.1732 16.7237ZM37.6063 44.3142H28.252C27.7105 44.3142 27.2732 43.8563 27.3092 43.3062C27.342 42.8039 27.7819 42.4245 28.2851 42.4245H36.6614V40.5347H29.6693C28.1037 40.5347 26.8346 39.2656 26.8346 37.7001V35.2434C26.8346 33.6778 28.1037 32.4087 29.6693 32.4087H36.6614V28.4402H23.622C23.1002 28.4402 22.6772 28.0172 22.6772 27.4953V9.92055C22.6772 9.39869 23.1002 8.97566 23.622 8.97566H36.6614V6.51897C36.6614 5.99711 36.2384 5.57409 35.7165 5.57409H12.2835C11.7616 5.57409 11.3386 5.99711 11.3386 6.51897V15.8733H19.8425C20.3644 15.8733 20.7874 16.2963 20.7874 16.8182V35.7158C20.7874 36.2377 20.3644 36.6607 19.8425 36.6607H11.3386V42.4245H19.7149C20.2181 42.4245 20.658 42.8039 20.6908 43.3062C20.7268 43.8563 20.2895 44.3142 19.748 44.3142H10.3937C9.87184 44.3142 9.44882 43.8912 9.44882 43.3694V36.6607H0.944882C0.423024 36.6607 0 36.2377 0 35.7158V16.8182C0 16.2963 0.423024 15.8733 0.944882 15.8733H9.44882V6.51897C9.44882 4.9534 10.7179 3.68433 12.2835 3.68433H35.7165C37.2821 3.68433 38.5512 4.9534 38.5512 6.51897V8.97566H47.0551C47.577 8.97566 48 9.39869 48 9.92055V27.4953C48 28.0172 47.577 28.4402 47.0551 28.4402H38.5512V32.4087H41.0079C42.5734 32.4087 43.8425 33.6778 43.8425 35.2434V37.7001C43.8425 39.2656 42.5734 40.5347 41.0079 40.5347H38.5512V43.3694C38.5512 43.8912 38.1282 44.3142 37.6063 44.3142ZM18.8976 17.7631H1.88976V34.7709H18.8976V17.7631ZM41.0079 34.2985H29.6693C29.1483 34.2985 28.7244 34.7224 28.7244 35.2434V37.7001C28.7244 38.2211 29.1483 38.645 29.6693 38.645H41.0079C41.5289 38.645 41.9528 38.2211 41.9528 37.7001V35.2434C41.9528 34.7224 41.5289 34.2985 41.0079 34.2985ZM24.5669 26.5505H39.2027L30.4797 18.3964C29.3942 17.3818 27.6936 17.3816 26.6083 18.3964L24.5669 20.3047V26.5505ZM46.1102 10.8654H24.5669V17.7178L25.3177 17.0159C27.1269 15.3248 29.9613 15.3249 31.7702 17.0159L41.97 26.5505H46.1102V10.8654Z" fill="#2E2D29"/>
</g>
<defs>
<clipPath id="clip0_940_62">
<rect width="48" height="48" fill="white"/>
</clipPath>
</defs>
</svg>
