<svg width="36" height="36" viewBox="0 0 36 36" fill="none" xmlns="http://www.w3.org/2000/svg">
<path d="M29.8337 10.2338L29.8336 10.2339L27.6617 13.9965V11.0122C27.6617 10.5869 27.3166 10.2417 26.8912 10.2417C26.4651 10.2417 26.1207 10.5869 26.1207 11.0122V16.665L19.0481 28.915C19.0481 28.9151 19.048 28.9152 19.0479 28.9153C18.9937 29.0085 18.9607 29.1119 18.9492 29.2183L18.4758 33.6091H3.39063V3.39111H26.1207V5.20264C26.1207 5.62791 26.4651 5.97315 26.8912 5.97315C27.3166 5.97315 27.6617 5.628 27.6617 5.20264V2.62061C27.6617 2.19525 27.3166 1.8501 26.8912 1.8501H2.62012C2.19403 1.8501 1.84961 2.19533 1.84961 2.62061V34.3796C1.84961 34.8049 2.19403 35.1501 2.62012 35.1501H26.8912C27.3166 35.1501 27.6617 34.805 27.6617 34.3796V25.3405L34.7462 13.07L34.7462 13.07C35.5276 11.716 35.0624 9.97799 33.7077 9.19596C32.3536 8.41391 30.6157 8.87984 29.8337 10.2338ZM23.9604 31.7516L26.1207 28.0102V33.6091H21.5292L23.7478 31.9882L23.7479 31.9882C23.8342 31.9249 23.9065 31.8442 23.9602 31.7521L23.9604 31.7516ZM33.4111 12.2994L33.411 12.2995L33.1043 12.8315L30.8614 11.5364L31.1682 11.0043C31.1682 11.0043 31.1682 11.0043 31.1682 11.0043C31.5249 10.3864 32.3192 10.1738 32.9372 10.5305C33.5559 10.8878 33.7683 11.6815 33.4111 12.2994ZM20.1208 32.7292L20.3546 30.5597L21.8831 31.4419L20.1208 32.7292ZM32.3338 14.1661L23.0112 30.3139L20.7676 29.0187L30.0909 12.871L32.3338 14.1661Z" fill="#2E2D29" stroke="#2E2D29" stroke-width="0.25"/>
<path d="M26.8916 7.33887C26.6879 7.33887 26.4903 7.42119 26.3468 7.56461C26.2034 7.70809 26.1211 7.90641 26.1211 8.10938C26.1211 8.31305 26.2034 8.51071 26.3468 8.65414C26.4903 8.79761 26.6886 8.87988 26.8916 8.87988C27.0946 8.87988 27.2929 8.79761 27.4364 8.65414C27.5798 8.51066 27.6621 8.31234 27.6621 8.10938C27.6621 7.90641 27.5798 7.70809 27.4364 7.56461C27.2929 7.42119 27.0953 7.33887 26.8916 7.33887Z" fill="#2E2D29" stroke="#2E2D29" stroke-width="0.25"/>
<path d="M21.2766 8.69238H8.23731C7.81122 8.69238 7.4668 9.03762 7.4668 9.46289C7.4668 9.88817 7.81122 10.2334 8.23731 10.2334H21.2766C21.7019 10.2334 22.0471 9.88825 22.0471 9.46289C22.0471 9.03753 21.7019 8.69238 21.2766 8.69238Z" fill="#2E2D29" stroke="#2E2D29" stroke-width="0.25"/>
<path d="M21.2766 12.3074H8.23731C7.81122 12.3074 7.4668 12.6526 7.4668 13.0779C7.4668 13.5032 7.81122 13.8484 8.23731 13.8484H21.2766C21.7019 13.8484 22.0471 13.5032 22.0471 13.0779C22.0471 12.6525 21.7019 12.3074 21.2766 12.3074Z" fill="#2E2D29" stroke="#2E2D29" stroke-width="0.25"/>
<path d="M21.2743 15.9221H16.4814C16.0554 15.9221 15.7109 16.2674 15.7109 16.6926C15.7109 17.1179 16.0554 17.4631 16.4814 17.4631H21.2743C21.6997 17.4631 22.0449 17.118 22.0449 16.6926C22.0449 16.2673 21.6997 15.9221 21.2743 15.9221Z" fill="#2E2D29" stroke="#2E2D29" stroke-width="0.25"/>
<path d="M22.0471 20.3076C22.0471 19.8823 21.7019 19.5371 21.2766 19.5371H8.23731C7.81122 19.5371 7.4668 19.8823 7.4668 20.3076C7.4668 20.7329 7.81122 21.0781 8.23731 21.0781H21.2766C21.7019 21.0781 22.0471 20.733 22.0471 20.3076Z" fill="#2E2D29" stroke="#2E2D29" stroke-width="0.25"/>
<path d="M19.2688 23.9224C19.2688 23.497 18.9236 23.1519 18.4983 23.1519H14.4639C14.0378 23.1519 13.6934 23.4971 13.6934 23.9224C13.6934 24.3476 14.0378 24.6929 14.4639 24.6929H18.4983C18.9236 24.6929 19.2688 24.3477 19.2688 23.9224Z" fill="#2E2D29" stroke="#2E2D29" stroke-width="0.25"/>
<path d="M8.23731 28.3076H13.9178C14.3431 28.3076 14.6883 27.9625 14.6883 27.5371C14.6883 27.1118 14.3431 26.7666 13.9178 26.7666H8.23731C7.81122 26.7666 7.4668 27.1118 7.4668 27.5371C7.4668 27.9624 7.81122 28.3076 8.23731 28.3076Z" fill="#2E2D29" stroke="#2E2D29" stroke-width="0.25"/>
<path d="M8.23731 17.4631H12.5403C12.9663 17.4631 13.3108 17.1179 13.3108 16.6926C13.3108 16.2674 12.9663 15.9221 12.5403 15.9221H8.23731C7.81122 15.9221 7.4668 16.2674 7.4668 16.6926C7.4668 17.1179 7.81122 17.4631 8.23731 17.4631Z" fill="#2E2D29" stroke="#2E2D29" stroke-width="0.25"/>
<path d="M8.23731 24.6929H11.5617C11.987 24.6929 12.3322 24.3477 12.3322 23.9224C12.3322 23.497 11.987 23.1519 11.5617 23.1519H8.23731C7.81122 23.1519 7.4668 23.4971 7.4668 23.9224C7.4668 24.3476 7.81122 24.6929 8.23731 24.6929Z" fill="#2E2D29" stroke="#2E2D29" stroke-width="0.25"/>
</svg>
