<svg width="26" height="26" viewBox="0 0 26 26" fill="none" xmlns="http://www.w3.org/2000/svg">
<path d="M11.8714 22.5488H15.8436C16.2558 22.5488 16.5902 22.2144 16.5902 21.8022C16.5902 21.3901 16.2558 21.0557 15.8436 21.0557H11.8714C11.1881 21.0557 10.6317 20.4993 10.6317 19.8161V17.83C10.6317 17.4179 10.2974 17.0835 9.88521 17.0835C9.47305 17.0835 9.13867 17.4179 9.13867 17.83V19.8161C9.13867 21.3226 10.3648 22.5488 11.8714 22.5488Z" fill="#2E2D29" stroke="#2E2D29" stroke-width="0.5"/>
<path d="M1.94185 12.6181H11.8726C12.2847 12.6181 12.6191 12.2837 12.6191 11.8715C12.6191 11.4594 12.2847 11.125 11.8726 11.125H1.94185C1.52969 11.125 1.19531 11.4594 1.19531 11.8715C1.19531 12.2837 1.52969 12.6181 1.94185 12.6181Z" fill="#2E2D29" stroke="#2E2D29" stroke-width="0.5"/>
<path d="M16.632 3.29758L16.6321 3.29755L22.588 1.31227C22.8045 1.23515 23.0457 1.19434 23.2922 1.19434C24.5257 1.19434 25.5284 2.19703 25.5284 3.43045V21.3054C25.5284 22.2668 24.9116 23.1186 23.9949 23.4235L16.632 3.29758ZM16.632 3.29758C15.7158 3.60336 15.0977 4.4538 15.0977 5.41656V23.2916C15.0977 24.525 16.1004 25.5277 17.3338 25.5277C17.5787 25.5277 17.8199 25.4867 18.039 25.4087L23.9948 23.4235L16.632 3.29758ZM23.0734 2.72421L23.0734 2.72423L23.0764 2.72317C23.1412 2.70064 23.2167 2.68739 23.2922 2.68739C23.7014 2.68739 24.0353 3.02135 24.0353 3.43045V21.3054C24.0353 21.6207 23.8311 21.9042 23.5226 22.0078C23.5226 22.0078 23.5225 22.0079 23.5225 22.0079L17.5547 23.9968L17.5547 23.9968L17.5509 23.9981C17.4843 24.0215 17.409 24.0346 17.3338 24.0346C16.9247 24.0346 16.5907 23.7007 16.5907 23.2916V5.41656C16.5907 5.09986 16.7943 4.81704 17.1037 4.71441L17.104 4.71429L23.0734 2.72421Z" fill="#2E2D29" stroke="#2E2D29" stroke-width="0.5"/>
<path d="M9.13867 5.91308C9.13867 6.32524 9.47305 6.65961 9.88521 6.65961C10.2974 6.65961 10.6317 6.32524 10.6317 5.91308V3.92697C10.6317 3.24379 11.1881 2.68739 11.8714 2.68739H23.2917C23.7038 2.68739 24.0382 2.35302 24.0382 1.94086C24.0382 1.52871 23.7038 1.19434 23.2917 1.19434H11.8714C10.3648 1.19434 9.13867 2.42047 9.13867 3.92697V5.91308Z" fill="#2E2D29" stroke="#2E2D29" stroke-width="0.5"/>
<path d="M7.37276 16.3714L7.37367 16.3723C7.51925 16.5164 7.71018 16.5896 7.90108 16.5896C8.09175 16.5896 8.28329 16.5165 8.42841 16.3714L12.4007 12.3992C12.692 12.1079 12.692 11.6348 12.4007 11.3435L8.42841 7.37129C8.13713 7.08001 7.66404 7.08001 7.37276 7.37129C7.08148 7.66257 7.08148 8.13566 7.37276 8.42694L7.37278 8.42696L10.8177 11.8709L7.37276 15.3157C7.08148 15.607 7.08148 16.0801 7.37276 16.3714Z" fill="#2E2D29" stroke="#2E2D29" stroke-width="0.5"/>
</svg>
