<svg width="46" height="46" viewBox="0 0 46 46" fill="none" xmlns="http://www.w3.org/2000/svg">
<path d="M25.5815 21.3405C25.7142 21.6001 25.9782 21.75 26.2512 21.75C26.3652 21.75 26.4822 21.7237 26.591 21.6683C26.6352 21.6458 31.0497 19.4033 33.2269 18.7155C33.6214 18.5903 33.8403 18.1688 33.7151 17.7743C33.5905 17.3798 33.1721 17.1601 32.7739 17.2846C30.4804 18.0099 26.096 20.2373 25.91 20.3318C25.541 20.5193 25.394 20.9709 25.5815 21.3405Z" fill="#2E2D29"/>
<path d="M26.2512 12.751C26.3652 12.751 26.4822 12.7247 26.591 12.6692C26.6352 12.6467 31.0497 10.4042 33.2268 9.71652C33.6214 9.59128 33.8403 9.16976 33.7151 8.77532C33.5905 8.38078 33.1721 8.16106 32.7739 8.2856C30.4804 9.01086 26.096 11.2383 25.91 11.3328C25.541 11.5203 25.394 11.9717 25.5815 12.3415C25.7142 12.6009 25.9782 12.751 26.2512 12.751Z" fill="#2E2D29"/>
<path d="M44.2492 11.2501C43.8344 11.2501 43.4992 11.5861 43.4992 12.0001V41.2495C43.4992 42.49 42.4897 43.4995 41.2493 43.4995H23.2496V41.7738C24.3431 41.3913 27.1915 40.4996 29.9995 40.4996C36.5326 40.4996 40.9688 41.9463 41.013 41.9613C41.2387 42.0362 41.4908 41.9988 41.688 41.8577C41.8837 41.7168 41.9992 41.4903 41.9992 41.2495V8.25023C41.9992 7.8985 41.7555 7.59396 41.4119 7.5182C41.4119 7.5182 40.824 7.38698 39.819 7.20242C39.4132 7.12745 39.021 7.39744 38.946 7.80393C38.871 8.21191 39.1402 8.60266 39.5475 8.67763C39.9308 8.74812 40.2517 8.81034 40.4992 8.85991V40.2528C38.7997 39.8073 35.0259 38.9996 29.9994 38.9996C26.7317 38.9996 23.5218 40.0728 22.5287 40.4366C21.646 40.0466 18.9776 38.9996 15.7496 38.9996C10.5837 38.9996 6.32827 39.8516 4.49983 40.2843V8.83065C5.99754 8.46239 10.421 7.50018 15.7496 7.50018C18.4841 7.50018 20.8292 8.35139 21.7495 8.73617V38.2496C21.7495 38.5196 21.895 38.7694 22.1297 38.9021C22.3645 39.0356 22.654 39.0318 22.8858 38.8924C22.96 38.8481 30.3909 34.4097 36.9862 32.2115C37.2929 32.1087 37.4992 31.823 37.4992 31.4998V0.750313C37.4992 0.504312 37.3785 0.274043 37.176 0.13386C36.975 -0.00641026 36.717 -0.0386655 36.4852 0.0476414C30.4846 2.2983 24.4128 6.07673 24.352 6.11426C24.001 6.33399 23.8937 6.79672 24.1135 7.14775C24.3325 7.49878 24.7952 7.606 25.147 7.38628C25.2024 7.35104 30.4846 4.06461 35.9992 1.8469V30.9628C30.8798 32.7418 25.5346 35.6465 23.2494 36.9469V8.25023C23.2494 7.966 23.089 7.70646 22.8347 7.57902C22.7057 7.5153 19.6323 6.00027 15.7496 6.00027C8.97276 6.00027 3.76261 7.46652 3.54359 7.52945C3.22183 7.62094 2.99983 7.91572 2.99983 8.25023V41.2496C2.99983 41.4844 3.11083 41.7064 3.29759 41.8481C3.4296 41.9479 3.58859 41.9997 3.74987 41.9997C3.81886 41.9997 3.88786 41.9899 3.95535 41.9704C4.00712 41.9562 9.19327 40.4997 15.7496 40.4997C18.4916 40.4997 20.8345 41.3532 21.7495 41.7364V43.4996H3.74987C2.50941 43.4996 1.49991 42.4901 1.49991 41.2496V12.0002C1.49991 11.5862 1.16391 11.2502 0.749956 11.2502C0.335999 11.2502 0 11.5862 0 12.0002V41.2496C0 43.3173 1.68219 44.9996 3.74996 44.9996H41.2493C43.3169 44.9996 44.9992 43.3174 44.9992 41.2496V12.0002C44.9991 11.5861 44.6639 11.2501 44.2492 11.2501Z" fill="#2E2D29"/>
<path d="M25.5815 16.8413C25.7142 17.1008 25.9782 17.2507 26.2512 17.2507C26.3652 17.2507 26.4822 17.2244 26.591 17.169C26.6352 17.1465 31.0497 14.904 33.2269 14.2163C33.6214 14.091 33.8403 13.6695 33.7151 13.2751C33.5905 12.8805 33.1721 12.6608 32.7739 12.7854C30.4804 13.5106 26.096 15.7381 25.91 15.8326C25.541 16.02 25.394 16.4716 25.5815 16.8413Z" fill="#2E2D29"/>
<path d="M25.5815 25.8408C25.7142 26.1003 25.9782 26.2502 26.2512 26.2502C26.3652 26.2502 26.4822 26.224 26.591 26.1685C26.6352 26.146 31.0497 23.9035 33.2269 23.2158C33.6214 23.0905 33.8403 22.669 33.7151 22.2746C33.5905 21.88 33.1721 21.6603 32.7739 21.7849C30.4804 22.5101 26.096 24.7376 25.91 24.8321C25.541 25.0195 25.394 25.4711 25.5815 25.8408Z" fill="#2E2D29"/>
<path d="M18.173 13.9194C13.5418 12.8326 8.27913 14.2171 8.05792 14.2764C7.6582 14.3836 7.42046 14.7946 7.52768 15.1951C7.61768 15.5303 7.92063 15.7508 8.25145 15.7508C8.31596 15.7508 8.38117 15.7425 8.44647 15.7253C8.49675 15.7111 13.5636 14.3783 17.8311 15.3796C18.2323 15.4733 18.6381 15.2235 18.7326 14.82C18.8269 14.4173 18.5765 14.0138 18.173 13.9194Z" fill="#2E2D29"/>
<path d="M18.173 18.4193C13.5418 17.3333 8.27913 18.717 8.05792 18.7763C7.6582 18.8835 7.42046 19.2945 7.52768 19.695C7.61768 20.0302 7.92063 20.2507 8.25145 20.2507C8.31596 20.2507 8.38117 20.2424 8.44647 20.2252C8.49675 20.211 13.5636 18.8782 17.8311 19.8794C18.2323 19.9732 18.6381 19.7234 18.7326 19.3199C18.8269 18.9172 18.5765 18.5137 18.173 18.4193Z" fill="#2E2D29"/>
<path d="M25.5815 30.3408C25.7142 30.6003 25.9782 30.7502 26.2512 30.7502C26.3652 30.7502 26.4822 30.724 26.591 30.6685C26.6352 30.646 31.0497 28.4035 33.2269 27.7158C33.6214 27.5905 33.8403 27.169 33.7151 26.7746C33.5905 26.3801 33.1721 26.1603 32.7739 26.2849C30.4804 27.0101 26.096 29.2376 25.91 29.3321C25.541 29.5195 25.394 29.9711 25.5815 30.3408Z" fill="#2E2D29"/>
<path d="M18.173 22.9192C13.5418 21.8332 8.27913 23.2161 8.05792 23.2762C7.6582 23.3834 7.42046 23.7944 7.52768 24.1949C7.61768 24.5301 7.92063 24.7514 8.25145 24.7514C8.31596 24.7514 8.38117 24.7424 8.44647 24.7251C8.49675 24.7109 13.5636 23.3781 17.8311 24.3793C18.2323 24.4731 18.6381 24.2233 18.7326 23.8198C18.8269 23.4171 18.5765 23.0136 18.173 22.9192Z" fill="#2E2D29"/>
<path d="M18.173 31.9184C13.5418 30.8316 8.27913 32.2162 8.05792 32.2754C7.6582 32.3826 7.42046 32.7937 7.52768 33.1941C7.61768 33.5293 7.92063 33.7506 8.25145 33.7506C8.31596 33.7506 8.38117 33.7416 8.44647 33.7243C8.49675 33.7101 13.5636 32.3773 17.8311 33.3786C18.2323 33.4716 18.6381 33.2226 18.7326 32.8191C18.8269 32.4164 18.5765 32.0129 18.173 31.9184Z" fill="#2E2D29"/>
<path d="M18.173 27.4188C13.5418 26.332 8.27913 27.7157 8.05792 27.7758C7.6582 27.883 7.42046 28.294 7.52768 28.6945C7.61768 29.0297 7.92063 29.251 8.25145 29.251C8.31596 29.251 8.38117 29.242 8.44647 29.2247C8.49675 29.2105 13.5636 27.8777 17.8311 28.8789C18.2323 28.9727 18.6381 28.7229 18.7326 28.3194C18.8269 27.9167 18.5765 27.5132 18.173 27.4188Z" fill="#2E2D29"/>
</svg>
