<svg width="36" height="36" viewBox="0 0 36 36" fill="none" xmlns="http://www.w3.org/2000/svg">
<path d="M14.7785 21.7782L14.779 21.7781C15.1675 21.6793 15.5788 21.8632 15.7601 22.2258L16.1104 22.9258L16.6848 22.3515C17.0201 22.0162 17.5633 22.0161 17.8985 22.3515C17.8986 22.3515 17.8986 22.3515 17.8986 22.3515L28.9804 33.4334H33.4334V28.9804L30.8515 26.3985C30.6906 26.2377 30.6 26.0197 30.6 25.7916V25.2333H30.0416C29.8137 25.2333 29.5956 25.1427 29.4347 24.9818L28.0181 23.5652C27.8572 23.4043 27.7666 23.1863 27.7666 22.9583V22.4H27.2083C26.9803 22.4 26.7623 22.3094 26.6014 22.1485L25.1847 20.7319C25.0239 20.571 24.9333 20.3531 24.9333 20.125V19.5666H24.375C24.147 19.5666 23.929 19.4761 23.7681 19.3152L22.3515 17.8985C22.0162 17.5633 22.0161 17.02 22.3515 16.6848L22.9258 16.1104L22.2258 15.7601C22.2258 15.7601 22.2258 15.7601 22.2258 15.7601C21.8637 15.5791 21.6776 15.1701 21.7782 14.7786L21.7782 14.7786C21.9918 13.9486 22.1 13.1263 22.1 12.3334C22.1 6.94804 17.7186 2.56671 12.3334 2.56671C6.94811 2.56671 2.56672 6.94811 2.56672 12.3334C2.56665 18.5149 8.33436 23.4376 14.7785 21.7782ZM12.3334 0.85C18.6653 0.85 23.8167 6.00142 23.8167 12.3334C23.8167 13.0517 23.7424 13.7871 23.5959 14.5257L24.759 15.1072C24.759 15.1072 24.759 15.1072 24.759 15.1072C25.0055 15.2304 25.178 15.4651 25.2224 15.7374C25.2669 16.01 25.177 16.2867 24.9819 16.4818L24.1721 17.2916L24.7304 17.85H25.7917C26.2661 17.85 26.6501 18.234 26.6501 18.7084V19.7696L27.5638 20.6834H28.625C29.0994 20.6834 29.4834 21.0673 29.4834 21.5417V22.603L30.3971 23.5166H31.4584C31.9327 23.5166 32.3167 23.9006 32.3167 24.375V25.4363L34.8985 28.0181C35.0594 28.179 35.15 28.3969 35.15 28.625V34.2916C35.15 34.766 34.766 35.15 34.2916 35.15H28.625C28.397 35.15 28.179 35.0594 28.0181 34.8985L17.2916 24.1721L16.4821 24.9817C16.288 25.1766 16.0105 25.2685 15.7369 25.2224C15.4648 25.1778 15.2304 25.0053 15.1072 24.759L14.5257 23.5959C7.26788 25.0366 0.849998 19.3812 0.849998 12.3334C0.849998 6.00142 6.00135 0.85 12.3334 0.85Z" fill="#8C1515" stroke="#8C1515" stroke-width="0.3"/>
<path d="M8.79039 5.1C10.826 5.1 12.482 6.75606 12.482 8.79165C12.482 10.8272 10.826 12.4833 8.79039 12.4833C6.75481 12.4833 5.09874 10.8273 5.09874 8.79165C5.09874 6.75599 6.75481 5.1 8.79039 5.1ZM8.79039 10.7666C9.87935 10.7666 10.7654 9.88061 10.7654 8.79165C10.7654 7.70268 9.87935 6.81664 8.79039 6.81664C7.70143 6.81664 6.81539 7.70268 6.81539 8.79165C6.81539 9.88061 7.70143 10.7666 8.79039 10.7666Z" fill="#8C1515" stroke="#8C1515" stroke-width="0.3"/>
<path d="M20.7319 19.5184L20.7319 19.5184L30.6485 29.4351C30.9838 29.7704 30.9838 30.3136 30.6485 30.6489C30.481 30.8164 30.261 30.9003 30.0416 30.9003C29.8222 30.9003 29.6024 30.8164 29.4348 30.6489L29.4347 30.6489L19.5181 20.7322C19.1828 20.3969 19.1828 19.8537 19.5181 19.5185C19.8534 19.1832 20.3966 19.1832 20.7319 19.5184Z" fill="#8C1515" stroke="#8C1515" stroke-width="0.3"/>
</svg>
