<svg width="48" height="48" viewBox="0 0 48 48" fill="none" xmlns="http://www.w3.org/2000/svg">
<path d="M40.4217 16.4196C40.4217 7.35131 33.0704 0 24.0021 0C14.9338 0 7.58249 7.35131 7.58249 16.4196C5.23813 16.7115 3.02148 18.244 3.02148 21.8016V30.3763C3.02148 34.39 5.83106 35.8495 8.49469 35.8495H11.1401C11.6438 35.8495 12.0523 35.441 12.0523 34.9373V17.2771C12.0523 16.7733 11.6438 16.3649 11.1401 16.3649H9.40689C9.40689 8.30422 15.9414 1.76967 24.0021 1.76967C32.0628 1.76967 38.5973 8.30422 38.5973 16.3649H36.8641C36.3604 16.3649 35.9519 16.7733 35.9519 17.2771V34.9099C35.9519 35.4137 36.3604 35.8221 36.8641 35.8221H38.5973C38.3419 42.0889 35.3316 43.5576 29.3202 43.8221V43.2109C29.3202 42.2033 28.5035 41.3865 27.4958 41.3865H21.7581C20.7504 41.3865 19.9337 42.2033 19.9337 43.2109V46.1756C19.9337 47.1832 20.7504 48 21.7581 48H27.5141C28.5217 48 29.3385 47.1832 29.3385 46.1756V45.6465C35.1218 45.382 40.1207 44.187 40.4217 35.7674C42.7661 35.4755 44.9827 33.943 44.9827 30.3854V21.8107C44.9827 18.2349 42.7752 16.7115 40.4217 16.4196ZM10.2279 18.1254V33.9977H8.44908C7.09902 33.9977 4.80028 33.5234 4.80028 30.3489V21.7742C4.80028 18.6271 7.07166 18.1254 8.44908 18.1254H10.2279ZM27.5141 44.7982V46.1847H21.7581V43.2201H27.5141V44.7982ZM43.1583 30.3763C43.1583 33.5234 40.8869 34.0251 39.5095 34.0251H37.7763V18.1893H39.5551C40.9052 18.1893 43.2039 18.6636 43.2039 21.8381L43.1583 30.3763Z" fill="#8C1515"/>
</svg>
