<svg width="48" height="48" viewBox="0 0 48 48" fill="none" xmlns="http://www.w3.org/2000/svg">
<path d="M41.4383 7.33523H38.6761V5.14613C38.6761 4.51576 38.1603 4 37.53 4C36.8996 4 36.3838 4.51576 36.3838 5.14613V7.33523H25.1518V5.14613C25.1518 4.51576 24.636 4 24.0057 4C23.3753 4 22.8595 4.51576 22.8595 5.14613V7.33523H11.5129V5.14613C11.5129 4.51576 10.9971 4 10.3667 4C9.73637 4 9.22061 4.51576 9.22061 5.14613V7.33523H6.57305C4.05157 7.33523 2 9.45557 2 11.977V38.6245C2 41.1575 4.04011 43.209 6.57305 43.209H41.4268C43.9598 43.209 45.9999 41.1575 45.9999 38.636V11.977C46.0113 9.45557 43.9598 7.33523 41.4383 7.33523ZM43.7191 38.6245C43.7191 39.8853 42.7105 40.9053 41.4497 40.9168H41.4383H6.57305C5.31231 40.9168 4.29226 39.8967 4.29226 38.636V38.6245V11.977C4.29226 10.7048 5.31231 9.62749 6.57305 9.62749H9.22061V11.2894C9.22061 11.9197 9.73637 12.4355 10.3667 12.4355C10.9971 12.4355 11.5129 11.9197 11.5129 11.2894V9.62749H22.8595V11.2894C22.8595 11.9197 23.3753 12.4355 24.0057 12.4355C24.636 12.4355 25.1518 11.9197 25.1518 11.2894V9.62749H36.3838V11.2894C36.3838 11.9197 36.8996 12.4355 37.53 12.4355C38.1603 12.4355 38.6761 11.9197 38.6761 11.2894V9.62749H41.4383C42.7105 9.62749 43.7191 10.7163 43.7191 11.977V38.6245Z" fill="#8C1515"/>
<path d="M20.9917 17.0767H18.986C18.3556 17.0767 17.8398 17.5924 17.8398 18.2228C17.8398 18.8532 18.3556 19.3689 18.986 19.3689H20.9917C21.6221 19.3689 22.1378 18.8532 22.1378 18.2228C22.1378 17.5924 21.6221 17.0767 20.9917 17.0767Z" fill="#8C1515"/>
<path d="M28.9702 17.0767H26.9645C26.3341 17.0767 25.8184 17.5924 25.8184 18.2228C25.8184 18.8532 26.3341 19.3689 26.9645 19.3689H28.9702C29.6006 19.3689 30.1163 18.8532 30.1163 18.2228C30.1163 17.5924 29.612 17.0767 28.9702 17.0767Z" fill="#8C1515"/>
<path d="M37.0132 17.0767H35.0075C34.3771 17.0767 33.8613 17.5924 33.8613 18.2228C33.8613 18.8532 34.3771 19.3689 35.0075 19.3689H37.0132C37.6436 19.3689 38.1593 18.8532 38.1593 18.2228C38.1593 17.5924 37.6436 17.0767 37.0132 17.0767Z" fill="#8C1515"/>
<path d="M20.9917 24.9858H18.986C18.3556 24.9858 17.8398 25.5016 17.8398 26.132C17.8398 26.7623 18.3556 27.2781 18.986 27.2781H20.9917C21.6221 27.2781 22.1378 26.7623 22.1378 26.132C22.1378 25.5016 21.6221 24.9858 20.9917 24.9858Z" fill="#8C1515"/>
<path d="M12.9563 24.9858H10.9391C10.3087 24.9858 9.79297 25.5016 9.79297 26.132C9.79297 26.7623 10.3087 27.2781 10.9391 27.2781H12.9448C13.5752 27.2781 14.0909 26.7623 14.0909 26.132C14.0909 25.5016 13.5867 24.9858 12.9563 24.9858Z" fill="#8C1515"/>
<path d="M28.9663 24.9858H26.9606C26.3302 24.9858 25.8145 25.5016 25.8145 26.132C25.8145 26.7623 26.3302 27.2781 26.9606 27.2781H28.9663C29.5967 27.2781 30.1124 26.7623 30.1124 26.132C30.1124 25.5016 29.6081 24.9858 28.9663 24.9858Z" fill="#8C1515"/>
<path d="M37.0132 24.9858H35.0075C34.3771 24.9858 33.8613 25.5016 33.8613 26.132C33.8613 26.7623 34.3771 27.2781 35.0075 27.2781H37.0132C37.6436 27.2781 38.1593 26.7623 38.1593 26.132C38.1593 25.5016 37.6436 24.9858 37.0132 24.9858Z" fill="#8C1515"/>
<path d="M20.9917 32.7788H18.986C18.3556 32.7788 17.8398 33.2946 17.8398 33.9249C17.8398 34.5553 18.3556 35.0711 18.986 35.0711H20.9917C21.6221 35.0711 22.1378 34.5553 22.1378 33.9249C22.1378 33.2946 21.6221 32.7788 20.9917 32.7788Z" fill="#8C1515"/>
<path d="M12.9563 32.7788H10.9391C10.3087 32.7788 9.79297 33.2946 9.79297 33.9249C9.79297 34.5553 10.3087 35.0711 10.9391 35.0711H12.9448C13.5752 35.0711 14.0909 34.5553 14.0909 33.9249C14.0909 33.2946 13.5867 32.7788 12.9563 32.7788Z" fill="#8C1515"/>
<path d="M28.9702 32.7788H26.9645C26.3341 32.7788 25.8184 33.2946 25.8184 33.9249C25.8184 34.5553 26.3341 35.0711 26.9645 35.0711H28.9702C29.6006 35.0711 30.1163 34.5553 30.1163 33.9249C30.1163 33.2946 29.612 32.7788 28.9702 32.7788Z" fill="#8C1515"/>
</svg>
