<svg width="48" height="48" viewBox="0 0 48 48" fill="none" xmlns="http://www.w3.org/2000/svg">
<path d="M41.1763 17.603H34.4699V42.6636H32.2344V27.5609H25.5279V42.6636H23.2924V22.582H16.5859V42.6636H14.3505V30.0503H7.64399V42.6636H5.33398V45.1531H43.4863V42.6636H41.1763V17.603ZM36.7053 20.0925H38.9408V42.6636H36.7053V20.0925ZM27.7634 30.0503H29.9989V42.6636H27.7634V30.0503ZM18.8214 25.0714H21.0569V42.6636H18.8214V25.0714ZM9.87948 32.5398H12.115V42.6636H9.87948V32.5398Z" fill="#8C1515"/>
<path d="M34.4703 5.15597H39.66L28.8838 17.0901L19.9418 7.13227L5.66406 22.9444L7.24038 24.7096L19.9375 10.6481L28.8795 20.6059L41.2513 6.90457V12.6244H43.4868V2.6665H34.4703V5.15597Z" fill="#8C1515"/>
</svg>
