<svg width="36" height="36" viewBox="0 0 36 36" fill="none" xmlns="http://www.w3.org/2000/svg">
<path d="M15.9677 30.9337C19.2886 30.933 22.5138 29.8214 25.1297 27.7757L33.3545 36L36 33.3546L27.7753 25.1303C29.8221 22.5142 30.9345 19.2884 30.9353 15.9669C30.9353 7.71451 24.2204 1 15.9677 1C7.71487 1 1 7.71451 1 15.9669C1 24.2192 7.71487 30.9337 15.9677 30.9337ZM15.9677 4.74171C22.1587 4.74171 27.1934 9.77619 27.1934 15.9669C27.1934 22.1575 22.1587 27.192 15.9677 27.192C9.77666 27.192 4.74191 22.1575 4.74191 15.9669C4.74191 9.77619 9.77666 4.74171 15.9677 4.74171Z" fill="#2E2D29"/>
</svg>
