<svg width="26" height="26" viewBox="0 0 26 26" fill="none" xmlns="http://www.w3.org/2000/svg">
<path d="M20.332 25.4142H5.88759C5.40887 25.4137 4.9499 25.2233 4.61139 24.8848C4.27289 24.5464 4.08251 24.0874 4.08203 23.6087V1.94316C4.08251 1.46447 4.27289 1.00552 4.61139 0.667031C4.9499 0.328545 5.40887 0.138173 5.88759 0.137695H20.332C20.8107 0.138173 21.2697 0.328545 21.6082 0.667031C21.9467 1.00552 22.1371 1.46447 22.1376 1.94316V16.9447L17.6237 14.6879L13.1098 16.9447V1.94316H5.88759V23.6087H20.332V19.9978H22.1376V23.6087C22.1369 24.0873 21.9464 24.5461 21.608 24.8846C21.2695 25.223 20.8107 25.4135 20.332 25.4142ZM17.6237 12.6694L20.332 14.0235V1.94316H14.9154V14.0235L17.6237 12.6694Z" fill="#8C1515"/>
</svg>
