<svg width="24" height="24" viewBox="0 0 24 24" fill="none" xmlns="http://www.w3.org/2000/svg">
<path d="M16.1132 7.44774C15.8147 7.4401 15.5246 7.34739 15.2772 7.1802C15.1543 7.09704 15.0147 7.04131 14.8684 7.01666M16.1132 7.44774L14.8684 7.01666M16.1132 7.44774C16.2074 7.44739 16.3014 7.43871 16.3941 7.42204L16.1132 7.44774ZM14.8684 7.01666L14.8601 7.06596C14.8737 7.06826 14.8873 7.07085 14.9008 7.07371M14.8684 7.01666L14.9157 7.03283C14.911 7.04656 14.906 7.06019 14.9008 7.07371M14.9008 7.07371C14.8765 7.13673 14.8464 7.19734 14.8111 7.25484C18.0572 8.15852 20.3097 11.1134 20.3158 14.4887V14.4887V20.8888V20.8888C20.3146 21.8978 19.4969 22.7153 18.4881 22.7166H18.488H5.68794H5.68788C4.6789 22.7153 3.86123 21.8978 3.86016 20.8888L3.86016 20.8888L3.86016 14.4887V14.4887C3.86606 11.1137 6.11822 8.15906 9.36386 7.25508" fill="#8C1515" stroke="#8C1515" stroke-width="0.1"/>
<path d="M9.66582 17.049L9.63046 17.0843L9.66582 17.1197L10.1688 17.6226L10.2041 17.658L10.2395 17.6226L14.5062 13.3558L14.5415 13.3204L14.5062 13.2851L14.0034 12.7823L13.968 12.7469L13.9327 12.7823L9.66582 17.049Z" fill="#8C1515" stroke="#8C1515" stroke-width="0.1"/>
<path d="M13.51 15.5071C12.8932 15.5071 12.3934 16.0071 12.3934 16.6238C12.3934 17.2405 12.8932 17.7405 13.51 17.7405C14.1267 17.7405 14.6267 17.2405 14.6267 16.6238C14.6267 16.0071 14.1267 15.5071 13.51 15.5071ZM13.51 16.9294C13.3411 16.9294 13.2045 16.7926 13.2045 16.6238C13.2045 16.455 13.3411 16.3182 13.51 16.3182C13.6788 16.3182 13.8156 16.4551 13.8156 16.6238C13.8156 16.7925 13.6788 16.9294 13.51 16.9294Z" fill="#8C1515" stroke="#8C1515" stroke-width="0.1"/>
<path d="M10.6643 14.8955C11.281 14.8955 11.781 14.3955 11.781 13.7788C11.781 13.1622 11.281 12.6622 10.6643 12.6622C10.0475 12.6622 9.54766 13.1622 9.54766 13.7788C9.54766 14.3955 10.0475 14.8955 10.6643 14.8955ZM10.6643 13.4733C10.8331 13.4733 10.9699 13.6101 10.9699 13.7788C10.9699 13.9476 10.8331 14.0844 10.6643 14.0844C10.4954 14.0844 10.3588 13.9476 10.3588 13.7788C10.3588 13.6101 10.4954 13.4733 10.6643 13.4733Z" fill="#8C1515" stroke="#8C1515" stroke-width="0.1"/>
<path d="M12.0892 10.1739H12.0891C9.3122 10.1739 7.06133 12.4249 7.06133 15.2017C7.06133 17.9784 9.3122 20.2295 12.0891 20.2295C14.8659 20.2295 17.1169 17.9784 17.1169 15.2017V15.2016C17.114 12.4261 14.8647 10.1769 12.0892 10.1739ZM12.0891 19.4184C9.76028 19.4183 7.87244 17.5305 7.87244 15.2017C7.87244 12.8729 9.76031 10.985 12.0891 10.985C14.4178 10.985 16.3058 12.8728 16.3058 15.2016C16.3032 17.5294 14.4167 19.4158 12.0891 19.4184Z" fill="#8C1515" stroke="#8C1515" stroke-width="0.1"/>
</svg>
