<svg width="48" height="48" viewBox="0 0 48 48" fill="none" xmlns="http://www.w3.org/2000/svg">
<g clip-path="url(#clip0_934_1403)">
<path d="M24 38.0999H24.0001C31.7838 38.0916 38.0916 31.7838 38.0999 24.0001V24C38.0999 16.2127 31.7872 9.9 24 9.9C16.2127 9.9 9.9 16.2128 9.9 24C9.9 31.7871 16.2127 38.0999 24 38.0999ZM24 35.9C17.4278 35.9 12.1 30.5721 12.1 24C12.1 17.4279 17.4278 12.1 23.9999 12.1C30.5692 12.107 35.8929 17.4308 35.9 24.0001C35.8999 30.5722 30.5721 35.9 24 35.9Z" fill="#2E2D29" stroke="#2E2D29" stroke-width="0.2"/>
<mask id="path-2-outside-1_934_1403" maskUnits="userSpaceOnUse" x="-1" y="-1" width="50" height="50" fill="black">
<rect fill="white" x="-1" y="-1" width="50" height="50"/>
<path d="M46 19H42.319C41.8982 17.4564 41.2822 15.9728 40.486 14.5851L43.092 11.9791C43.0922 11.9789 43.0924 11.9787 43.0926 11.9785C43.8735 11.1973 43.8732 9.93103 43.092 9.15009L38.849 4.90809C38.0679 4.12734 36.8019 4.12734 36.021 4.90809L33.415 7.51406C32.027 6.71841 30.5435 6.10247 29.0001 5.68106V1.99997C29 0.895406 28.1046 0 27 0H21C19.8954 0 19 0.895406 19 1.99997V5.68097C17.4566 6.10237 15.973 6.71831 14.5851 7.51397L11.9791 4.908C11.1981 4.12725 9.93206 4.12725 9.15112 4.908L4.908 9.15C4.90781 9.15019 4.90762 9.15037 4.90744 9.15056C4.12659 9.93178 4.12678 11.1981 4.908 11.979L7.51397 14.585C6.71775 15.9727 6.10181 17.4563 5.68097 18.9999H1.99997C0.895406 19 0 19.8954 0 21V27C0 28.1046 0.895406 29 1.99997 29H5.68097C6.10181 30.5436 6.71775 32.0272 7.51397 33.4149L4.908 36.0209C4.90781 36.0211 4.90762 36.0213 4.90744 36.0215C4.12659 36.8027 4.12678 38.069 4.908 38.8499L9.15103 43.0919C9.93206 43.8727 11.1981 43.8727 11.979 43.0919L14.585 40.4859C15.973 41.2816 17.4565 41.8975 18.9999 42.3189V45.9999C18.9999 47.1045 19.8953 47.9999 20.9999 47.9999H26.9999C28.1045 47.9999 28.9999 47.1045 28.9999 45.9999V42.3189C30.5433 41.8975 32.0269 41.2816 33.4148 40.4859L36.0208 43.0919C36.8018 43.8727 38.0678 43.8727 38.8488 43.0919L43.0918 38.8499C43.092 38.8497 43.0922 38.8495 43.0924 38.8493C43.8733 38.0681 43.873 36.8018 43.0918 36.0209L40.4858 33.4149C41.2821 32.0272 41.898 30.5436 42.3188 29H45.9998C47.1044 29 47.9998 28.1046 47.9998 27V21C48 19.8954 47.1046 19 46 19ZM46 27H41.539C41.072 26.9995 40.6667 27.3225 40.563 27.778C40.1394 29.6421 39.4012 31.4202 38.38 33.036C38.1314 33.4313 38.1895 33.946 38.52 34.276L41.678 37.4361L37.4349 41.6781L34.2759 38.5201C33.9461 38.1901 33.432 38.1321 33.0369 38.3801C31.4208 39.4008 29.6427 40.139 27.779 40.5631C27.3234 40.6663 27.0001 41.071 27 41.5381V46.0001H21V41.5381C20.9999 41.071 20.6765 40.6663 20.221 40.5631C18.3572 40.139 16.5791 39.4008 14.9631 38.3801C14.8037 38.2801 14.6193 38.227 14.431 38.2271C14.1658 38.2272 13.9116 38.3326 13.7241 38.5201L10.5651 41.6781L6.32203 37.435L9.48 34.276C9.81047 33.9461 9.86859 33.4313 9.61997 33.036C8.59875 31.4201 7.86047 29.642 7.437 27.778C7.33331 27.3226 6.92812 26.9996 6.46097 27H1.99997V21H6.46097C6.92803 21.0005 7.33331 20.6775 7.437 20.222C7.86056 18.3579 8.59875 16.5798 9.61997 14.964C9.86859 14.5687 9.81047 14.054 9.48 13.724L6.32203 10.5639L10.5651 6.32194L13.7241 9.47991C14.0539 9.80991 14.568 9.86794 14.9631 9.61987C16.579 8.59912 18.3572 7.86122 20.221 7.43784C20.6768 7.33453 21.0004 6.92925 21 6.46181V1.99997H27V6.462C26.9996 6.92944 27.3232 7.33472 27.779 7.43803C29.6429 7.86131 31.421 8.59922 33.0369 9.62006C33.432 9.86812 33.9461 9.81 34.2759 9.48009L37.4349 6.32212L41.678 10.5652L38.52 13.7242C38.1895 14.0541 38.1314 14.5688 38.38 14.9642C39.4012 16.5801 40.1395 18.3582 40.563 20.2222C40.6667 20.6776 41.0719 21.0006 41.539 21.0002H46V27Z"/>
</mask>
<path d="M46 19H42.319C41.8982 17.4564 41.2822 15.9728 40.486 14.5851L43.092 11.9791C43.0922 11.9789 43.0924 11.9787 43.0926 11.9785C43.8735 11.1973 43.8732 9.93103 43.092 9.15009L38.849 4.90809C38.0679 4.12734 36.8019 4.12734 36.021 4.90809L33.415 7.51406C32.027 6.71841 30.5435 6.10247 29.0001 5.68106V1.99997C29 0.895406 28.1046 0 27 0H21C19.8954 0 19 0.895406 19 1.99997V5.68097C17.4566 6.10237 15.973 6.71831 14.5851 7.51397L11.9791 4.908C11.1981 4.12725 9.93206 4.12725 9.15112 4.908L4.908 9.15C4.90781 9.15019 4.90762 9.15037 4.90744 9.15056C4.12659 9.93178 4.12678 11.1981 4.908 11.979L7.51397 14.585C6.71775 15.9727 6.10181 17.4563 5.68097 18.9999H1.99997C0.895406 19 0 19.8954 0 21V27C0 28.1046 0.895406 29 1.99997 29H5.68097C6.10181 30.5436 6.71775 32.0272 7.51397 33.4149L4.908 36.0209C4.90781 36.0211 4.90762 36.0213 4.90744 36.0215C4.12659 36.8027 4.12678 38.069 4.908 38.8499L9.15103 43.0919C9.93206 43.8727 11.1981 43.8727 11.979 43.0919L14.585 40.4859C15.973 41.2816 17.4565 41.8975 18.9999 42.3189V45.9999C18.9999 47.1045 19.8953 47.9999 20.9999 47.9999H26.9999C28.1045 47.9999 28.9999 47.1045 28.9999 45.9999V42.3189C30.5433 41.8975 32.0269 41.2816 33.4148 40.4859L36.0208 43.0919C36.8018 43.8727 38.0678 43.8727 38.8488 43.0919L43.0918 38.8499C43.092 38.8497 43.0922 38.8495 43.0924 38.8493C43.8733 38.0681 43.873 36.8018 43.0918 36.0209L40.4858 33.4149C41.2821 32.0272 41.898 30.5436 42.3188 29H45.9998C47.1044 29 47.9998 28.1046 47.9998 27V21C48 19.8954 47.1046 19 46 19ZM46 27H41.539C41.072 26.9995 40.6667 27.3225 40.563 27.778C40.1394 29.6421 39.4012 31.4202 38.38 33.036C38.1314 33.4313 38.1895 33.946 38.52 34.276L41.678 37.4361L37.4349 41.6781L34.2759 38.5201C33.9461 38.1901 33.432 38.1321 33.0369 38.3801C31.4208 39.4008 29.6427 40.139 27.779 40.5631C27.3234 40.6663 27.0001 41.071 27 41.5381V46.0001H21V41.5381C20.9999 41.071 20.6765 40.6663 20.221 40.5631C18.3572 40.139 16.5791 39.4008 14.9631 38.3801C14.8037 38.2801 14.6193 38.227 14.431 38.2271C14.1658 38.2272 13.9116 38.3326 13.7241 38.5201L10.5651 41.6781L6.32203 37.435L9.48 34.276C9.81047 33.9461 9.86859 33.4313 9.61997 33.036C8.59875 31.4201 7.86047 29.642 7.437 27.778C7.33331 27.3226 6.92812 26.9996 6.46097 27H1.99997V21H6.46097C6.92803 21.0005 7.33331 20.6775 7.437 20.222C7.86056 18.3579 8.59875 16.5798 9.61997 14.964C9.86859 14.5687 9.81047 14.054 9.48 13.724L6.32203 10.5639L10.5651 6.32194L13.7241 9.47991C14.0539 9.80991 14.568 9.86794 14.9631 9.61987C16.579 8.59912 18.3572 7.86122 20.221 7.43784C20.6768 7.33453 21.0004 6.92925 21 6.46181V1.99997H27V6.462C26.9996 6.92944 27.3232 7.33472 27.779 7.43803C29.6429 7.86131 31.421 8.59922 33.0369 9.62006C33.432 9.86812 33.9461 9.81 34.2759 9.48009L37.4349 6.32212L41.678 10.5652L38.52 13.7242C38.1895 14.0541 38.1314 14.5688 38.38 14.9642C39.4012 16.5801 40.1395 18.3582 40.563 20.2222C40.6667 20.6776 41.0719 21.0006 41.539 21.0002H46V27Z" fill="#2E2D29"/>
<path d="M46 19H42.319C41.8982 17.4564 41.2822 15.9728 40.486 14.5851L43.092 11.9791C43.0922 11.9789 43.0924 11.9787 43.0926 11.9785C43.8735 11.1973 43.8732 9.93103 43.092 9.15009L38.849 4.90809C38.0679 4.12734 36.8019 4.12734 36.021 4.90809L33.415 7.51406C32.027 6.71841 30.5435 6.10247 29.0001 5.68106V1.99997C29 0.895406 28.1046 0 27 0H21C19.8954 0 19 0.895406 19 1.99997V5.68097C17.4566 6.10237 15.973 6.71831 14.5851 7.51397L11.9791 4.908C11.1981 4.12725 9.93206 4.12725 9.15112 4.908L4.908 9.15C4.90781 9.15019 4.90762 9.15037 4.90744 9.15056C4.12659 9.93178 4.12678 11.1981 4.908 11.979L7.51397 14.585C6.71775 15.9727 6.10181 17.4563 5.68097 18.9999H1.99997C0.895406 19 0 19.8954 0 21V27C0 28.1046 0.895406 29 1.99997 29H5.68097C6.10181 30.5436 6.71775 32.0272 7.51397 33.4149L4.908 36.0209C4.90781 36.0211 4.90762 36.0213 4.90744 36.0215C4.12659 36.8027 4.12678 38.069 4.908 38.8499L9.15103 43.0919C9.93206 43.8727 11.1981 43.8727 11.979 43.0919L14.585 40.4859C15.973 41.2816 17.4565 41.8975 18.9999 42.3189V45.9999C18.9999 47.1045 19.8953 47.9999 20.9999 47.9999H26.9999C28.1045 47.9999 28.9999 47.1045 28.9999 45.9999V42.3189C30.5433 41.8975 32.0269 41.2816 33.4148 40.4859L36.0208 43.0919C36.8018 43.8727 38.0678 43.8727 38.8488 43.0919L43.0918 38.8499C43.092 38.8497 43.0922 38.8495 43.0924 38.8493C43.8733 38.0681 43.873 36.8018 43.0918 36.0209L40.4858 33.4149C41.2821 32.0272 41.898 30.5436 42.3188 29H45.9998C47.1044 29 47.9998 28.1046 47.9998 27V21C48 19.8954 47.1046 19 46 19ZM46 27H41.539C41.072 26.9995 40.6667 27.3225 40.563 27.778C40.1394 29.6421 39.4012 31.4202 38.38 33.036C38.1314 33.4313 38.1895 33.946 38.52 34.276L41.678 37.4361L37.4349 41.6781L34.2759 38.5201C33.9461 38.1901 33.432 38.1321 33.0369 38.3801C31.4208 39.4008 29.6427 40.139 27.779 40.5631C27.3234 40.6663 27.0001 41.071 27 41.5381V46.0001H21V41.5381C20.9999 41.071 20.6765 40.6663 20.221 40.5631C18.3572 40.139 16.5791 39.4008 14.9631 38.3801C14.8037 38.2801 14.6193 38.227 14.431 38.2271C14.1658 38.2272 13.9116 38.3326 13.7241 38.5201L10.5651 41.6781L6.32203 37.435L9.48 34.276C9.81047 33.9461 9.86859 33.4313 9.61997 33.036C8.59875 31.4201 7.86047 29.642 7.437 27.778C7.33331 27.3226 6.92812 26.9996 6.46097 27H1.99997V21H6.46097C6.92803 21.0005 7.33331 20.6775 7.437 20.222C7.86056 18.3579 8.59875 16.5798 9.61997 14.964C9.86859 14.5687 9.81047 14.054 9.48 13.724L6.32203 10.5639L10.5651 6.32194L13.7241 9.47991C14.0539 9.80991 14.568 9.86794 14.9631 9.61987C16.579 8.59912 18.3572 7.86122 20.221 7.43784C20.6768 7.33453 21.0004 6.92925 21 6.46181V1.99997H27V6.462C26.9996 6.92944 27.3232 7.33472 27.779 7.43803C29.6429 7.86131 31.421 8.59922 33.0369 9.62006C33.432 9.86812 33.9461 9.81 34.2759 9.48009L37.4349 6.32212L41.678 10.5652L38.52 13.7242C38.1895 14.0541 38.1314 14.5688 38.38 14.9642C39.4012 16.5801 40.1395 18.3582 40.563 20.2222C40.6667 20.6776 41.0719 21.0006 41.539 21.0002H46V27Z" stroke="#2E2D29" stroke-width="0.4" mask="url(#path-2-outside-1_934_1403)"/>
<path d="M29.1001 24.0006C29.1003 23.8298 29.0607 23.6615 28.9846 23.5088L28.9846 23.5087L29.0001 24.0004M29.1001 24.0006L29.0001 24.0004M29.1001 24.0006V24.0004H29.0001M29.1001 24.0006V37.0004V37.1004H29.0001H27.0002H26.9002V37.0004V24.26M29.0001 24.0004V36.9004V37.0004H28.9001H27.1002H27.0002V36.9004V24.2364L26.9107 24.2811L26.9002 24.26M26.9002 24.26L24.0002 18.46M26.9002 24.26L24.0002 18.46M24.0002 18.46L21.1002 24.26V37.0005V37.1005H21.0002H19H18.9V37.0005L18.9 24.0006L18.9 24.0004H19L24.0002 18.46Z" fill="#2E2D29" stroke="#2E2D29" stroke-width="0.2"/>
<path d="M20.0011 21.9L19.9 21.8989V22V24V24.1H20C20.2657 24.1 20.4472 24.1506 20.6207 24.2553C20.799 24.363 20.9723 24.5293 21.2191 24.7744C21.9058 25.6032 22.9225 26.088 23.9989 26.0999L24.0011 26.0999C25.0776 26.088 26.0942 25.6032 26.781 24.7744C27.0277 24.5293 27.2011 24.3629 27.3794 24.2553C27.5528 24.1506 27.7344 24.1 28.0001 24.1H28.1001V24V22V21.8989L27.999 21.9C26.9225 21.9119 25.9059 22.3967 25.2191 23.2255C24.9724 23.4706 24.7991 23.637 24.6207 23.7446C24.4473 23.8493 24.2657 23.9 24 23.9C23.7343 23.9 23.552 23.8493 23.3781 23.7445C23.1996 23.637 23.0262 23.4706 22.7811 23.2256C22.0943 22.3968 21.0776 21.9119 20.0011 21.9Z" fill="#2E2D29" stroke="#2E2D29" stroke-width="0.2"/>
<path d="M25.1 25V24.9H25H23H22.9V25V37V37.1H23H25H25.1V37V25Z" fill="#2E2D29" stroke="#2E2D29" stroke-width="0.2"/>
<path d="M26.1 18V17.9H26H22H21.9V18V20V20.1H22H26H26.1V20V18Z" fill="#2E2D29" stroke="#2E2D29" stroke-width="0.2"/>
</g>
<defs>
<clipPath id="clip0_934_1403">
<rect width="48" height="48" fill="white"/>
</clipPath>
</defs>
</svg>
