<svg width="48" height="48" viewBox="0 0 48 48" fill="none" xmlns="http://www.w3.org/2000/svg">
<g clip-path="url(#clip0_949_317)">
<path d="M13.3048 29.9486C13.7344 29.7008 13.8814 29.1509 13.6337 28.7213C13.3855 28.2921 12.8359 28.1447 12.4064 28.3925C11.9768 28.6406 11.8294 29.1906 12.0775 29.6198C12.3253 30.0493 12.8752 30.1967 13.3048 29.9486Z" fill="#2E2D29"/>
<path d="M9.62358 36.152L14.1481 43.9891C15.1244 45.6821 17.3207 46.3089 19.0575 45.3048C20.7761 44.3116 21.3668 42.1157 20.3725 40.3957L17.6772 35.7266L20.0114 34.379C20.441 34.1305 20.5884 33.5813 20.3403 33.1517L19.1719 31.1281C19.3113 31.1011 20.2272 30.9214 36.3805 27.7527C38.3774 27.6442 39.5738 25.4602 38.5652 23.7143L35.5793 18.5426L37.4874 15.6525C37.6748 15.3683 37.6861 15.0029 37.5159 14.7081L35.719 11.5959C35.5488 11.3011 35.2255 11.1284 34.8869 11.1484L31.4303 11.3558L28.1156 5.61426C27.6355 4.7825 26.7753 4.27888 25.8151 4.26695C25.8035 4.2666 25.7923 4.2666 25.7807 4.2666C24.8528 4.2666 24.0105 4.72845 23.5115 5.50932L11.7749 20.4606L4.14487 24.8657C1.14388 26.5977 0.104356 30.4476 1.84297 33.4567C3.43138 36.2082 6.78017 37.2905 9.62358 36.152ZM18.8168 41.2945C19.313 42.1529 19.0193 43.2514 18.1584 43.7487C17.2947 44.2481 16.1948 43.9414 15.7042 43.091L11.212 35.3094L14.3242 33.5125C19.5232 42.5186 18.7332 41.1503 18.8168 41.2945ZM16.7788 34.1702L15.8804 32.6141L17.4365 31.7156L18.3349 33.2717L16.7788 34.1702ZM34.4405 12.9751L35.6821 15.1258L34.5749 16.8026L32.4348 13.0955L34.4405 12.9751ZM25.0142 6.49445C25.2553 6.09998 25.6379 6.05926 25.793 6.06348C25.9464 6.06523 26.3286 6.11296 26.5591 6.51234L37.0091 24.6127C37.3495 25.2019 36.9357 25.9428 36.2531 25.9597C36.1306 25.9625 36.0741 25.9846 35.7604 26.0432L24.7065 6.89699C24.9384 6.59868 24.9683 6.5699 25.0142 6.49445ZM23.5108 8.42012L33.8965 26.4089L18.2223 29.4832L13.4563 21.2285L23.5108 8.42012ZM3.39909 32.5583C3.00462 31.8757 2.79616 31.1007 2.79616 30.3167C2.79616 28.7143 3.6574 27.222 5.0433 26.4219L12.0459 22.3789L16.538 30.1595L9.53549 34.2028C7.39012 35.441 4.6376 34.7033 3.39909 32.5583Z" fill="#2E2D29"/>
<path d="M10.5213 30.5187C10.2732 30.0891 9.72357 29.9417 9.29401 30.1898L7.73789 31.0883C7.30902 31.336 6.75838 31.1883 6.51061 30.7594C6.26248 30.3299 5.71289 30.1825 5.28333 30.4306C4.85376 30.6787 4.70636 31.2283 4.95448 31.6579C5.69394 32.9388 7.34342 33.3905 8.63632 32.6444L10.1924 31.746C10.622 31.4978 10.7694 30.9486 10.5213 30.5187Z" fill="#2E2D29"/>
<path d="M45.6653 6.18446L40.659 8.97032C40.2256 9.21178 40.0694 9.75891 40.3109 10.1923C40.5516 10.6254 41.0984 10.7823 41.5329 10.5405L46.5388 7.75462C46.9726 7.51317 47.1284 6.96604 46.887 6.53261C46.6459 6.09883 46.0987 5.94301 45.6653 6.18446Z" fill="#2E2D29"/>
<path d="M45.1418 15.4914L41.6705 14.5614C41.1911 14.4329 40.6983 14.7172 40.5699 15.1966C40.4414 15.676 40.7261 16.1684 41.2055 16.2968L44.6771 17.2269C45.1593 17.3564 45.6496 17.0675 45.7773 16.5916C45.9058 16.1122 45.6212 15.6195 45.1418 15.4914Z" fill="#2E2D29"/>
<path d="M36.4151 2.92438L35.484 6.396C35.3555 6.8754 35.6398 7.36778 36.1192 7.49658C36.5983 7.62468 37.091 7.34111 37.2198 6.86136L38.1505 3.38974C38.279 2.91034 37.9947 2.41761 37.5153 2.28916C37.0362 2.16071 36.5435 2.44498 36.4151 2.92438Z" fill="#2E2D29"/>
</g>
<defs>
<clipPath id="clip0_949_317">
<rect width="46" height="46" fill="white" transform="translate(1 1)"/>
</clipPath>
</defs>
</svg>
