<svg width="36" height="36" viewBox="0 0 36 36" fill="none" xmlns="http://www.w3.org/2000/svg">
<path d="M18 7.5C12.201 7.5 7.5 12.201 7.5 18C7.5 23.7989 12.201 28.5 18 28.5C23.7964 28.4938 28.4938 23.7964 28.5 18C28.5 12.201 23.799 7.5 18 7.5ZM18 27C13.0294 27 8.99998 22.9705 8.99998 18C8.99998 13.0294 13.0294 8.99998 18 8.99998C22.9683 9.00532 26.9946 13.0316 27 18C27 22.9705 22.9705 27 18 27Z" fill="#8C1515"/>
<path d="M34.5 14.25H31.7393C31.4236 13.0923 30.9617 11.9796 30.3645 10.9388L32.319 8.98432C32.3191 8.98418 32.3193 8.98404 32.3194 8.9839C32.9051 8.39798 32.9049 7.44827 32.319 6.86257L29.1367 3.68107C28.551 3.09551 27.6014 3.09551 27.0157 3.68107L25.0613 5.63555C24.0202 5.0388 22.9076 4.57685 21.75 4.2608V1.49998C21.75 0.671555 21.0784 0 20.25 0H15.75C14.9216 0 14.25 0.671555 14.25 1.49998V4.26073C13.0925 4.57678 11.9798 5.03873 10.9388 5.63548L8.98432 3.681C8.39855 3.09544 7.44905 3.09544 6.86334 3.681L3.681 6.8625C3.68086 6.86264 3.68072 6.86278 3.68058 6.86292C3.09494 7.44884 3.09509 8.39855 3.681 8.98425L5.63548 10.9387C5.03831 11.9796 4.57636 13.0923 4.26073 14.25H1.49998C0.671555 14.25 0 14.9216 0 15.75V20.25C0 21.0784 0.671555 21.75 1.49998 21.75H4.26073C4.57636 22.9077 5.03831 24.0204 5.63548 25.0612L3.681 27.0157C3.68086 27.0158 3.68072 27.016 3.68058 27.0161C3.09494 27.602 3.09509 28.5517 3.681 29.1374L6.86327 32.3189C7.44905 32.9045 8.39855 32.9045 8.98425 32.3189L10.9387 30.3645C11.9798 30.9612 13.0924 31.4231 14.25 31.7392V34.4999C14.25 35.3284 14.9215 35.9999 15.7499 35.9999H20.2499C21.0783 35.9999 21.7499 35.3284 21.7499 34.4999V31.7392C22.9075 31.4231 24.0202 30.9612 25.0611 30.3645L27.0156 32.3189C27.6014 32.9045 28.5509 32.9045 29.1366 32.3189L32.3189 29.1374C32.319 29.1373 32.3191 29.1371 32.3193 29.137C32.905 28.5511 32.9048 27.6014 32.3189 27.0157L30.3644 25.0612C30.9615 24.0204 31.4235 22.9077 31.7391 21.75H34.4999C35.3283 21.75 35.9999 21.0784 35.9999 20.25V15.75C36 14.9216 35.3284 14.25 34.5 14.25ZM34.5 20.25H31.1543C30.804 20.2496 30.5 20.4919 30.4222 20.8335C30.1046 22.2315 29.5509 23.5652 28.785 24.777C28.5986 25.0735 28.6421 25.4595 28.89 25.707L31.2585 28.077L28.0762 31.2585L25.7069 28.8901C25.4596 28.6426 25.074 28.599 24.7777 28.7851C23.5656 29.5506 22.232 30.1042 20.8342 30.4223C20.4926 30.4997 20.2501 30.8033 20.25 31.1536V34.5001H15.75V31.1536C15.7499 30.8033 15.5073 30.4997 15.1658 30.4223C13.7679 30.1042 12.4343 29.5506 11.2223 28.7851C11.1028 28.7101 10.9645 28.6703 10.8233 28.6703C10.6244 28.6704 10.4337 28.7494 10.293 28.8901L7.9238 31.2585L4.74152 28.0763L7.11 25.707C7.35785 25.4596 7.40144 25.0735 7.21498 24.777C6.44906 23.5651 5.89535 22.2315 5.57775 20.8335C5.49998 20.4919 5.19609 20.2497 4.84573 20.25H1.49998V15.75H4.84573C5.19602 15.7503 5.49998 15.5081 5.57775 15.1665C5.89542 13.7685 6.44906 12.4348 7.21498 11.223C7.40144 10.9265 7.35785 10.5405 7.11 10.293L4.74152 7.92295L7.9238 4.74145L10.293 7.10993C10.5404 7.35743 10.926 7.40095 11.2223 7.21491C12.4343 6.44934 13.7679 5.89591 15.1658 5.57838C15.5076 5.5009 15.7503 5.19694 15.75 4.84636V1.49998H20.25V4.8465C20.2497 5.19708 20.4924 5.50104 20.8342 5.57852C22.2322 5.89598 23.5657 6.44941 24.7777 7.21505C25.074 7.40109 25.4596 7.3575 25.7069 7.11007L28.0762 4.74159L31.2585 7.92387L28.89 10.2931C28.6421 10.5405 28.5986 10.9266 28.785 11.2231C29.5509 12.435 30.1046 13.7687 30.4222 15.1666C30.5 15.5082 30.8039 15.7504 31.1543 15.7501H34.5V20.25Z" fill="#8C1515"/>
<path d="M21.6714 17.6651L18.6713 11.6651C18.6049 11.5537 18.5117 11.4605 18.4003 11.3941C18.0296 11.1731 17.5498 11.2943 17.3288 11.6651L14.3288 17.6651C14.2769 17.7692 14.2499 17.884 14.25 18.0003V27.7504H15.7501V18.1773L18.0001 13.6773L20.2501 18.1773V27.7503H21.7501V18.0003C21.7502 17.884 21.7232 17.7692 21.6714 17.6651Z" fill="#8C1515"/>
<path d="M18.9698 17.4697C18.6 17.8372 18.4216 18 18 18C17.5785 18 17.3978 17.8372 17.0303 17.4697C16.5292 16.8634 15.7865 16.5087 15 16.5V18C15.4215 18 15.6 18.1627 15.9698 18.5302C16.4708 19.1365 17.2135 19.4912 18 19.4999C18.7865 19.4912 19.5293 19.1365 20.0303 18.5302C20.4001 18.1627 20.5785 18 21.0001 18V16.5C20.2135 16.5087 19.4708 16.8634 18.9698 17.4697Z" fill="#8C1515"/>
<path d="M18.75 18.75H17.25V27.75H18.75V18.75Z" fill="#8C1515"/>
<path d="M19.5 13.5H16.5V15H19.5V13.5Z" fill="#8C1515"/>
</svg>
