<svg width="16" height="16" viewBox="0 0 16 16" fill="none" xmlns="http://www.w3.org/2000/svg">
<path d="M8.00145 11.8417C8.51521 11.8417 8.93169 11.4294 8.93169 10.9207C8.93169 10.412 8.51521 9.99964 8.00145 9.99964C7.4877 9.99964 7.07122 10.412 7.07122 10.9207C7.07122 11.4294 7.4877 11.8417 8.00145 11.8417Z" fill="#BB2625"/>
<path d="M8.55814 5.15224C8.55814 4.84703 8.30825 4.59961 8 4.59961C7.69175 4.59961 7.44186 4.84703 7.44186 5.15224V8.83645C7.44186 9.14166 7.69175 9.38908 8 9.38908C8.30825 9.38908 8.55814 9.14166 8.55814 8.83645V5.15224Z" fill="#BB2625"/>
<path fill-rule="evenodd" clip-rule="evenodd" d="M8 0C8.20029 0 8.38523 0.106263 8.4846 0.27845L15.9265 13.1732C16.0252 13.3442 16.0245 13.5544 15.9246 13.7247C15.8247 13.8951 15.6408 14 15.4419 14H0.55814C0.359179 14 0.175262 13.8951 0.075399 13.7247C-0.0244644 13.5544 -0.0251732 13.3442 0.0735387 13.1732L7.5154 0.27845C7.61477 0.106263 7.79971 0 8 0ZM14.4801 12.8947L8 1.6665L1.51991 12.8947H14.4801Z" fill="#BB2625"/>
</svg>
