<svg width="14" height="14" viewBox="0 0 14 14" fill="none" xmlns="http://www.w3.org/2000/svg">
<path fill-rule="evenodd" clip-rule="evenodd" d="M6.9998 1.4498C3.93462 1.4498 1.4498 3.93462 1.4498 6.9998C1.4498 10.065 3.93462 12.5498 6.9998 12.5498C10.065 12.5498 12.5498 10.065 12.5498 6.9998C12.5498 3.93462 10.065 1.4498 6.9998 1.4498ZM0.549805 6.9998C0.549805 3.43757 3.43757 0.549805 6.9998 0.549805C10.562 0.549805 13.4498 3.43757 13.4498 6.9998C13.4498 10.562 10.562 13.4498 6.9998 13.4498C3.43757 13.4498 0.549805 10.562 0.549805 6.9998Z" fill="#2E2D29"/>
<path fill-rule="evenodd" clip-rule="evenodd" d="M3.68197 6.6818C3.8577 6.50607 4.14263 6.50607 4.31836 6.6818L6.12149 8.48492L10.0459 4.56048C10.2217 4.38475 10.5066 4.38475 10.6823 4.56048C10.8581 4.73622 10.8581 5.02114 10.6823 5.19688L6.43968 9.43952C6.26395 9.61525 5.97902 9.61525 5.80329 9.43952L3.68197 7.3182C3.50623 7.14246 3.50623 6.85754 3.68197 6.6818Z" fill="#2E2D29"/>
</svg>
