<svg xmlns="http://www.w3.org/2000/svg" width="13" height="12" viewBox="0 0 13 12" fill="none">
<path d="M12.2708 10.6723L9.9824 8.38356C10.6272 7.51106 11.0191 6.43625 11.0191 5.26027C11.0191 2.35195 8.65486 0 5.75957 0C2.85163 0 0.5 2.36459 0.5 5.26027C0.5 8.1686 2.86428 10.5205 5.75957 10.5205C6.92274 10.5205 8.01006 10.1286 8.88244 9.48367L11.1709 11.7724C11.3226 11.9241 11.5249 12 11.7272 12C11.9295 12 12.1317 11.9241 12.2835 11.7724C12.5743 11.4816 12.5743 10.9758 12.2708 10.6723ZM2.05511 5.26027C2.05511 3.22445 3.71137 1.56797 5.74693 1.56797C7.78248 1.56797 9.43874 3.22445 9.43874 5.26027C9.43874 7.2961 7.78248 8.95258 5.74693 8.95258C3.71137 8.96523 2.05511 7.30875 2.05511 5.26027Z" fill="#585754"/>
</svg>