<svg width="20" height="20" viewBox="0 0 20 20" fill="none" xmlns="http://www.w3.org/2000/svg">
<path d="M18.3365 2H1.66047C1.40721 2 1.17344 2.13403 1.06434 2.33173C0.955248 2.52942 0.986418 2.76733 1.14617 2.93822L6.88147 9.09026H6.87757C7.33733 9.58283 7.58669 10.2027 7.58669 10.8327V14.7497C7.58669 14.9106 7.67241 15.0681 7.81267 15.1753L11.3037 17.8559C11.4284 17.9497 11.5882 18 11.7479 18C11.8375 18 11.9349 17.9832 12.0245 17.9497C12.2622 17.8593 12.422 17.6549 12.422 17.4304V10.8327C12.422 10.2027 12.6713 9.58283 13.1311 9.09361L18.8547 2.94157C19.0144 2.77068 19.0456 2.52942 18.9326 2.33173C18.8235 2.13403 18.5897 2 18.3365 2ZM12.0869 8.36984C11.4401 9.06346 11.0894 9.94471 11.0894 10.8327V16.1604L8.90752 14.4984V10.8327C8.90752 9.94471 8.55686 9.07351 7.91008 8.3799L7.91398 8.37319L3.03975 3.13927H16.9533L12.0869 8.36984Z" fill="#2E2D29"/>
</svg>
